<?xml version="1.0" encoding="utf-8"?>
<!-- Generator: Adobe Illustrator 16.0.0, SVG Export Plug-In . SVG Version: 6.00 Build 0)  -->
<!DOCTYPE svg PUBLIC "-//W3C//DTD SVG 1.1//EN" "http://www.w3.org/Graphics/SVG/1.1/DTD/svg11.dtd">
<svg version="1.1" id="Camada_1" xmlns="http://www.w3.org/2000/svg" xmlns:xlink="http://www.w3.org/1999/xlink" x="0px" y="0px"
	 width="1200px" height="114.69px" viewBox="0 0 1200 114.69" enable-background="new 0 0 1200 114.69" xml:space="preserve">
<path fill="#6C56A4" d="M-338.093,570.419c0-197.674,0.012-395.345-0.086-593.018c-0.002-3.916,0.416-5.254,4.968-5.253
	c638.52,0.141,1277.037,0.134,1915.557,0.134c0.974,2.073,0.461,4.272,0.461,6.402c0.031,199.877,0.021,399.754,0.029,599.623
	c-0.287,2.247-2.158,2.288-3.746,2.535c-57.645,8.976-113.398,25.642-169.393,41.396c-27.588,7.764-55.101,15.797-82.927,22.739
	c-17.269,4.309-34.108,4.526-51.334,0.122c-25.851-6.61-51.472-13.968-76.939-21.883c-53.473-16.615-106.579-34.435-160.725-48.839
	c-4.076-1.085-8.161-1.5-12.355-1.496c-35.504,0.03-71.009,0.04-106.515-0.022c-2.718-0.005-5.741,0.807-7.974-1.727
	c0.016-0.682,0.325-1.168,0.931-1.478c2.861-1.29,5.902-0.904,8.88-0.906c49.667-0.023,99.335-0.014,149.004-0.02
	c9.908-0.001,11.095-1.49,9.7-11.482c-0.362-2.594-1.503-3.884-4.114-4.025c-2.334-0.127-4.665-0.12-6.997-0.12
	c-79.502-0.005-159.004-0.001-238.506-0.013c-3.162,0-6.337,0.179-9.478-0.383c-2.127-0.561-4.206-1.253-6.061-2.489
	c-3.247-2.849-5.272-6.552-5.792-10.689c-0.869-6.922-2.559-13.993,0.99-20.753c2.645-1.375,5.518-1.007,8.318-1.009
	c32.4-0.027,64.803-0.017,97.205-0.02c1.992,0,3.985-0.044,5.979-0.077c3.413-0.056,5.354-1.647,5.395-5.111
	c0.087-7.792,0.674-15.596-0.434-23.366c-0.544-2.807-0.438-5.646-0.439-8.477c-0.009-43.67-0.056-87.341,0.032-131.012
	c0.02-9.486,1.263-18.936,1.012-28.456c-0.261-9.887-0.354-10.193-10.064-10.195c-47.67-0.011-95.341-0.004-143.011-0.005
	c-29.67,0-59.339,0.008-89.008-0.013c-2.82-0.002-5.681,0.27-8.417-0.706c-2.555-1.356-2.302-3.859-2.343-6.139
	c-0.125-6.663,0.05-13.329-0.074-19.992c-0.202-10.861-6.191-17.044-17.032-18.459c-15.899-2.075-31.675-1.437-45.649,6.673
	c-9.196,5.337-18.098,8.043-28.66,7.618c-11.84-0.477-23.623,10.506-22.777,22.936c0.172,2.533,0.613,5.446-2.143,7.268
	c-3.059,1.175-6.256,0.797-9.399,0.798c-75.936,0.021-151.868,0.016-227.803,0.018c-11.414,0.001-11.757,0.021-11.37,11.282
	c1.802,52.433,0.563,104.879,0.933,157.317c0.022,3.16,0.151,6.332-0.417,9.467c-1.178,7.785-0.533,15.607-0.444,23.415
	c0.036,3.19,1.83,4.821,5.007,5.056c2.164,0.16,4.326,0.16,6.49,0.16c32.979,0.005,65.958-0.007,98.938,0.021
	c2.808,0.002,5.684-0.354,8.356,0.944c0.132,0.096,0.311,0.171,0.383,0.305c4.34,7.95,1.585,25.378-4.93,31.282
	c-1.93,1.087-3.995,1.827-6.138,2.378c-3.306,0.6-6.647,0.414-9.976,0.415c-77.168,0.012-154.336,0.011-231.504,0.007
	c-10.625-0.002-9.726,0.116-9.819,9.416c-0.02,1.832-0.049,3.677-0.914,5.366c-2.301,2.605-4.927,1.205-7.355,0.412
	c-18.052-5.896-36.216-11.427-54.536-16.409c-26.375-7.17-52.92-13.764-80.294-15.628c-20.578-1.401-41.2-0.776-61.801,0.355
	c-12.125,0.667-24.241,1.438-36.361,2.171c-20.774,1.259-41.477,3.257-62.157,5.442c-39.903,4.217-79.761,8.86-119.457,14.749
	c-24.05,3.566-48.084,7.253-72.052,11.352C-332.168,570.825-335.133,571.682-338.093,570.419z"/>
<path fill="#6C56A4" d="M-357.855,594.251c0-197.674,0.012-395.345-0.086-593.018c-0.002-3.916,0.416-5.254,4.968-5.253
	c638.52,0.141,1277.037,0.134,1915.557,0.134c0.974,2.073,0.461,4.272,0.461,6.402c0.031,199.877,0.021,399.754,0.029,599.623
	c-0.287,2.247-2.158,2.288-3.746,2.535c-57.645,8.976-113.398,25.642-169.393,41.396c-27.588,7.764-55.101,15.797-82.927,22.739
	c-17.269,4.309-34.108,4.526-51.334,0.122c-25.851-6.61-51.472-13.968-76.939-21.883c-53.473-16.615-106.579-34.435-160.725-48.839
	c-4.076-1.085-8.161-1.5-12.355-1.496c-35.504,0.03-71.009,0.04-106.515-0.022c-2.718-0.005-5.741,0.807-7.974-1.727
	c0.016-0.682,0.325-1.168,0.931-1.478c2.861-1.29,5.902-0.904,8.88-0.906c49.667-0.023,99.335-0.014,149.004-0.02
	c9.908-0.001,11.095-1.49,9.7-11.482c-0.362-2.594-1.503-3.884-4.114-4.025c-2.334-0.127-4.665-0.12-6.997-0.12
	c-79.502-0.005-159.004-0.001-238.506-0.013c-3.162,0-6.337,0.179-9.478-0.383c-2.127-0.561-4.206-1.253-6.061-2.489
	c-3.247-2.849-5.272-6.552-5.792-10.689c-0.869-6.922-2.559-13.993,0.99-20.753c2.645-1.375,5.518-1.007,8.318-1.009
	c32.4-0.027,64.803-0.017,97.205-0.02c1.992,0,3.985-0.044,5.979-0.077c3.413-0.056,5.354-1.647,5.395-5.111
	c0.087-7.792,0.674-15.596-0.434-23.366c-0.544-2.807-0.438-5.646-0.439-8.477c-0.009-43.67-0.056-87.341,0.032-131.012
	c0.02-9.486,1.263-18.936,1.012-28.456c-0.261-9.887-0.354-10.193-10.064-10.195c-47.67-0.011-95.341-0.004-143.011-0.005
	c-29.67,0-59.339,0.008-89.008-0.013c-2.82-0.002-5.681,0.27-8.417-0.706c-2.555-1.356-2.302-3.859-2.343-6.139
	c-0.125-6.663,0.05-13.329-0.074-19.992c-0.202-10.861-6.191-17.044-17.032-18.459c-15.899-2.075-31.675-1.437-45.649,6.673
	c-9.196,5.337-18.098,8.043-28.66,7.618c-11.84-0.477-23.623,10.506-22.777,22.936c0.172,2.533,0.613,5.446-2.143,7.268
	c-3.059,1.175-6.256,0.797-9.399,0.798c-75.936,0.021-151.868,0.016-227.803,0.018c-11.414,0.001-11.757,0.021-11.37,11.282
	c1.802,52.433,0.563,104.879,0.933,157.317c0.022,3.16,0.151,6.332-0.417,9.467c-1.178,7.785-0.533,15.607-0.444,23.415
	c0.036,3.19,1.83,4.821,5.007,5.056c2.164,0.16,4.326,0.16,6.49,0.16c32.979,0.005,65.958-0.007,98.938,0.021
	c2.808,0.002,5.684-0.354,8.356,0.944c0.132,0.096,0.311,0.171,0.383,0.305c4.34,7.95,1.585,25.378-4.93,31.282
	c-1.93,1.087-3.995,1.827-6.138,2.378c-3.306,0.6-6.647,0.414-9.976,0.415c-77.168,0.012-154.336,0.011-231.504,0.007
	c-10.625-0.002-9.726,0.116-9.819,9.416c-0.02,1.832-0.049,3.677-0.914,5.366c-2.301,2.605-4.927,1.205-7.355,0.412
	c-18.052-5.896-36.216-11.427-54.536-16.409c-26.375-7.17-52.92-13.764-80.294-15.628c-20.578-1.401-41.2-0.776-61.801,0.355
	c-12.125,0.667-24.241,1.438-36.361,2.171c-20.774,1.259-41.477,3.257-62.157,5.442c-39.903,4.217-79.761,8.86-119.457,14.749
	c-24.05,3.566-48.084,7.253-72.052,11.352C-351.931,594.657-354.896,595.514-357.855,594.251z"/>
<path fill="#6C56A4" d="M-357.855,568.675c0-197.674,0.012-395.345-0.086-593.018c-0.002-3.916,0.416-5.254,4.968-5.253
	c638.52,0.141,1277.037,0.134,1915.557,0.134c0.974,2.073,0.461,4.272,0.461,6.402c0.031,199.877,0.021,399.754,0.029,599.623
	c-0.287,2.247-2.158,2.288-3.746,2.535c-57.645,8.976-113.398,25.642-169.393,41.396c-27.588,7.764-55.101,15.797-82.927,22.739
	c-17.269,4.309-34.108,4.526-51.334,0.122c-25.851-6.61-51.472-13.968-76.939-21.883c-53.473-16.615-106.579-34.435-160.725-48.839
	c-4.076-1.085-8.161-1.5-12.355-1.496c-35.504,0.03-71.009,0.04-106.515-0.022c-2.718-0.005-5.741,0.807-7.974-1.727
	c0.016-0.682,0.325-1.168,0.931-1.478c2.861-1.29,5.902-0.904,8.88-0.906c49.667-0.023,99.335-0.014,149.004-0.02
	c9.908-0.001,11.095-1.49,9.7-11.482c-0.362-2.594-1.503-3.884-4.114-4.025c-2.334-0.127-4.665-0.12-6.997-0.12
	c-79.502-0.005-159.004-0.001-238.506-0.013c-3.162,0-6.337,0.179-9.478-0.383c-2.127-0.561-4.206-1.253-6.061-2.489
	c-3.247-2.849-5.272-6.552-5.792-10.689c-0.869-6.922-2.559-13.993,0.99-20.753c2.645-1.375,5.518-1.007,8.318-1.009
	c32.4-0.027,64.803-0.017,97.205-0.02c1.992,0,3.985-0.044,5.979-0.077c3.413-0.056,5.354-1.647,5.395-5.111
	c0.087-7.792,0.674-15.596-0.434-23.366c-0.544-2.807-0.438-5.646-0.439-8.477c-0.009-43.67-0.056-87.341,0.032-131.012
	c0.02-9.486,1.263-18.936,1.012-28.456c-0.261-9.887-0.354-10.193-10.064-10.195c-47.67-0.011-95.341-0.004-143.011-0.005
	c-29.67,0-59.339,0.008-89.008-0.013c-2.82-0.002-5.681,0.27-8.417-0.706c-2.555-1.356-2.302-3.859-2.343-6.139
	c-0.125-6.663,0.05-13.329-0.074-19.992c-0.202-10.861-6.191-17.044-17.032-18.459c-15.899-2.075-31.675-1.437-45.649,6.673
	c-9.196,5.337-18.098,8.043-28.66,7.618c-11.84-0.477-23.623,10.506-22.777,22.936c0.172,2.533,0.613,5.446-2.143,7.268
	c-3.059,1.175-6.256,0.797-9.399,0.798c-75.936,0.021-151.868,0.016-227.803,0.018c-11.414,0.001-11.757,0.021-11.37,11.282
	c1.802,52.433,0.563,104.879,0.933,157.317c0.022,3.16,0.151,6.332-0.417,9.467c-1.178,7.785-0.533,15.607-0.444,23.415
	c0.036,3.19,1.83,4.821,5.007,5.056c2.164,0.16,4.326,0.16,6.49,0.16c32.979,0.005,65.958-0.007,98.938,0.021
	c2.808,0.002,5.684-0.354,8.356,0.944c0.132,0.096,0.311,0.171,0.383,0.305c4.34,7.95,1.585,25.378-4.93,31.282
	c-1.93,1.087-3.995,1.827-6.138,2.378c-3.306,0.6-6.647,0.414-9.976,0.415c-77.168,0.012-154.336,0.011-231.504,0.007
	c-10.625-0.002-9.726,0.116-9.819,9.416c-0.02,1.832-0.049,3.677-0.914,5.366c-2.301,2.605-4.927,1.205-7.355,0.412
	c-18.052-5.896-36.216-11.427-54.536-16.409c-26.375-7.17-52.92-13.764-80.294-15.628c-20.578-1.401-41.2-0.776-61.801,0.355
	c-12.125,0.667-24.241,1.438-36.361,2.171c-20.774,1.259-41.477,3.257-62.157,5.442c-39.903,4.217-79.761,8.86-119.457,14.749
	c-24.05,3.566-48.084,7.253-72.052,11.352C-351.931,569.081-354.896,569.938-357.855,568.675z"/>
<path fill="#6C56A4" d="M-282.873,579.138c0-197.674,0.012-395.345-0.086-593.018c-0.002-3.916,0.416-5.254,4.968-5.253
	c638.52,0.141,1277.038,0.134,1915.557,0.134c0.973,2.073,0.461,4.272,0.461,6.402c0.031,199.877,0.02,399.754,0.029,599.623
	c-0.287,2.247-2.158,2.288-3.746,2.535c-57.645,8.976-113.398,25.642-169.393,41.396c-27.588,7.764-55.102,15.797-82.928,22.739
	c-17.268,4.309-34.107,4.526-51.334,0.122c-25.85-6.61-51.471-13.968-76.939-21.883c-53.473-16.615-106.578-34.435-160.725-48.839
	c-4.076-1.085-8.16-1.5-12.355-1.496c-35.504,0.03-71.008,0.04-106.514-0.022c-2.719-0.005-5.742,0.807-7.975-1.727
	c0.016-0.682,0.326-1.168,0.932-1.478c2.861-1.29,5.902-0.904,8.879-0.906c49.668-0.023,99.336-0.014,149.004-0.02
	c9.908-0.001,11.096-1.49,9.701-11.482c-0.363-2.594-1.504-3.884-4.115-4.025c-2.334-0.127-4.664-0.12-6.996-0.12
	c-79.502-0.005-159.004-0.001-238.506-0.013c-3.162,0-6.338,0.179-9.479-0.383c-2.127-0.561-4.205-1.253-6.061-2.489
	c-3.246-2.849-5.271-6.552-5.791-10.689c-0.869-6.922-2.559-13.993,0.99-20.753c2.645-1.375,5.518-1.007,8.318-1.009
	c32.4-0.027,64.803-0.017,97.205-0.02c1.992,0,3.984-0.044,5.979-0.077c3.412-0.056,5.354-1.647,5.395-5.111
	c0.086-7.792,0.674-15.596-0.434-23.366c-0.545-2.807-0.439-5.646-0.439-8.477c-0.01-43.67-0.057-87.341,0.031-131.012
	c0.02-9.486,1.264-18.936,1.012-28.456c-0.26-9.887-0.354-10.193-10.064-10.195c-47.67-0.011-95.34-0.004-143.01-0.005
	c-29.67,0-59.34,0.008-89.008-0.013c-2.82-0.002-5.682,0.27-8.418-0.706c-2.555-1.356-2.301-3.859-2.342-6.139
	c-0.125-6.663,0.049-13.329-0.074-19.992c-0.203-10.861-6.191-17.044-17.033-18.459c-15.898-2.075-31.674-1.437-45.648,6.673
	c-9.197,5.337-18.098,8.043-28.66,7.618c-11.84-0.477-23.623,10.506-22.777,22.936c0.172,2.533,0.613,5.446-2.143,7.268
	c-3.059,1.175-6.256,0.797-9.4,0.798c-75.935,0.021-151.868,0.016-227.802,0.018c-11.414,0.001-11.757,0.021-11.37,11.282
	c1.802,52.433,0.563,104.879,0.933,157.317c0.022,3.16,0.151,6.332-0.417,9.467c-1.178,7.785-0.533,15.607-0.444,23.415
	c0.036,3.19,1.83,4.821,5.007,5.056c2.164,0.16,4.326,0.16,6.49,0.16c32.979,0.005,65.958-0.007,98.938,0.021
	c2.808,0.002,5.684-0.354,8.356,0.944c0.132,0.096,0.311,0.171,0.383,0.305c4.34,7.95,1.585,25.378-4.93,31.282
	c-1.93,1.087-3.995,1.827-6.138,2.378c-3.306,0.6-6.647,0.414-9.976,0.415c-77.168,0.012-154.336,0.011-231.504,0.007
	c-10.625-0.002-9.726,0.116-9.819,9.416c-0.02,1.832-0.049,3.677-0.914,5.366c-2.301,2.605-4.927,1.205-7.355,0.412
	c-18.052-5.896-36.216-11.427-54.536-16.409c-26.375-7.17-52.92-13.764-80.294-15.628c-20.578-1.401-41.2-0.776-61.801,0.355
	c-12.125,0.667-24.241,1.438-36.361,2.171c-20.774,1.259-41.477,3.257-62.157,5.442c-39.903,4.217-79.761,8.86-119.457,14.749
	c-24.05,3.566-48.084,7.253-72.052,11.352C-276.948,579.544-279.913,580.4-282.873,579.138z"/>
<path fill="#5A489D" d="M-338.093,1052.528c0-83.353,0-166.705,0-250.057c1.93-1.37,3.874-0.42,5.762,0.05
	c21.837,5.418,43.517,11.443,65.355,16.86c42.067,10.437,84.307,20.044,126.979,27.749c26.25,4.74,52.697,5.88,79.186,4.591
	c24.762-1.206,49.499-3.205,74.214-5.401c23.886-2.12,47.771-4.271,71.641-6.538c18.734-1.781,37.473-3.552,56.204-5.369
	c21.543-2.088,43.122-3.829,64.693-5.627c16.925-1.41,33.872-2.396,50.805-3.628c6.144-0.447,12.307-0.715,18.448-1.011
	c22.13-1.068,44.293-1.908,66.446-1.122c32.644,1.157,64.506,7.38,95.969,15.837c39.124,10.518,77.4,23.874,116.404,34.794
	c29.898,8.372,60.164,15.22,91.137,17.89c16.714,1.44,33.509,1.797,50.393,0.749c29.27-1.816,58.464-4.304,87.6-7.487
	c26.002-2.844,51.99-5.823,77.966-8.928c42.191-5.041,84.323-10.571,126.466-15.994c58.672-7.549,117.332-15.201,176.024-22.591
	c41.817-5.265,83.691-10.188,125.667-14.088c16.899-1.569,33.841-2.708,50.823-3.432c27.115-1.156,53.845,2.217,80.587,5.558
	c50.459,6.305,100.553,14.983,150.591,23.953c3.938,0.706,8.45,0.184,11.53,3.753c0.086,65.178-0.011,130.351,0.103,195.521
	c0.006,3.42-0.868,5.002-4.438,4.477c-0.979-0.144-1.996-0.021-2.996-0.021c-635.724,0-1271.444,0.001-1907.167-0.026
	C-333.831,1052.989-336.025,1053.496-338.093,1052.528z"/>
<path fill="#5F4DA0" d="M1582.176,852.489c-10.927-1.829-21.855-3.636-32.777-5.491c-20.544-3.488-41.065-7.121-61.633-10.472
	c-17.132-2.791-34.265-5.687-51.492-7.733c-12.314-1.464-24.6-3.211-36.945-4.493c-14.991-1.558-30.014-2.659-45.03-3.595
	c-9.388-0.584-18.945,0.142-28.318,1.218c-6.1,0.701-12.229,0.807-18.313,1.336c-19.945,1.737-39.871,3.535-59.74,6.044
	c-13.127,1.655-26.33,2.698-39.478,4.213c-12.808,1.475-25.583,3.233-38.379,4.809c-14.28,1.758-28.577,3.386-42.853,5.185
	c-11.971,1.509-23.912,3.246-35.881,4.763c-14.274,1.807-28.574,3.406-42.846,5.241c-13.445,1.729-26.86,3.705-40.303,5.462
	c-9.672,1.265-19.375,2.297-29.051,3.526c-11.317,1.439-22.615,3.028-33.933,4.471c-9.677,1.232-19.374,2.3-29.051,3.53
	c-11.317,1.439-22.615,3.021-33.933,4.462c-9.678,1.231-19.366,2.37-29.054,3.521c-10.506,1.247-21.015,2.486-31.526,3.681
	c-10.025,1.142-20.057,2.237-30.088,3.319c-15.291,1.651-30.575,3.352-45.879,4.874c-8.73,0.869-17.484,1.578-26.244,2.092
	c-17.234,1.01-34.459,2.675-51.748,2.007c-19.537-0.754-38.929-2.792-58.207-6.261c-36.021-6.481-70.861-17.312-105.753-27.979
	c-27.617-8.442-55.019-17.646-83.22-24.037c-18.557-4.205-37.173-7.96-56.185-9.876c-21.914-2.206-43.851-2.225-65.764-1.656
	c-19.881,0.515-39.754,1.9-59.626,2.963c-20.821,1.112-41.605,3.047-62.378,4.936c-19.271,1.753-38.491,4.031-57.755,5.864
	c-15.982,1.521-32.006,2.624-47.993,4.109c-16.304,1.516-32.57,3.438-48.881,4.87c-14.353,1.26-28.773,1.793-43.114,3.165
	c-26.165,2.503-52.378,3.514-78.633,2.854c-16.075-0.403-31.931-3.235-47.717-6.076c-34.075-6.129-67.887-13.564-101.484-21.907
	c-26.542-6.592-52.955-13.707-79.429-20.579c-3.202-0.83-6.423-1.584-9.636-2.374c0-47.345,0-94.688,0-142.032
	c1.04-2.06,3.067-2.363,5.008-2.857c18.907-4.821,37.938-9.036,57.354-11.23c12.193-1.378,24.284,0.248,36.338,1.845
	c52.942,7.009,104.911,19.02,156.981,30.541c38.41,8.499,76.585,17.964,114.768,27.393c37.856,9.349,75.654,18.938,113.236,29.352
	c14.843,4.112,29.905,6.618,45.365,6.484c11.833-0.104,23.668,0.033,35.501-0.034c16.823-0.098,33.569-1.617,50.345-2.644
	c14.79-0.902,29.559-1.957,44.313-3.28c7.076-0.378,14.118-1.108,21.154-1.936c33.293-2.883,66.559-6.067,99.853-8.886
	c21.517-1.821,43.061-3.611,64.663-4.374c4.813-0.17,9.566-1.363,14.421-0.842c24.82-1.303,49.637-2.724,74.494-1.005
	c13.893,0.124,27.633,1.825,41.324,4.034c19.104,2.503,38.219,4.967,57.348,7.302c2.656,0.323,5.299,0.31,7.952,0.414
	c15.116,2.509,30.393,3.603,45.618,5.091c19.204,1.879,38.397,3.854,57.616,5.573c17.556,1.572,35.118,3.054,52.677,4.586
	c10.591,0.924,21.244,1.2,31.762,2.899c7.229-0.385,14.276,1.66,21.484,1.614c18.271,2.72,35.993,0.223,53.903-3.955
	c32.293-7.533,64.845-13.971,97.374-20.455c23.376-4.66,46.813-8.991,70.261-13.267c36.898-6.73,73.896-12.979,111.242-16.484
	c14.703-1.381,29.611-0.682,44.448,0.153c14.807,0.834,29.548,2.323,44.311,3.563c16.26,1.366,32.479,3.296,48.696,5.179
	c53.646,6.226,107.109,13.768,160.517,21.75c11.539,1.726,23.116,3.179,34.628,5.078c2.262,0.374,4.732,0.477,5.939,3.009
	c0.071,37.719,0.018,75.432,0.006,113.144C1582.807,849.629,1583.336,851.201,1582.176,852.489z"/>
<path fill="#6652A2" d="M321.077,737.448c-15.994,1.321-31.971,2.943-47.989,3.814c-6.291,0.341-12.57,0.911-18.854,1.303
	c-14.954,0.928-29.919,0.518-44.866,0.976c-25.254,0.775-49.816-2.134-74.197-9.275c-29.097-8.524-58.639-15.559-88.07-22.909
	c-34.725-8.675-69.471-17.287-104.331-25.395c-33.38-7.763-66.856-15.138-100.407-22.119c-22.174-4.613-44.508-8.518-66.862-12.184
	c-12.22-2.005-24.6-3.403-36.963-4.093c-18.047-1.007-35.529,3.4-53.01,7.175c-7.915,1.709-15.749,3.787-23.62,5.698
	c0-30.007,0-60.015,0-90.021c9.599-1.666,19.184-3.412,28.798-4.978c16.317-2.658,32.633-5.338,48.988-7.75
	c13.25-1.956,26.556-3.528,39.835-5.279c12.126-1.6,24.234-3.353,36.38-4.778c13.309-1.563,26.653-2.809,39.979-4.228
	c11.672-1.243,23.331-2.625,35.012-3.776c8.898-0.878,17.811-1.734,26.738-2.171c24.201-1.181,48.359-2.946,72.623-3.275
	c21.438-0.293,42.623,0.78,63.68,4.701c36.297,6.76,71.515,17.5,106.579,28.815c1.092,0.353,2.253,0.492,3.382,0.729
	c1.29,0.019,2.279,0.846,3.43,1.249c14.813,3.436,28.946,8.944,43.208,14.058c33.722,12.085,67.267,24.664,101.03,36.637
	c3.919,1.393,8.722,1.688,10.69,6.479c0.542,2.137,0.478,4.311,0.479,6.475c0.015,32,0.021,63.999-0.013,95.999
	C322.725,732.117,323.153,735.054,321.077,737.448z"/>
<path fill="#FFFFFF" d="M1582.176,852.489c0.002-39.342,0.002-78.684,0.004-118.024c-1.629-1.963-1.517-4.342-1.519-6.661
	c-0.03-47.238-0.03-94.479,0.001-141.72c0.001-2.315-0.122-4.698,1.521-6.655c0.054-2.162,0.152-4.324,0.152-6.486
	c0.008-200.219,0.008-400.439,0.008-600.659c0.309,0.218,1.043-0.506,1.012,0.5c-0.043,1.332-0.012,2.667-0.012,4
	c0,357.355-0.01,714.71,0.119,1072.065c0.002,4.203-1.031,4.78-4.938,4.78c-637.372-0.104-1274.745-0.1-1912.117-0.162
	c-1.463,0-3.391,1.154-4.5-0.938c637.599,0,1275.195,0,1912.792,0c1.501,0,3.012-0.112,4.498,0.022
	c2.318,0.211,3.487-0.576,3.154-3.045c-0.066-0.49-0.007-0.999-0.007-1.499c0-64.177,0-128.354-0.009-192.53
	C1582.338,854.481,1582.231,853.485,1582.176,852.489z"/>
<path fill="#6652A2" d="M1582.184,579.429c0.054,34.23,0.134,68.464,0.149,102.695c0.009,17.446-0.1,34.894-0.155,52.34
	c-22.901-3.349-45.806-6.7-68.707-10.044c-22.411-3.272-44.807-6.664-67.242-9.761c-14.251-1.967-28.569-3.452-42.85-5.229
	c-12.303-1.53-24.557-3.604-36.897-4.627c-11.226-0.934-22.381-2.428-33.599-3.355c-15.67-1.298-31.318-3.175-47.017-3.717
	c-14.933-0.516-29.909-0.976-44.884,0.491c-16.313,1.595-32.522,3.872-48.713,6.286c-15.209,2.27-30.362,4.938-45.504,7.637
	c-24.434,4.352-48.893,8.595-73.238,13.392c-29.887,5.89-59.678,12.263-89.494,18.5c-14.264,2.984-28.398,6.712-42.764,9.026
	c-9.97,1.606-20.157,0.123-30.147-1.626c-1.839-1.881-1.604-4.307-1.604-6.604c-0.047-55.468-0.047-110.937,0.003-166.404
	c0.002-2.445-0.343-5.072,1.808-7.003c34.831-0.002,69.67,0.394,104.49-0.211c13.08-0.229,25.373,2.313,37.669,5.834
	c39.916,11.429,79.497,23.94,119.069,36.5c34.32,10.892,68.729,21.502,103.711,30.207c17.398,4.328,34.254,3.881,51.473-0.53
	c42.426-10.871,84.327-23.592,126.527-35.248c36.108-9.976,72.386-19.299,109.205-26.304
	C1569.609,580.509,1575.83,579.182,1582.184,579.429z"/>
<path fill="#1C1C1A" d="M558.072,309.22c0.117-5.449-0.824-11.021,1.766-16.191c4.975-9.927,13.295-14.849,24.128-14.672
	c8.808,0.144,16.354-1.416,24.229-6.255c16.327-10.034,34.766-10.281,53.158-7.054c8.181,1.437,13.534,8.751,13.698,17.396
	c0.17,8.979,0.073,17.963,0.094,26.945c2.414,3.107,1.391,6.715,1.481,10.161c0.252,8.587,0.257,17.173,0.009,25.759
	c0.241,10.371,0.232,20.741,0.016,31.108c0.209,8.79-0.05,17.584-2.206,26.142c-2.191,8.703-5.271,17.068-12.142,23.406
	c-1.865,0.729-3.592,0.145-5.303-0.582c-25.783-10.942-51.654-11.646-77.643-0.708c-1.83,0.771-3.667,1.616-5.703,1.766
	c-4.209-0.129-5.77-3.56-7.539-6.423c-3.939-6.376-6.607-13.306-7.962-20.708c-0.467-1.841-0.296-3.75-0.646-5.605
	c-0.459-1.642-0.804-3.297-0.794-5.012c-0.038-3.899,0.029-7.796-0.079-11.693c-0.272-10.388-0.285-20.771-0.006-31.153
	c-0.01-8.368,0.367-16.743-0.229-25.104c-0.188-0.551-0.314-1.119-0.413-1.691C555.764,315.579,556.021,312.207,558.072,309.22z"/>
<path fill="#B3B3B2" d="M819.223,551.313c84.664,0.011,169.328,0.021,253.991,0.032c8.015,0,8.067,0,8.004,7.756
	c-0.107,13.086,1.689,11.352-11.418,11.366c-52.833,0.063-105.663,0.042-158.495,0.054c-3.722,2.536-7.94,1.318-11.954,1.521
	c-3.101,0.155-6.221,0.166-9.323-0.153c-53.709-0.052-107.416,0.435-161.125,0.215c-3.132-0.015-6.341,0.448-9.334-0.982
	c-3.711-6.604-3.795-13.68-2.682-20.912c3.212-2.109,6.741-1.336,10.187-1.042c8.947,0.766,17.868,1.749,26.879,1.729
	c4.533-0.012,8.929-0.848,13.394-1.27c12.875,0.81,25.762,0.215,38.642,0.322C810.461,549.984,814.879,550.19,819.223,551.313z"/>
<path fill="#B3B3B2" d="M166.098,570.601c-0.731-0.724-1.463-1.447-2.194-2.17c0.04-4.332,0.214-8.67,0.074-12.996
	c-0.098-2.977,0.913-4.396,4.008-4.108c1.322,0.123,2.665,0.02,3.998,0.02c82.014-0.003,164.028-0.005,246.042-0.007
	c5.51-1.681,11.182-1.296,16.825-1.362c12.646-0.151,25.3,0.381,37.939-0.302c12.739,2.459,25.463,0.724,38.188-0.206
	c2.142-0.156,4.297-0.751,6.26,0.666c1.288,7.199,0.58,14.173-2.403,20.891c-1.809,1.063-3.823,1.07-5.816,1.072
	c-54.896,0.034-109.789,0.038-164.685,0c-0.664,0-1.327-0.095-1.986-0.166c-7.155,0.228-14.312,0.248-21.469-0.003
	c-4.992,0.403-9.992,0.176-14.985,0.179c-37.315,0.024-74.631-0.056-111.944,0.062C184.616,572.197,175.341,571.836,166.098,570.601
	z"/>
<path fill="#000101" d="M558.072,309.22c-0.332,3.346-0.665,6.691-0.997,10.036c-2.619,2.552-5.953,1.758-9.021,1.761
	c-54.814,0.054-109.63,0.037-164.444,0.039c-18.494,0-36.987-0.027-55.481,0.014c-7.007,0.016-7.362,0.368-7.367,7.313
	c-0.021,46.983-0.023,93.968,0.002,140.951c0.004,7.168,0.224,7.36,7.769,7.362c52.815,0.017,105.631-0.001,158.446,0.028
	c3.136,0.002,6.352-0.451,9.345,0.978c1.5,1.065,1.167,2.458,0.032,3.259c-5.678,4.006-10.437,9.557-17.788,10.832
	c-4.487,0.406-8.979,0.302-13.471,0.302c-49.234,0-98.47,0.031-147.704-0.063c-3.266-0.007-7.187,1.233-9.331-2.84
	c-0.08-9.828-0.221-19.655-0.229-29.481c-0.027-37.16,0.019-74.32-0.029-111.479c-0.013-10.325-0.288-20.649-0.367-30.975
	c-0.062-7.824,0.053-7.893,7.684-7.893c78.986-0.001,157.972,0.001,236.958-0.007C554.077,309.355,556.075,309.267,558.072,309.22z"
	/>
<path fill="#000101" d="M675.145,319.314c0-3.31,0-6.619,0-9.929c82.167-0.008,164.333,0.022,246.5-0.118
	c4.99-0.01,6.324,1.872,6.31,6.455c-0.217,56.324-0.321,112.651-0.47,168.979c-0.005,1.493-0.181,2.988-0.276,4.481
	c-0.778,2.374-2.854,2.548-4.838,2.769c-2.148,0.239-4.317,0.14-6.479,0.14c-48.045,0.004-96.09-0.002-144.136,0.011
	c-3.658,0.001-7.313-0.044-10.952-0.347c-7.04-1.943-12.16-6.977-17.769-11.205c-1.49-1.123-1.479-2.503,0.599-3.256
	c2.943-0.853,5.962-0.577,8.95-0.578c50.998-0.019,101.998-0.01,152.997-0.016c8.896-0.001,8.913-0.014,8.914-8.708
	c0.007-46.167,0.004-92.333,0.002-138.499c0-1.333-0.053-2.667-0.055-3.998c-0.003-2.84-1.281-4.312-4.208-4.367
	c-2.166-0.041-4.332-0.07-6.497-0.07c-72.999-0.003-145.998,0.007-218.997-0.032C681.479,321.024,678.008,321.745,675.145,319.314z"
	/>
<path fill="#F8F9FA" d="M308.063,489.191c1.986,1.73,4.403,1.192,6.683,1.192c53.292,0.021,106.584,0.016,159.876,0.021
	c1.829,0,3.66,0.079,5.489,0.121c0.306,2.304-1.646,3.05-2.97,4.151c-2.797,2.325-5.947,4.161-8.931,6.229
	c-5.914,4.098-11.346,8.572-13.527,15.863c-0.38,1.269-1.185,2.356-2.364,3.104c-8.092,1.484-16.166,2.354-24.163-0.498
	c-32.763-0.037-65.528,0.027-98.291-0.191c-7.06-0.049-16.026,3.168-20.709-1.513c-4.875-4.872-1.218-13.938-1.692-21.15
	C307.306,494.11,306.777,491.54,308.063,489.191z"/>
<path fill="#F8F9FA" d="M759.387,490.582c10.642-0.061,21.281-0.168,31.924-0.174c43.076-0.021,86.152-0.002,129.229-0.025
	c2.271-0.001,4.693,0.573,6.667-1.198c1.497,8.895,0.571,17.843,0.505,26.768c-0.016,2.069-1.621,3.196-3.734,3.276
	c-1.497,0.056-2.995,0.036-4.493,0.038c-36.777,0.044-73.556,0.087-110.33,0.129c-4.409,2.892-9.348,1.172-14.039,1.569
	c-2.131,0.182-4.307,0.118-6.422-0.341c-2.221-0.512-3.264-2.158-3.839-4.171c-1.689-5.909-5.518-10.102-10.454-13.539
	c-4.098-2.852-8.353-5.491-12.229-8.645C760.969,493.292,759.047,492.759,759.387,490.582z"/>
<path fill="#292929" d="M978.348,484.683c8.163,0,16.329-0.064,24.492,0.045c2.019,0.026,4.995-0.293,4.672,2.961
	c-0.408,4.095,1.734,3.805,4.518,3.478c13.88-1.625,21.285,7.768,16.172,20.792c-4.203,10.706-12.18,18.535-20.87,25.681
	c-1.419,1.167-2.772,2.325-3.929,3.785c-4.864,6.146-11.241,9.137-19.116,8.979c-4.497-0.089-8.998,0.042-13.496-0.028
	c-11.774-0.184-21.416-9.466-21.6-21.168c-0.208-13.327,0.047-26.66-0.146-39.986c-0.054-3.72,1.664-4.574,4.812-4.556
	C962.019,484.716,970.183,484.683,978.348,484.683z"/>
<path fill="#959495" d="M890.099,570.511c7.066,0.004,14.137,0.007,21.206,0.011c-0.047,0.304-0.039,0.604,0.021,0.907
	c-0.044,29.834-0.099,59.669-0.133,89.503c-0.033,30.17-0.047,60.339-0.07,90.508c-3.021,2.145-6.076-0.014-8.998-0.271
	c-3.913-0.347-7.824-0.651-11.752-0.788c-1.938-1.792-1.854-4.188-1.856-6.507c-0.04-55.74-0.048-111.479-0.002-167.221
	c0.001-1.497,0.025-3,0.52-4.443C889.294,571.582,889.65,571.018,890.099,570.511z"/>
<path fill="#FFFFFF" d="M985.114,463.245c2.312-4.141,0.613-6.835-3.046-9.059c-4.419-2.687-9.548-3.811-13.852-6.819
	c-13.156-9.2-19.692-25.265-16.077-40.169c3.745-15.434,21.457-25.503,36.743-20.887c7.992,2.414,12.221,10.795,9.418,18.673
	c-2.643,7.424-11.386,11.465-18.76,8.669c-6.678-2.53-9.026-1.416-10.568,5.583c-2.243,10.182,1.521,18.292,9.348,24.686
	c3.357,2.743,6.962,5.203,9.286,8.969c2.563,4.15,2.791,8.124-1.288,11.574C985.269,464.698,984.86,464.299,985.114,463.245z"/>
<path fill="#9A9A9A" d="M428.157,519.379c8.267-0.864,16.615,0.689,24.859-0.841c0.896,0.624,1.315,1.604,1.239,2.569
	c-0.683,8.719,3.492,15.149,9.615,20.69c1.21,2.795,3.626,4.412,5.896,6.219c1.132,0.9,3.108,2.312-0.332,2.89
	c-14.271-0.011-28.533,0.047-42.794-0.076c-1.485-0.014-3.696,1.313-4.512-1.349c4.236-3.365,5.729-8.046,5.927-13.153
	C428.275,530.686,428.14,525.029,428.157,519.379z"/>
<path fill="#9A9A9A" d="M787.291,519.19c7.286,0.067,14.574,0.136,21.862,0.204c0.01,5.269-0.154,10.544,0.078,15.804
	c0.239,5.396,2.115,10.253,5.907,14.247c-0.525,2.708-2.674,1.379-4.006,1.39c-13.329,0.111-26.66,0.063-39.979,0.069
	c-2.946,0.089-2.595-1.34-1.175-2.896c1.646-1.807,3.896-3.07,4.85-5.493c7.005-5.563,10.899-12.748,11.371-21.738
	C786.235,520.099,786.713,519.573,787.291,519.19z"/>
<path fill="#8473B5" d="M151.625,473.416c3.838,0.057,7.323,3.546,7.374,7.388c0.054,4.064-3.707,7.656-7.781,7.432
	c-3.898-0.215-7.049-3.586-7.128-7.63C144.02,476.938,147.769,473.361,151.625,473.416z"/>
<path fill="#8473B5" d="M-43.057,212.337c-0.292,3.872-3.945,7.152-7.765,6.974c-3.86-0.183-7.195-3.811-7.052-7.672
	c0.149-4.021,3.947-7.438,8.04-7.233C-46.158,204.587-42.772,208.551-43.057,212.337z"/>
<path fill="#8473B5" d="M-255.351,348.348c-4.007,0.141-7.717-3.46-7.707-7.479c0.009-3.838,3.459-7.302,7.326-7.355
	c3.406-0.048,7.629,4.341,7.591,7.887C-248.178,344.807-251.721,348.22-255.351,348.348z"/>
<path fill="#8473B5" d="M1066.199,341.372c4.428-0.016,6.961,2.572,7.049,7.201c0.077,4.072-3.077,7.447-6.982,7.47
	c-3.897,0.022-7.104-3.346-7.052-7.405C1059.274,343.986,1061.772,341.39,1066.199,341.372z"/>
<path fill="#8473B5" d="M1342.7,466.407c-4.685-0.003-7.322-2.435-7.418-6.836c-0.098-4.631,2.655-7.253,7.557-7.195
	c3.814,0.046,7,3.103,7.124,6.835C1350.092,463.07,1346.721,466.41,1342.7,466.407z"/>
<path fill="#8473B5" d="M-282.104,192.56c0.141,3.965-2.547,6.606-6.913,6.797c-4.133,0.18-8.021-3.249-7.997-7.049
	c0.023-3.417,3.508-6.86,7.072-6.986C-285.832,185.175-282.248,188.485-282.104,192.56z"/>
<path fill="#8473B5" d="M1522.344,222.61c0.094,4.042-2.986,7.575-6.73,7.725c-4.177,0.165-7.151-2.705-7.301-7.045
	c-0.135-3.925,3.008-7.637,6.672-7.88C1518.518,215.174,1522.256,218.832,1522.344,222.61z"/>
<path fill="#8473B5" d="M798.512,30.268c-4-0.027-7.438-3.619-7.354-7.686c0.077-3.758,3.772-7.412,7.297-7.217
	c3.646,0.203,6.835,3.891,6.729,7.779C805.074,27.248,802.221,30.293,798.512,30.268z"/>
<path fill="#8473B5" d="M858.382,20.387c-4-0.027-7.438-3.619-7.354-7.686c0.077-3.758,3.772-7.412,7.297-7.217
	c3.646,0.203,6.835,3.891,6.729,7.779C864.944,17.367,862.091,20.412,858.382,20.387z"/>
<path fill="#8473B5" d="M947.314,74.443c-4-0.027-7.438-3.619-7.354-7.686c0.077-3.758,3.772-7.412,7.297-7.217
	c3.646,0.203,6.835,3.891,6.729,7.779C953.877,71.424,951.023,74.469,947.314,74.443z"/>
<path fill="#8473B5" d="M907.207,100.02c-4-0.027-7.438-3.619-7.354-7.686c0.077-3.758,3.772-7.412,7.297-7.217
	c3.646,0.203,6.835,3.891,6.729,7.779C913.77,97,910.916,100.045,907.207,100.02z"/>
<path fill="#8473B5" d="M995.559,103.507c-4-0.027-7.438-3.619-7.354-7.686c0.077-3.758,3.772-7.412,7.297-7.217
	c3.646,0.203,6.835,3.891,6.729,7.779C1002.121,100.487,999.268,103.532,995.559,103.507z"/>
<path fill="#8473B5" d="M1006.603,54.681c-4-0.027-7.438-3.619-7.354-7.686c0.077-3.758,3.772-7.412,7.297-7.217
	c3.646,0.203,6.835,3.891,6.729,7.779C1013.165,51.661,1010.312,54.706,1006.603,54.681z"/>
<path fill="#8473B5" d="M1085.073,76.188c-4-0.027-7.438-3.619-7.354-7.686c0.077-3.758,3.772-7.412,7.297-7.217
	c3.646,0.203,6.835,3.891,6.729,7.779C1091.636,73.168,1088.782,76.213,1085.073,76.188z"/>
<path fill="#8473B5" d="M380.489,26.305c-3.799-0.041-7.454-3.607-7.347-7.172c0.108-3.619,3.792-6.917,7.662-6.865
	c4.128,0.059,7.195,2.833,7.246,6.554C388.106,22.801,384.522,26.346,380.489,26.305z"/>
<path fill="#8473B5" d="M297.95,55.949c-3.799-0.041-7.454-3.607-7.347-7.172c0.108-3.619,3.792-6.918,7.662-6.865
	c4.128,0.06,7.195,2.834,7.246,6.555C305.567,52.445,301.983,55.99,297.95,55.949z"/>
<path fill="#8473B5" d="M242.149,41.417c-3.799-0.041-7.454-3.607-7.347-7.172c0.108-3.619,3.792-6.918,7.662-6.865
	c4.128,0.06,7.195,2.834,7.246,6.555C249.766,37.913,246.182,41.458,242.149,41.417z"/>
<path fill="#8473B5" d="M122.99,54.205c-3.799-0.041-7.454-3.607-7.347-7.172c0.108-3.619,3.792-6.918,7.662-6.865
	c4.128,0.06,7.195,2.834,7.246,6.555C130.607,50.701,127.023,54.246,122.99,54.205z"/>
<path fill="#8473B5" d="M17.201,72.806c-3.799-0.041-7.454-3.607-7.347-7.172c0.108-3.619,3.792-6.918,7.662-6.865
	c4.128,0.06,7.195,2.834,7.246,6.555C24.818,69.302,21.234,72.847,17.201,72.806z"/>
<path fill="#8473B5" d="M114.271,100.706c-3.799-0.041-7.454-3.607-7.347-7.172c0.108-3.619,3.792-6.918,7.662-6.865
	c4.128,0.06,7.195,2.834,7.246,6.555C121.888,97.202,118.304,100.747,114.271,100.706z"/>
<path fill="#8473B5" d="M187.51,91.406c-3.799-0.041-7.454-3.607-7.347-7.172c0.108-3.619,3.792-6.918,7.662-6.865
	c4.128,0.06,7.195,2.834,7.246,6.555C195.127,87.902,191.543,91.447,187.51,91.406z"/>
<path fill="#8473B5" d="M181.697,48.393c-3.799-0.041-7.454-3.607-7.347-7.172c0.108-3.619,3.792-6.918,7.662-6.865
	c4.128,0.06,7.195,2.834,7.246,6.555C189.314,44.889,185.73,48.434,181.697,48.393z"/>
<path fill="#8473B5" d="M409.551,93.148c-3.799-0.041-7.454-3.607-7.347-7.172c0.108-3.619,3.792-6.918,7.662-6.865
	c4.128,0.06,7.195,2.834,7.246,6.555C417.168,89.645,413.584,93.189,409.551,93.148z"/>
<path fill="#8473B5" d="M470.584,53.042c-3.799-0.041-7.454-3.607-7.347-7.172c0.108-3.619,3.792-6.918,7.662-6.865
	c4.128,0.06,7.195,2.834,7.246,6.555C478.201,49.538,474.617,53.083,470.584,53.042z"/>
<path fill="#8473B5" d="M524.06,96.055c-3.799-0.041-7.454-3.607-7.347-7.172c0.108-3.619,3.792-6.918,7.662-6.865
	c4.128,0.06,7.195,2.834,7.246,6.555C531.677,92.551,528.093,96.096,524.06,96.055z"/>
<path fill="#8473B5" d="M528.709,39.673c-3.799-0.041-7.454-3.607-7.347-7.172c0.108-3.619,3.792-6.918,7.662-6.865
	c4.128,0.06,7.195,2.834,7.246,6.555C536.327,36.169,532.743,39.714,528.709,39.673z"/>
<path fill="#8473B5" d="M640.893,45.486c-3.799-0.041-7.453-3.607-7.346-7.172c0.107-3.619,3.791-6.918,7.662-6.865
	c4.127,0.06,7.195,2.834,7.246,6.555C648.51,41.982,644.926,45.527,640.893,45.486z"/>
<path fill="#8473B5" d="M639.73,91.405c-3.799-0.041-7.453-3.607-7.346-7.172c0.107-3.619,3.791-6.918,7.662-6.865
	c4.127,0.06,7.195,2.834,7.246,6.555C647.348,87.901,643.764,91.446,639.73,91.405z"/>
<path fill="#8473B5" d="M729.825,92.568c-3.799-0.041-7.453-3.607-7.346-7.172c0.107-3.619,3.791-6.918,7.662-6.865
	c4.127,0.06,7.195,2.834,7.246,6.555C737.442,89.064,733.858,92.609,729.825,92.568z"/>
<path fill="#8473B5" d="M723.432,37.349c-3.799-0.041-7.453-3.607-7.346-7.172c0.107-3.619,3.791-6.918,7.662-6.865
	c4.127,0.06,7.195,2.834,7.246,6.555C731.049,33.845,727.465,37.39,723.432,37.349z"/>
<path fill="#8473B5" d="M782.72,75.712c-3.799-0.041-7.453-3.607-7.346-7.172c0.107-3.619,3.791-6.918,7.662-6.865
	c4.127,0.06,7.195,2.834,7.246,6.555C790.337,72.208,786.753,75.753,782.72,75.712z"/>
<path fill="#8473B5" d="M817.014,43.742c-3.799-0.041-7.453-3.607-7.346-7.172c0.107-3.619,3.791-6.918,7.662-6.865
	c4.127,0.06,7.195,2.834,7.246,6.555C824.631,40.238,821.047,43.783,817.014,43.742z"/>
<path fill="#8473B5" d="M1335.817-12.698c3.844,0.022,7.312,3.501,7.328,7.354c0.014,3.197-4.274,7.286-7.668,7.312
	c-3.777,0.029-7.322-3.671-7.163-7.479C1328.475-9.351,1331.992-12.72,1335.817-12.698z"/>
<path fill="#8473B5" d="M1082.243,92.917c-0.037,3.791-3.594,7.428-7.168,7.328c-3.442-0.096-7.365-4.145-7.305-7.539
	c0.061-3.426,4.104-7.37,7.517-7.331C1078.896,85.417,1082.282,89.09,1082.243,92.917z"/>
<path fill="#8473B5" d="M1138.044,92.917c-0.037,3.791-3.594,7.428-7.168,7.328c-3.442-0.096-7.365-4.145-7.305-7.539
	c0.061-3.426,4.104-7.37,7.517-7.331C1134.696,85.417,1138.083,89.09,1138.044,92.917z"/>
<path fill="#8473B5" d="M705.132,199.59c0.082-3.614,3.423-7.103,6.885-7.188c3.808-0.094,7.334,3.817,7.144,7.926
	c-0.165,3.555-3.723,7.02-7.132,6.942C708.374,207.186,705.046,203.478,705.132,199.59z"/>
<path fill="#8473B5" d="M1533.588,22.268c3.898-0.064,7.598,3.252,7.684,6.891c0.084,3.615-3.525,7.012-7.586,7.141
	c-3.459,0.107-7.133-3.311-7.288-6.783C1526.224,25.659,1529.521,22.336,1533.588,22.268z"/>
<path fill="#8473B5" d="M208.31,333.373c-3.793-0.078-7.451-3.811-7.212-7.358c0.249-3.691,3.98-6.841,7.901-6.668
	c3.546,0.155,7.028,3.709,6.965,7.106C215.896,330.087,212.173,333.453,208.31,333.373z"/>
<path fill="#8473B5" d="M-258.997,43.318c-4.603-0.129-7.147-2.696-7.08-7.143c0.066-4.371,2.92-7.045,7.342-6.881
	c4.353,0.161,6.735,2.853,6.68,7.545C-252.106,41.16-254.552,43.443-258.997,43.318z"/>
<path fill="#8473B5" d="M1334.313,206.854c0.032,4.656-2.368,7.343-6.688,7.482c-3.831,0.125-7.326-3.232-7.338-7.05
	c-0.014-4.356,2.601-6.89,7.193-6.972C1331.942,200.234,1334.283,202.476,1334.313,206.854z"/>
<path fill="#9993A4" d="M422.131,549.48c1.342,1.453,3.107,0.908,4.703,0.911c14.781,0.024,29.563-0.004,44.342-0.018
	c0.704-0.521,1.328-0.464,1.857,0.26c-1.101,1.029-2.479,0.772-3.78,0.771c-17.076-0.013-34.151-0.042-51.229-0.067
	C419.394,550.72,420.762,550.101,422.131,549.48z"/>
<path fill="#928EA0" d="M768.95,550.286c14.329,0.043,28.657,0.086,42.986,0.125c1.163,0.004,2.359,0.1,3.202-0.967
	c1.359,0.624,2.723,1.247,4.084,1.869c-16.103,0.033-32.201,0.07-48.304,0.092c-1.297,0.001-2.689,0.281-3.73-0.871
	C767.701,549.918,768.292,549.864,768.95,550.286z"/>
<path fill="#8371B3" d="M966.534,249.494c2.09,0.249,3.461,1.498,3.572,3.763c0.101,2.069-1.131,3.606-3.091,3.821
	c-2.177,0.239-3.71-0.83-3.851-3.378C963.034,251.302,964.066,249.989,966.534,249.494z"/>
<path fill="#8472B4" d="M866.885,126.332c2.529,0.073,3.396,1.547,3.271,3.868c-0.123,2.25-1.431,3.149-3.55,3.094
	c-2.598-0.067-3.266-1.912-3.315-3.979C863.233,126.992,864.827,126.298,866.885,126.332z"/>
<path fill="#8473B5" d="M1251.403,340.079c-2.123-0.291-3.701-1.491-3.746-3.729c-0.04-2.016,1.437-3.484,3.39-3.589
	c2.244-0.119,3.781,1.408,3.838,3.629C1254.935,338.405,1253.439,339.572,1251.403,340.079z"/>
<path fill="#8472B4" d="M1188.201,511.926c0.011,2.421-1.183,3.447-3.376,3.47c-2.146,0.021-3.46-0.886-3.546-3.166
	c-0.078-2.06,0.531-3.686,2.902-3.729C1186.525,508.457,1187.712,509.929,1188.201,511.926z"/>
<path fill="#8572B4" d="M970.142,59.736c-0.455,2.02-1.655,3.479-3.991,3.469c-2.378-0.012-3.001-1.625-2.938-3.699
	c0.068-2.289,1.339-3.216,3.509-3.201C968.907,56.317,970.142,57.292,970.142,59.736z"/>
<path fill="#8572B4" d="M898.065,66.131c-0.455,2.02-1.655,3.479-3.991,3.469c-2.378-0.012-3.001-1.625-2.938-3.699
	c0.068-2.289,1.339-3.216,3.509-3.201C896.831,62.712,898.065,63.687,898.065,66.131z"/>
<path fill="#8572B4" d="M944.566,42.299c-0.455,2.02-1.655,3.479-3.991,3.469c-2.378-0.012-3.001-1.625-2.938-3.699
	c0.068-2.289,1.339-3.216,3.509-3.201C943.332,38.88,944.566,39.854,944.566,42.299z"/>
<path fill="#8572B4" d="M1032.918,94.612c-0.455,2.02-1.655,3.479-3.991,3.469c-2.378-0.012-3.001-1.625-2.938-3.699
	c0.068-2.289,1.339-3.216,3.509-3.201C1031.684,91.193,1032.918,92.168,1032.918,94.612z"/>
<path fill="#8572B4" d="M850.983,74.849c-0.455,2.02-1.655,3.479-3.991,3.469c-2.378-0.012-3.001-1.625-2.938-3.699
	c0.068-2.289,1.339-3.216,3.509-3.201C849.749,71.43,850.983,72.404,850.983,74.849z"/>
<path fill="#8572B4" d="M730.081,48.692c-0.455,2.02-1.655,3.479-3.991,3.469c-2.378-0.012-3.001-1.625-2.938-3.699
	c0.068-2.289,1.339-3.216,3.509-3.201C728.847,45.273,730.081,46.248,730.081,48.692z"/>
<path fill="#8572B4" d="M641.729,52.761c-0.455,2.02-1.655,3.479-3.991,3.469c-2.378-0.012-3.001-1.625-2.938-3.699
	c0.068-2.289,1.339-3.216,3.509-3.201C640.495,49.342,641.729,50.316,641.729,52.761z"/>
<path fill="#8572B4" d="M654.518,71.361c-0.455,2.02-1.655,3.479-3.991,3.469c-2.378-0.012-3.001-1.625-2.938-3.699
	c0.068-2.289,1.339-3.216,3.509-3.201C653.283,67.942,654.518,68.917,654.518,71.361z"/>
<path fill="#8572B4" d="M687.232,15.721c-0.455,1.767-1.655,3.043-3.991,3.035c-2.378-0.01-3.001-1.422-2.938-3.236
	c0.068-2.003,1.339-2.814,3.509-2.801C685.998,12.729,687.232,13.582,687.232,15.721z"/>
<path fill="#8472B4" d="M-256.617,511.881c-1.889-0.487-3.482-1.279-3.387-3.554c0.086-2.057,1.297-3.593,3.255-3.672
	c2.269-0.091,3.533,1.554,3.596,3.806C-253.089,510.736-254.767,511.449-256.617,511.881z"/>
<path fill="#8371B3" d="M920.133,527.021c0.049,2.467-1.398,3.685-3.309,3.739c-2.186,0.061-3.605-1.25-3.651-3.706
	c-0.036-2.047,1.098-3.26,2.885-3.249C918.099,523.817,919.846,524.813,920.133,527.021z"/>
<path fill="#8472B4" d="M-213.086,0.8c0.07,2.99-0.76,4.329-3.102,4.483c-2.34,0.154-3.548-1.202-3.637-3.198
	c-0.105-2.36,1.523-3.624,3.812-3.693C-213.915-1.673-213.146-0.265-213.086,0.8z"/>
<path fill="#8472B4" d="M-81.332,344.656c1.974,0.322,3.164,1.558,3.23,3.594c0.066,2.037-1.022,3.705-3.083,3.695
	c-1.794-0.008-3.526-1.016-3.759-3.205C-85.214,346.201-83.339,345.407-81.332,344.656z"/>
<path fill="#8371B3" d="M1526.396,165.551c2.198,0.697,3.731,1.873,3.563,3.914c-0.182,2.179-1.707,3.706-4.007,3.47
	c-1.702-0.178-3.218-1.368-2.99-3.318C1523.202,167.541,1524.516,166.079,1526.396,165.551z"/>
<path fill="#8371B3" d="M1377.978,59.584c1.991,0.313,3.181,1.555,3.252,3.588c0.07,2.036-1.017,3.707-3.078,3.703
	c-1.796-0.003-3.533-1.002-3.77-3.193C1374.11,61.143,1375.986,60.346,1377.978,59.584z"/>
<path fill="#8472B4" d="M1136.25,15.724c0.214,2.042-1.211,3.182-3.209,3.339c-2.145,0.169-3.396-1.335-3.669-3.329
	c-0.308-2.271,0.98-3.379,3.225-3.441C1134.76,12.234,1136.121,13.093,1136.25,15.724z"/>
<path fill="#8472B4" d="M1112.999,30.256c0.214,2.041-1.211,3.182-3.209,3.34c-2.145,0.168-3.396-1.336-3.669-3.33
	c-0.308-2.271,0.98-3.379,3.225-3.44C1111.509,26.766,1112.87,27.625,1112.999,30.256z"/>
<path fill="#8472B4" d="M1138.852,51.147c0.214,2.041-1.211,3.182-3.209,3.34c-2.145,0.168-3.396-1.336-3.669-3.33
	c-0.308-2.271,0.98-3.379,3.225-3.44C1137.361,47.657,1138.723,48.517,1138.852,51.147z"/>
<path fill="#8472B4" d="M1045.269,33.71c0.214,2.041-1.211,3.182-3.209,3.34c-2.145,0.168-3.396-1.336-3.669-3.33
	c-0.308-2.271,0.98-3.379,3.225-3.44C1043.778,30.22,1045.14,31.079,1045.269,33.71z"/>
<path fill="#8472B4" d="M1083.631,50.566c0.214,2.041-1.211,3.182-3.209,3.34c-2.145,0.168-3.396-1.336-3.669-3.33
	c-0.308-2.271,0.98-3.379,3.225-3.44C1082.141,47.076,1083.502,47.936,1083.631,50.566z"/>
<path fill="#8472B4" d="M1073.75,20.922c0.214,2.041-1.211,3.182-3.209,3.34c-2.145,0.168-3.396-1.336-3.669-3.33
	c-0.308-2.271,0.98-3.379,3.225-3.44C1072.26,17.432,1073.621,18.291,1073.75,20.922z"/>
<path fill="#8472B4" d="M970.549,22.037c0.214,2.041-1.211,3.182-3.209,3.34c-2.145,0.168-3.396-1.336-3.669-3.33
	c-0.308-2.271,0.98-3.379,3.225-3.44C969.059,18.547,970.42,19.406,970.549,22.037z"/>
<path fill="#8472B4" d="M523.068,219.139c-0.049,2.463-1.602,3.583-3.466,3.582c-1.867-0.004-3.525-1.136-3.414-3.396
	c0.108-2.229,1.366-3.879,3.661-3.728C521.817,215.726,522.894,217.304,523.068,219.139z"/>
<path fill="#8472B4" d="M-198.354,203.441c2.071,0.69,3.452,1.988,3.203,4.292c-0.232,2.151-1.83,3.173-3.802,2.922
	c-1.955-0.249-3.338-1.545-3.015-3.751C-201.678,204.932-200.416,203.744-198.354,203.441z"/>
<path fill="#8472B4" d="M320.963,165.796c-0.453,1.965-1.602,3.251-3.628,3.447c-2.233,0.215-3.503-1.244-3.612-3.172
	c-0.124-2.185,1.093-3.813,3.571-3.671C319.343,162.518,320.467,163.857,320.963,165.796z"/>
<path fill="#8472B4" d="M-104.086,86.555c-0.454,2.162-1.12,3.777-3.508,3.746c-2.223-0.029-3.409-1.078-3.435-3.35
	c-0.024-2.148,0.784-3.62,3.15-3.564C-105.72,83.436-104.738,84.928-104.086,86.555z"/>
<path fill="#8472B4" d="M571.563,74.242c-2.438,0.096-3.655-1.291-3.793-3.22c-0.139-1.935,0.92-3.554,3.125-3.642
	c2.281-0.093,3.93,1.209,3.999,3.424C574.954,72.805,573.34,73.9,571.563,74.242z"/>
<path fill="#8472B4" d="M335.065,58.285c-2.438,0.084-3.655-1.13-3.793-2.817c-0.139-1.692,0.92-3.109,3.125-3.187
	c2.281-0.081,3.93,1.058,3.999,2.996C338.457,57.027,336.843,57.986,335.065,58.285z"/>
<path fill="#8472B4" d="M319.953,74.561c-2.438,0.084-3.655-1.13-3.793-2.817c-0.139-1.692,0.92-3.109,3.125-3.187
	c2.281-0.081,3.93,1.058,3.999,2.996C323.345,73.303,321.73,74.262,319.953,74.561z"/>
<path fill="#8472B4" d="M244.97,80.373c-2.438,0.084-3.655-1.13-3.793-2.817c-0.139-1.692,0.92-3.109,3.125-3.187
	c2.281-0.081,3.93,1.058,3.999,2.996C248.362,79.115,246.748,80.074,244.97,80.373z"/>
<path fill="#8472B4" d="M293.796,98.974c-2.438,0.084-3.655-1.13-3.793-2.817c-0.139-1.692,0.92-3.109,3.125-3.187
	c2.281-0.081,3.93,1.058,3.999,2.996C297.188,97.716,295.574,98.675,293.796,98.974z"/>
<path fill="#8472B4" d="M40.948,27.479c-2.438,0.084-3.655-1.13-3.793-2.817c-0.139-1.692,0.92-3.109,3.125-3.187
	c2.281-0.081,3.93,1.058,3.999,2.996C44.34,26.221,42.726,27.18,40.948,27.479z"/>
<path fill="#8472B4" d="M45.599,47.822c-2.438,0.084-3.655-1.13-3.793-2.817c-0.139-1.692,0.92-3.109,3.125-3.187
	c2.281-0.081,3.93,1.058,3.999,2.996C48.99,46.564,47.376,47.523,45.599,47.822z"/>
<path fill="#8472B4" d="M47.342,72.817c-2.438,0.084-3.655-1.13-3.793-2.817c-0.139-1.692,0.92-3.109,3.125-3.187
	c2.281-0.081,3.93,1.058,3.999,2.996C50.734,71.56,49.12,72.519,47.342,72.817z"/>
<path fill="#8472B4" d="M31.648,87.93c-2.438,0.084-3.655-1.13-3.793-2.817c-0.139-1.692,0.92-3.109,3.125-3.187
	c2.281-0.081,3.93,1.058,3.999,2.996C35.04,86.672,33.426,87.631,31.648,87.93z"/>
<path fill="#8472B4" d="M1334.832,352.331c-2.134-0.7-3.449-1.844-3.458-3.938c-0.01-2.356,1.517-3.075,3.61-3.027
	c2.227,0.052,3.427,1.167,3.208,3.408C1337.99,350.854,1336.515,351.808,1334.832,352.331z"/>
<path fill="#8472B4" d="M132.646,26.313c-1.313-0.063-3.06-0.09-3.092-1.625c-0.043-2.022,2.063-1.752,3.314-1.709
	c1.105,0.037,2.991,0.058,2.861,1.873C135.6,26.691,133.846,26.147,132.646,26.313z"/>
<path fill="#8472B4" d="M123.89,74.125c-1.313-0.063-3.06-0.09-3.092-1.625c-0.043-2.022,2.063-1.752,3.314-1.709
	c1.105,0.037,2.991,0.058,2.861,1.873C126.843,74.504,125.089,73.96,123.89,74.125z"/>
<path fill="#E8E6F3" d="M985.114,463.245c0.401,0.406,0.803,0.813,1.204,1.22c-2.344,3.163-5.772,4.513-9.615,5.33
	C979.579,467.673,982.495,465.638,985.114,463.245z"/>
<path fill="#565656" d="M514.667,570.351c0.722-6.655,1.442-13.311,2.162-19.966c-2.086-3.883,0.272-7.783-0.061-11.673
	c2.224-15.823,3.438-31.773,5.78-47.587c2.275-15.358,8.367-29.039,18.285-40.998c0.967-1.165,1.692-2.468,2.396-3.787
	c7.835-7.549,16.233-14.367,25.79-19.686c1.358-0.757,2.911-0.48,4.243-1.151c14.602-6.05,29.463-10.75,45.589-10.156
	c13.381,0.491,26.173,3.299,38.448,8.575c1.512,0.649,2.896,1.668,4.679,1.386c6.982,2.667,13.002,6.924,18.748,11.575
	c2.038,1.65,4.05,3.344,6.093,5.001c0.575,0.527,1.077,1.113,1.515,1.762c9.726,10.053,17.048,21.555,21.224,34.976
	c3.128,10.062,3.932,20.49,4.981,30.881c0.949,9.397,1.675,18.816,2.943,28.183c-0.435,4.211,2.058,8.438-0.062,12.638
	c0.627,6.711,1.256,13.422,1.884,20.134c3.568,4.925,2.026,10.858,3.1,16.278c0.662,3.349,0.729,6.865,1.109,10.301
	c1.948,21.045,4.298,42.052,6.303,63.093c2.043,21.427-3.453,40.896-15.38,58.633c-3.318,4.935-6.445,10.167-12.258,12.752
	c-4.248,2.384-8.546,0.189-12.658-0.273c-17.559-1.979-35.051-4.531-52.568-6.873c-1.683-1.954-1.497-4.352-1.499-6.663
	c-0.034-42.801-0.034-85.601-0.005-128.4c0.002-2.159-0.051-4.348,1.005-6.344c2.33-2.75,5.775-2.238,8.783-2.789
	c3.58-0.653,5.222-2.539,5.263-6.062c0.107-9.15,0.107-18.3,0.002-27.449c-0.041-3.568-1.979-5.465-5.326-6.19
	c-1.803-0.393-3.625-0.479-5.457-0.48c-15.971-0.02-31.941-0.06-47.914,0.013c-9.271,0.042-11.074,1.911-11.115,11.134
	c-0.029,6.487-0.045,12.977,0.005,19.465c0.062,7.892,1.74,9.658,9.516,10.247c2.29,0.174,4.729-0.092,6.472,1.951
	c1.075,1.802,1.108,3.812,1.11,5.803c0.048,41.858,0.042,83.72,0.001,125.578c-0.002,2.146,0.09,4.354-1.43,6.17
	c-25.055-1.143-50.079-0.054-75.102,1.054c-7.039-5.313-9.675-13.389-12.797-21.022c-6.812-16.651-7.465-33.945-4.412-51.493
	c0.459-2.635,0.557-5.295,0.88-7.94c2.543-21.568,4.919-43.152,7.523-64.71C512.717,574.077,512.895,571.923,514.667,570.351z"/>
<path fill="#6652A2" d="M702.18,731.514c10.226-10.7,18.168-22.744,22.536-37.055c4.188-13.717,5.158-27.475,2.888-41.703
	c-1.771-11.097-2.364-22.382-3.438-33.588c-0.693-7.247-1.308-14.501-1.957-21.752c1.791-2.003,4.287-2.454,6.719-2.979
	c34.954-7.581,69.898-15.208,105.017-22.011c5.375-1.041,10.823-1.66,16.343-1.513c13.267,0.358,26.552-0.609,39.811,0.513
	c0.041,53.987,0.076,107.976,0.127,161.964c0.006,5.662,0.096,11.325,0.147,16.989c-5.774-1.89-11.854-1.157-17.749-1.678
	c-19.597-1.727-39.214-3.233-58.797-5.175c-15.63-1.55-31.311-2.575-46.939-4.122c-18.246-1.805-36.459-3.959-54.694-5.871
	C708.771,733.176,705.173,733.912,702.18,731.514z"/>
<path fill="#6652A2" d="M506.116,641.436c-0.681,7.072-1.37,14.146-2.042,21.219c-1.43,15.055,2.043,29.183,8.041,42.852
	c2.473,5.639,5.973,10.668,9.145,15.896c-18.283,1.393-36.608,2.085-54.882,3.805c-10.18,0.957-20.462,1.158-30.652,2.272
	c-13.287,1.454-26.65,1.97-39.928,3.696c-7.668,0.998-15.454,1.278-23.181,2.081c-10.184,1.059-20.435,1.469-30.658,2.156
	c-1.708-1.928-1.564-4.318-1.567-6.63c-0.038-29.933-0.035-59.865-0.006-89.799c0.003-1.992-0.018-4.003,0.86-5.868
	c2.117-2.622,4.589-1.08,6.837-0.404c16.102,4.842,32.153,9.776,48.611,13.404c15.017,3.313,30.031,3.177,45.188,2.17
	c19.464-1.293,38.688-4.398,57.949-7.267C501.901,640.712,504.114,639.974,506.116,641.436z"/>
<path fill="#ACADAC" d="M596.362,720.348c-0.026-43.809-0.051-87.614-0.086-131.422c-0.002-2.161-0.092-4.324-0.142-6.487
	c0.23-0.222,0.461-0.44,0.688-0.663c2.69-1.252,5.567-0.822,8.349-0.734c10.424,0.331,20.887-0.937,31.279,0.704
	c0.234,0.217,0.466,0.438,0.697,0.656c-0.042,41.157-0.082,82.313-0.129,123.471c-0.008,6.166-0.043,12.33-0.066,18.495
	C623.469,722.576,609.979,720.82,596.362,720.348z"/>
<path fill="#959495" d="M342.061,632.431c-0.033,34.326-0.065,68.654-0.1,102.981c-6.894,1.385-13.89,1.702-20.884,2.035
	c-0.055-37.353-0.11-74.703-0.165-112.054c-1.322-2.237-1.545-4.692-1.542-7.229c0.013-13.656-0.021-27.313,0.03-40.972
	c0.009-2.304-0.218-4.713,1.523-6.644c7.071-0.009,14.145-0.018,21.216-0.025c1.646,1.737,1.575,3.949,1.583,6.092
	c0.056,16.577,0.058,33.155,0.002,49.732C343.715,628.511,343.667,630.692,342.061,632.431z"/>
<path fill="#6C57A5" d="M320.922,570.554c-0.003,18.279-0.005,36.562-0.009,54.843c-22.145-8.098-44.231-16.352-66.446-24.248
	c-26.448-9.402-52.59-19.673-79.357-28.171c-2.958-0.938-6.007-1.594-9.013-2.377C217.705,570.585,269.313,570.568,320.922,570.554z
	"/>
<path fill="#8472B4" d="M-1.707,548.307c-2.005-0.499-3.451-1.355-3.304-3.714c0.144-2.313,1.43-3.217,3.604-3.177
	c2.24,0.041,3.528,1.142,3.276,3.41C1.643,546.859,0.334,548.058-1.707,548.307z"/>
<path fill="#292929" d="M573.264,425.505c-10.681,5.577-19.641,13.565-29.127,20.815c-2.201,4.02-6.382,5.71-9.847,8.186
	c-10.938,7.817-21.956,15.524-32.958,23.25c-1.212,0.853-2.33,2.617-4.29,1.364c-1.809-1.297-3.879-0.693-5.82-0.694
	c-55.311-0.034-110.62-0.102-165.93,0.095c-5.102,0.019-6.352-1.311-6.331-6.36c0.199-48.811,0.119-97.624,0.12-146.437
	c0-6.349,0.006-6.353,6.597-6.353c74.969-0.001,149.937,0,224.904-0.006c2.165,0,4.328-0.069,6.493-0.108
	c0-0.001,0.07,0.232,0.07,0.232c1.007,8.105,0.178,16.246,0.46,24.355c0.115,2.088-1.367,2.896-2.974,3.409
	c-7.038,2.25-10.708,7.42-10.792,14.404c-0.083,6.908,4.109,11.597,10.435,14.294c0.605,0.26,1.176,0.598,1.73,0.969
	c2.451,1.783,1.332,4.41,1.596,6.712c0.216,1.891-0.496,3.859,0.479,5.686c0.327,1.385,0.654,2.77,0.981,4.155
	c-0.737,1.958-0.72,3.919-0.009,5.879c2.256,6.319,3.871,12.912,7.449,18.681C568.282,420.902,569.488,424.4,573.264,425.505z"/>
<path fill="#9FC5DC" d="M675.145,319.314c78.617,0.016,157.232,0.063,235.851-0.045c4.16-0.006,5.552,0.662,5.532,5.288
	c-0.205,49.468-0.206,98.938-0.002,148.405c0.02,4.782-1.485,5.538-5.79,5.527c-54.133-0.14-108.267-0.094-162.397-0.085
	c-1.996,0-3.992,0.097-5.989,0.148c-1.428,0.686-2.637-0.002-3.709-0.764c-7.331-5.209-14.897-10.092-22.03-15.569
	c-1.372-1.055-5.146-2.591-0.818-4.983c2.796-0.713,5.641-0.496,8.463-0.497c43.468-0.016,86.935-0.01,130.399-0.011
	c1.666,0,3.331,0.01,4.997-0.005c9.197-0.078,10.84-1.629,10.852-10.758c0.043-31.975,0.045-63.95-0.001-95.926
	c-0.013-8.805-1.255-9.998-10.23-10.001c-54.292-0.021-108.584-0.022-162.875,0.003c-8.19,0.004-8.3,0.15-10.22,8.192
	c-0.892,2.01-2.485,1.987-4.105,1.188c-2.64-1.299-5.646-1.888-7.879-3.988C675.176,336.729,675.16,328.021,675.145,319.314z"/>
<path fill="#A0C5DC" d="M685.897,442.624c-7.329-6.661-15.943-11.546-23.918-17.313c9.405-12.188,13.184-26.139,13.014-41.346
	c-0.022-2.148,0.187-4.303,0.289-6.452c2.553-2.171,5.955-2.503,8.803-4.057c1.337-0.729,2.522-0.359,3.095,1.229
	c0.534,1.429,0.606,2.921,0.612,4.411c0.06,19.208,0.07,38.415-0.018,57.622C687.765,438.834,687.894,441.095,685.897,442.624z"/>
<path fill="#EFA77E" d="M555.116,377.53c-8.465-3.061-13.067-9.02-12.695-16.438c0.407-8.146,5.319-13.416,14.685-15.76
	c0.498-0.52,0.781-0.421,0.853,0.296c0.004,10.5,0.009,21.001,0.011,31.503C557.167,378.328,556.131,377.854,555.116,377.53z"/>
<path fill="#F0A87F" d="M685.93,373.416c-3.158,2.383-6.477,4.35-10.647,4.097c-0.031-10.692-0.062-21.385-0.093-32.077
	c4.099-0.033,7.313,2.23,10.675,4.11C693.778,354.98,693.816,368.791,685.93,373.416z"/>
<path fill="#433B36" d="M557.958,345.629c-0.312-0.021-0.595-0.12-0.853-0.296c0.014-8.615,0.025-17.23,0.04-25.846
	c1.974,3.752,0.751,7.777,0.907,11.665C558.246,335.97,558.01,340.804,557.958,345.629z"/>
<path fill="#443B36" d="M555.116,377.53c0.951-0.132,1.902-0.265,2.853-0.398c0.036,4.063,0.073,8.125,0.11,12.188
	c-1.81-1.992-0.838-4.413-0.901-6.625C557.12,380.631,557.043,378.765,555.116,377.53z"/>
<path fill="#4C4138" d="M559.053,399.354c-1.436-1.962-1.502-3.924,0.009-5.881C559.059,395.434,559.055,397.395,559.053,399.354z"
	/>
<path fill="#6C57A5" d="M890.098,571.427c-4.832-0.002-9.688,0.31-14.491-0.059c-22.656-1.735-44.561,2.779-66.476,7.534
	c-28.951,6.281-57.946,12.354-86.922,18.515c-0.97-8.986-1.938-17.975-2.904-26.961c56.932,0.02,113.862,0.036,170.795,0.055
	C890.145,570.816,890.145,571.121,890.098,571.427z"/>
<path fill="#F4BF9B" d="M717.423,550.324c-0.654-4.272-1.541-8.521-1.249-12.886c1.999-1.653,4.124-0.673,6.19-0.249
	c10.261,2.101,20.539,4.119,30.75,6.452c6.264,1.432,12.475,1.936,18.687-0.222c1.093-0.379,2.25-0.646,3.401-0.11
	c0.015,4.205-4.447,4.399-6.251,6.978c-0.589,0.081-1.176,0.163-1.763,0.246c-8.324,3.527-17.052,1.915-25.568,1.589
	C733.558,551.814,725.535,550.366,717.423,550.324z"/>
<path fill="#6C57A5" d="M342.061,632.431c0.025-20.637,0.052-41.271,0.078-61.905c55.353-0.012,110.705-0.023,166.058-0.044
	c2.159-0.001,4.317-0.087,6.474-0.132c-1.869,16.313-3.691,32.633-5.617,48.938c-0.875,7.396-1.951,14.767-2.937,22.146
	c-12.735,1.988-25.431,4.301-38.217,5.888c-16.951,2.104-33.96,3.731-51.102,3.135c-13.544-0.472-26.49-4.086-39.437-7.505
	C365.496,639.817,353.82,635.966,342.061,632.431z"/>
<path fill="#F4BF9B" d="M518.051,538.507c0.321,4.034-0.729,7.929-1.221,11.878c-11.359,1.182-22.715,2.312-34.166,2.147
	c-3.376-0.048-6.599-0.352-9.631-1.899c-0.62-0.085-1.239-0.171-1.858-0.258c-2.919-2.417-7.062-3.584-8.102-7.924
	c1.15-0.634,2.306-0.324,3.358,0.151c6.557,2.96,13.21,2.55,20.025,0.987c8.425-1.931,16.88-3.753,25.387-5.303
	C513.887,537.915,516.041,536.883,518.051,538.507z"/>
<path fill="#6C57A5" d="M518.051,538.507c-12.136,2.525-24.263,5.097-36.41,7.56c-6.651,1.348-12.802-0.233-18.567-3.614
	c-8.19-5.938-11.092-14.1-10.056-23.915c1.475-6.981,5.324-12.242,11.158-16.353c5.376-3.788,11.124-7.091,15.935-11.656
	c6.088-3.144,11.31-7.57,16.931-11.406c15.699-10.934,31.397-21.867,47.096-32.8c0.63,2.338-1.342,3.462-2.463,4.839
	c-11.037,13.553-16.794,29.143-18.619,46.424C521.609,511.249,519.735,524.868,518.051,538.507z"/>
<path fill="#6C57A5" d="M775.202,543.31c-9.217,5.486-18.598,2.49-27.962,0.547c-10.354-2.15-20.71-4.279-31.067-6.418
	c-1.012-9.029-2.34-18.037-2.975-27.095c-1.467-20.976-5.387-41.031-18.996-58.034c-2.37-2.959-5.707-5.115-7.249-8.747
	c1.33-1.648,3.093-1.201,4.511-0.516c8.294,4.017,16.104,8.773,22.529,15.52c9.103,7.16,18.701,13.609,28.354,19.985
	c5.679,4.01,11.357,8.02,17.037,12.03c4.422,3.179,8.656,6.665,13.305,9.468c7.473,4.508,12.353,10.763,14.601,19.141
	C787.488,529.349,784.08,537.7,775.202,543.31z"/>
<path fill="#6B56A4" d="M1007.469,524.757c0-7.499-0.063-13.722,0.021-19.942c0.061-4.332,2.149-5.327,8.658-4.697
	c4.016,0.389,4.599,3.108,3.858,6.024C1018.178,513.362,1013.678,518.892,1007.469,524.757z"/>
<path fill="#EEEDEE" d="M981.137,511.214c0.662-2.564,5.09-1.248,4.996-4.793c-0.006-0.235,1.646-0.053,1.947,1.235
	c0.295,1.255-0.954,3.016,1.123,3.728c1.189,1.354,1.19,2.709-0.005,4.062c-2.643,2.26-5.306,3.52-8.066,0.169
	C979.907,514.146,979.911,512.679,981.137,511.214z"/>
<path fill="#F1F0F0" d="M972.373,515.423c-2.243,2.335-4.891,3.218-7.273,0.656c-2.104-2.261-1.996-5.355-0.163-7.727
	c2.172-2.809,4.854-2.069,7.274,0.05c1.414,4.627-3.678,1.011-4.18,3.747C968.001,514.645,973.887,510.799,972.373,515.423z"/>
<path fill="#EAE9E9" d="M989.199,515.444c0.002-1.354,0.003-2.707,0.005-4.062c1.551-2.389,3.46-2.732,5.747-1.021
	c2.818,2.107,0.441,5.171-0.242,6.17C993.348,518.525,990.68,517.901,989.199,515.444z"/>
<path fill="#F1F0F0" d="M981.137,511.214c0,1.467-0.003,2.934-0.005,4.399c-2.737,1.467-5.487,3.449-8.105-0.189
	c-0.289-1.572-1.328-3.198,0.317-4.639C976.1,508.076,978.594,510.088,981.137,511.214z"/>
<path fill="#373737" d="M973.346,510.785c-0.106,1.546-0.214,3.093-0.318,4.639l-0.327,0.014l-0.326-0.015
	c-0.164-2.126-1.18-2.092-2.483-0.901c-1.23,1.122-2.445,1.213-3.182-0.292c-0.72-1.473-0.836-3.193,0.219-4.633
	c0.866-1.184,1.854-0.894,2.894,0.005c1.614,1.392,2.636,1.281,2.392-1.198C973.105,508.951,973.294,509.834,973.346,510.785z"/>
<path fill="#F8F9FA" d="M713.993,458.567c-5.221-3.516-10.412-7.075-15.672-10.531c-3.461-2.273-6.935-4.619-11.366-4.473
	c-0.354-0.313-0.705-0.626-1.058-0.939c0.012-23.069,0.022-46.14,0.034-69.209c6.193-8.64,6.181-13.714-0.065-23.87
	c0.645-11.239,0.645-11.239,11.833-11.239c54.473-0.001,108.943-0.001,163.415,0c9.892,0,11.021,1.156,11.021,11.25
	c0,32.815,0.004,65.632-0.002,98.447c-0.002,8.243-2.121,10.388-10.229,10.389c-47.142,0.002-94.282-0.001-141.426,0.009
	C718.318,458.401,716.155,458.509,713.993,458.567z"/>
<path fill="#000101" d="M596.137,582.438c-2.994-0.086-5.993-0.086-8.98-0.275c-5.727-0.361-7.758-2.414-7.811-8.107
	c-0.086-9.001-0.072-18.002-0.008-27.002c0.045-6.029,2.012-8.176,8.068-8.36c6.661-0.204,13.332-0.056,20-0.058
	c11.667-0.002,23.335-0.051,35.002,0.019c8.034,0.047,9.635,1.731,9.639,9.69c0.004,8.166,0.008,16.334-0.001,24.5
	c-0.008,7.531-0.566,8.198-7.933,9.063c-2.309,0.271-4.643,0.337-6.964,0.495l-0.394-0.08c-13.404-0.646-26.807-0.761-40.207,0.053
	L596.137,582.438z"/>
<path fill="#8472B4" d="M855.659,596.708c-0.367,1.952-1.075,3.612-3.321,3.644c-2.279,0.03-3.916-1.266-3.918-3.497
	c-0.002-1.971,1.532-3.199,3.577-3.359C854.286,593.313,855.073,594.931,855.659,596.708z"/>
<path fill="#5F4DA0" d="M596.549,582.374c2.95-1.601,6.14-0.719,9.174-0.654c10.346,0.222,20.723-0.924,31.037,0.604
	C623.353,582.339,609.95,582.356,596.549,582.374z"/>
<path fill="#747474" d="M466.333,412.368c15.991,0,31.982-0.036,47.972,0.059c1.549,0.01,4.321-1.184,4.375,1.631
	c0.059,3.019-2.819,2.181-4.629,2.184c-32.147,0.046-64.296,0.049-96.442-0.014c-1.581-0.003-4.276,1.046-4.319-1.809
	c-0.05-3.342,2.934-1.973,4.574-1.983C434.019,412.325,450.176,412.368,466.333,412.368z"/>
<path fill="#737373" d="M454.344,372.318c15.816-0.001,31.632-0.051,47.446,0.073c1.661,0.014,4.706-1.428,4.799,1.689
	c0.089,2.957-2.868,2.106-4.678,2.108c-32.13,0.047-64.26,0.049-96.391-0.009c-1.59-0.004-4.215,0.989-4.286-1.877
	c-0.074-2.988,2.609-1.929,4.166-1.937C421.714,372.287,438.029,372.318,454.344,372.318z"/>
<path fill="#737373" d="M416.396,436.394c10.151,0,20.305-0.04,30.456,0.045c1.427,0.012,3.801-0.958,3.878,1.693
	c0.07,2.403-2.084,2.163-3.709,2.164c-20.638,0.02-41.274,0.019-61.911,0.004c-1.653-0.001-3.787,0.15-3.632-2.241
	c0.167-2.578,2.522-1.609,3.963-1.621C395.758,436.354,406.077,436.394,416.396,436.394z"/>
<path fill="#727272" d="M416.063,388.336c10.315,0.001,20.633-0.036,30.948,0.042c1.425,0.012,3.834-0.888,3.711,1.85
	c-0.106,2.349-2.277,2-3.877,2.001c-20.468,0.022-40.934,0.022-61.4,0.001c-1.596-0.002-3.859,0.389-3.937-1.916
	c-0.099-2.992,2.563-1.913,4.104-1.929C395.764,388.29,405.913,388.336,416.063,388.336z"/>
<path fill="#747474" d="M435.103,424.284c-9.833,0-19.666,0.048-29.498-0.048c-1.591-0.016-4.195,1.051-4.371-1.787
	c-0.189-3.057,2.521-2.02,4.074-2.024c20.166-0.071,40.331-0.072,60.497,0.002c1.549,0.006,4.248-1.061,4.118,1.979
	c-0.122,2.875-2.736,1.816-4.321,1.831C455.436,424.33,445.269,424.284,435.103,424.284z"/>
<path fill="#747474" d="M436.082,404.364c9.832,0,19.664-0.054,29.494,0.056c1.558,0.019,4.197-1.15,4.348,1.75
	c0.154,2.994-2.517,2.046-4.103,2.052c-20.164,0.063-40.326,0.063-60.49,0.001c-1.588-0.007-4.262,0.932-4.099-2.06
	c0.158-2.889,2.796-1.727,4.355-1.743C415.752,404.312,425.917,404.364,436.082,404.364z"/>
<path fill="#727272" d="M435.548,360.196c-10.161,0-20.321,0.028-30.481-0.031c-1.497-0.009-3.751,0.713-3.862-1.852
	c-0.117-2.696,2.198-1.979,3.674-1.981c20.488-0.047,40.977-0.046,61.464-0.002c1.484,0.003,3.802-0.674,3.609,2.043
	c-0.18,2.542-2.427,1.781-3.919,1.79C455.87,360.226,445.709,360.196,435.548,360.196z"/>
<path fill="#727272" d="M423.262,447.446c-10.161,0-20.322,0.028-30.483-0.031c-1.486-0.009-3.749,0.675-3.627-2.044
	c0.099-2.22,2.034-1.803,3.44-1.805c20.656-0.025,41.312-0.025,61.967,0c1.407,0.001,3.336-0.407,3.368,1.86
	c0.04,2.711-2.206,1.979-3.683,1.988C443.917,447.476,433.589,447.446,423.262,447.446z"/>
<path fill="#727272" d="M435.158,455.459c-9.995,0-19.991,0.037-29.986-0.041c-1.459-0.012-3.818,0.875-3.955-1.684
	c-0.158-2.991,2.436-2.136,4.047-2.142c20.157-0.056,40.314-0.059,60.472,0.008c1.589,0.005,4.245-0.96,4.186,1.978
	c-0.059,2.928-2.716,1.813-4.276,1.829C455.483,455.509,445.32,455.459,435.158,455.459z"/>
<path fill="#727272" d="M448.073,364.311c9.996,0,19.99-0.036,29.984,0.039c1.462,0.012,3.827-0.854,3.918,1.723
	c0.104,2.977-2.491,2.092-4.098,2.097c-20.155,0.06-40.312,0.062-60.468-0.005c-1.585-0.005-4.253,0.958-4.14-2.015
	c0.109-2.908,2.757-1.771,4.317-1.787C427.75,364.259,437.911,364.31,448.073,364.311z"/>
<path fill="#737373" d="M423.57,396.351c10.163,0,20.327-0.034,30.489,0.039c1.455,0.011,3.746-0.856,3.856,1.792
	c0.112,2.667-2.151,2.04-3.661,2.042c-20.492,0.04-40.985,0.037-61.479,0.003c-1.532-0.003-3.79,0.539-3.617-2.104
	c0.17-2.6,2.463-1.722,3.921-1.732C403.243,396.315,413.407,396.351,423.57,396.351z"/>
<path fill="#737373" d="M423.403,432.293c-10.165,0-20.331,0.027-30.496-0.028c-1.5-0.01-3.764,0.667-3.75-1.96
	c0.014-2.664,2.311-1.88,3.776-1.884c20.497-0.05,40.994-0.045,61.489-0.007c1.356,0.003,3.343-0.604,3.507,1.679
	c0.191,2.677-1.98,2.175-3.532,2.181C444.066,432.313,433.734,432.293,423.403,432.293z"/>
<path fill="#787878" d="M416.047,343.531c-10.307,0-20.613,0.021-30.92-0.026c-1.364-0.006-3.501,0.608-3.569-1.55
	c-0.073-2.268,2.106-1.626,3.441-1.628c20.613-0.042,41.229-0.051,61.841,0.018c1.404,0.004,3.895-0.951,3.777,1.729
	c-0.093,2.114-2.3,1.42-3.648,1.428C436.661,343.557,426.354,343.531,416.047,343.531z"/>
<path fill="#787878" d="M423.378,351.544c-10.169,0-20.338,0.025-30.506-0.03c-1.35-0.008-3.489,0.653-3.588-1.526
	c-0.106-2.348,2.107-1.64,3.416-1.644c20.504-0.05,41.009-0.05,61.513-0.002c1.329,0.003,3.572-0.716,3.568,1.482
	c-0.004,2.583-2.454,1.665-3.896,1.677C443.715,351.583,433.546,351.544,423.378,351.544z"/>
<path fill="#727272" d="M412.042,380.325c5.999-0.001,11.998-0.059,17.995,0.041c1.432,0.023,3.79-0.875,3.695,1.888
	c-0.07,2.038-1.937,1.965-3.433,1.968c-12.663,0.017-25.326,0.02-37.989-0.004c-1.463-0.003-3.296,0.202-3.181-2.084
	c0.117-2.307,2.043-1.771,3.417-1.783C399.045,380.297,405.544,380.327,412.042,380.325z"/>
<path fill="#6753A3" d="M398.224,416.229c-2.484,0.006-4.97,0.005-7.454,0.006c-1.465,0.001-2.669-0.299-2.578-2.163
	c0.082-1.655,1.288-1.697,2.473-1.7c5.301-0.013,10.603-0.006,15.902,0c1.254,0.002,2.32,0.242,2.342,1.846
	c0.02,1.549-0.938,1.988-2.238,1.998C403.855,416.237,401.039,416.223,398.224,416.229z"/>
<path fill="#6753A3" d="M386.419,420.391c2.808-0.002,5.612-0.02,8.418,0.007c1.079,0.011,1.96,0.361,1.946,1.672
	c-0.012,1.141-0.607,2.02-1.717,2.037c-5.772,0.085-11.546,0.083-17.319,0.057c-1.229-0.006-1.637-0.873-1.625-2.014
	c0.014-1.266,0.758-1.738,1.879-1.748C380.808,420.378,383.613,420.393,386.419,420.391z"/>
<path fill="#6753A3" d="M386.166,408.218c-2.475,0.004-4.949,0.009-7.424,0.002c-1.424-0.005-2.675-0.207-2.621-2.102
	c0.046-1.642,1.171-1.755,2.382-1.757c5.279-0.009,10.56-0.017,15.838,0.001c1.162,0.004,2.451-0.005,2.438,1.68
	c-0.014,1.764-1.26,2.148-2.693,2.165C391.446,408.235,388.806,408.214,386.166,408.218z"/>
<path fill="#6552A2" d="M374.648,396.331c2.494,0,4.989-0.021,7.481,0.01c1.154,0.016,2.488-0.064,2.548,1.619
	c0.05,1.411-0.797,2.186-2.152,2.196c-5.486,0.043-10.975,0.042-16.46,0.021c-1.432-0.005-2.081-0.826-1.995-2.243
	c0.082-1.346,1.056-1.562,2.097-1.572c2.827-0.029,5.654-0.01,8.48-0.01C374.648,396.345,374.648,396.338,374.648,396.331z"/>
<path fill="#6552A2" d="M386.786,372.313c2.666,0,5.333-0.022,7.998,0.011c1.064,0.014,2.004,0.312,2.01,1.651
	c0.005,1.173-0.647,2.026-1.749,2.042c-5.824,0.076-11.652,0.081-17.479,0.009c-1.256-0.016-1.514-1.12-1.432-2.19
	c0.104-1.331,1.12-1.504,2.152-1.514C381.12,372.294,383.953,372.312,386.786,372.313z"/>
<path fill="#6552A2" d="M374.157,447.457c-2.66,0-5.32,0.021-7.979-0.01c-1.041-0.013-2.014-0.241-2.106-1.57
	c-0.1-1.42,0.577-2.241,1.995-2.247c5.484-0.023,10.97-0.023,16.455,0.025c1.333,0.013,2.217,0.758,2.163,2.185
	c-0.064,1.68-1.39,1.615-2.547,1.627c-2.659,0.031-5.319,0.011-7.979,0.011C374.157,447.472,374.157,447.465,374.157,447.457z"/>
<path fill="#6551A2" d="M386.582,356.285c2.666-0.006,5.331-0.021,7.996,0.002c1.029,0.009,2.094,0.167,2.216,1.459
	c0.133,1.408-0.702,2.288-2.039,2.302c-5.661,0.063-11.322,0.042-16.984-0.006c-1.224-0.011-1.675-0.881-1.647-2.032
	c0.031-1.288,0.85-1.704,1.962-1.713C380.918,356.277,383.75,356.291,386.582,356.285z"/>
<path fill="#6552A2" d="M386.071,455.486c-2.499-0.006-4.999,0.004-7.498-0.01c-1.21-0.007-2.385-0.085-2.452-1.745
	c-0.061-1.52,0.798-2.093,2.154-2.098c5.332-0.014,10.664-0.019,15.995,0.013c1.519,0.009,2.685,0.663,2.509,2.372
	c-0.165,1.609-1.574,1.449-2.71,1.463C391.404,455.515,388.737,455.492,386.071,455.486z"/>
<path fill="#6552A2" d="M373.991,384.176c-2.494,0-4.987,0.013-7.481-0.005c-1.241-0.008-2.326-0.257-2.438-1.823
	c-0.112-1.58,0.832-2.018,2.158-2.021c5.484-0.009,10.971-0.016,16.457,0.005c1.075,0.003,2.007,0.342,1.999,1.659
	c-0.008,1.434-0.891,2.116-2.22,2.139c-2.824,0.052-5.65,0.017-8.477,0.017C373.991,384.156,373.991,384.166,373.991,384.176z"/>
<path fill="#6853A3" d="M374.075,432.232c-2.646,0.007-5.292,0.019-7.937,0.002c-1.403-0.009-2.133-0.702-2.06-2.153
	c0.064-1.279,0.895-1.664,1.991-1.666c5.457-0.011,10.913-0.011,16.37,0.006c1.36,0.004,2.237,0.632,2.116,2.1
	c-0.1,1.191-0.954,1.682-2.05,1.694C379.697,432.245,376.887,432.226,374.075,432.232z"/>
<path fill="#6552A2" d="M398.854,364.291c2.493-0.006,4.985-0.036,7.478,0.008c1.131,0.021,2.476-0.106,2.546,1.607
	c0.062,1.474-0.883,2.152-2.174,2.164c-5.481,0.05-10.965,0.052-16.446-0.02c-1.317-0.017-2.154-0.831-2.044-2.271
	c0.104-1.352,1.159-1.461,2.167-1.472C393.204,364.276,396.029,364.296,398.854,364.291z"/>
<path fill="#6552A2" d="M367.171,388.327c2.5,0.003,5-0.005,7.499,0.007c1.225,0.006,2.372,0.136,2.422,1.776
	c0.047,1.538-0.874,2.057-2.203,2.062c-5.165,0.021-10.331,0.021-15.496,0.004c-1.243-0.004-2.359-0.299-2.436-1.854
	c-0.098-2.004,1.371-1.972,2.717-1.989C362.172,388.301,364.671,388.324,367.171,388.327z"/>
<path fill="#6853A3" d="M367.022,440.254c-2.667-0.002-5.333,0.021-7.999-0.011c-1.4-0.016-2.165-0.738-2.064-2.189
	c0.09-1.286,1.001-1.622,2.08-1.625c5.333-0.018,10.666-0.018,15.998-0.004c1.088,0.004,1.966,0.349,2.042,1.647
	c0.084,1.454-0.635,2.171-2.058,2.179C372.355,440.268,369.688,440.256,367.022,440.254z"/>
<path fill="#6C57A5" d="M374.1,351.577c-2.654,0.001-5.308,0.021-7.959-0.009c-1.077-0.013-1.997-0.384-1.988-1.673
	c0.009-1.333,1.006-1.572,2.05-1.575c5.308-0.019,10.613-0.021,15.919,0.01c1.042,0.005,2.055,0.279,2.01,1.622
	c-0.043,1.283-1.024,1.596-2.071,1.61C379.405,351.601,376.752,351.575,374.1,351.577z"/>
<path fill="#6C57A5" d="M367.08,343.561c-2.65,0-5.303,0.022-7.954-0.013c-1.042-0.015-2.024-0.299-2.083-1.59
	c-0.06-1.348,0.935-1.639,1.981-1.644c5.303-0.029,10.605-0.027,15.91-0.009c1.036,0.004,2.041,0.229,2.068,1.559
	c0.028,1.298-0.894,1.67-1.969,1.684C372.384,343.584,369.732,343.561,367.08,343.561z"/>
<path fill="#6B6B6B" d="M342.217,431.297c-1.512-0.374-4.152,0.827-4.02-2.142c0.13-2.892,2.729-1.772,4.29-1.781
	c1.539-0.009,4.243-1.086,4.121,1.872C346.501,431.854,343.973,431.071,342.217,431.297z"/>
<path fill="#6B6B6B" d="M342.514,366.538c-1.562-0.52-4.202,0.987-4.317-1.938c-0.116-2.944,2.481-2,4.086-2.058
	c1.701-0.06,4.214-0.622,4.327,1.975C346.739,367.523,343.978,365.998,342.514,366.538z"/>
<path fill="#6D6D6D" d="M342.208,374.468c-1.477-0.444-4.073,0.947-4.028-2.091c0.036-2.552,2.289-1.893,3.77-1.857
	c1.611,0.038,4.121-0.838,4.096,2.056C346.022,375.154,343.69,374.132,342.208,374.468z"/>
<path fill="#6D6D6D" d="M341.876,423.325c-1.536-0.254-3.807,0.537-3.698-2.065c0.125-2.942,2.641-1.783,4.197-1.861
	c1.457-0.073,3.779-0.703,3.669,1.905C345.925,424.155,343.405,422.952,341.876,423.325z"/>
<path fill="#6D6D6D" d="M342.441,411.33c1.562,0.257,3.883-0.497,3.604,2.153c-0.29,2.764-2.748,1.708-4.354,1.793
	c-1.514,0.08-3.768,0.521-3.509-2.104C338.464,410.299,340.99,411.816,342.441,411.33z"/>
<path fill="#6D6D6D" d="M342.137,399.439c-1.515-0.402-4.113,0.866-3.959-2.193c0.13-2.551,2.395-1.766,3.857-1.753
	c1.61,0.015,4.143-0.82,4.008,2.125C345.928,400.151,343.608,399.097,342.137,399.439z"/>
<path fill="#717171" d="M342.21,441.437c-1.718-0.361-4.014,0.624-4.017-1.981c-0.003-2.972,2.523-1.918,4.087-1.978
	c1.461-0.057,3.739-0.732,3.765,1.821C346.078,442.328,343.398,440.806,342.21,441.437z"/>
<path fill="#717171" d="M342.062,403.373c1.559,0.366,4.146-0.776,3.971,2.212c-0.147,2.479-2.43,1.731-3.897,1.703
	c-1.575-0.03-4.121,0.919-3.948-2.113C338.331,402.602,340.628,403.737,342.062,403.373z"/>
<path fill="#717171" d="M342.446,382.479c-1.673-0.511-4.254,0.892-4.252-2.117c0.001-2.577,2.266-1.899,3.73-1.857
	c1.592,0.046,4.093-0.899,4.117,1.997C346.066,383.153,343.657,381.952,342.446,382.479z"/>
<path fill="#6D6D6D" d="M342.154,344.339c-1.526-0.366-4.087,0.818-3.979-2.19c0.096-2.604,2.393-1.766,3.83-1.739
	c1.572,0.028,4.144-0.946,4.037,2.044C345.954,344.957,343.67,344.056,342.154,344.339z"/>
<path fill="#787878" d="M342.231,389.189c1.36,0.429,3.932-0.77,3.625,1.894c-0.264,2.273-2.656,1.255-4.121,1.322
	c-1.304,0.061-3.52,0.664-3.429-1.538C338.407,388.37,340.809,389.598,342.231,389.189z"/>
<path fill="#787878" d="M341.84,355.103c1.64,0.507,4.175-0.708,4.043,1.846c-0.12,2.358-2.555,1.403-4.008,1.449
	c-1.302,0.042-3.472,0.748-3.552-1.408C338.219,354.232,340.817,355.856,341.84,355.103z"/>
<path fill="#787878" d="M342.073,447.626c-1.377-0.429-3.835,0.813-3.747-1.831c0.072-2.16,2.257-1.433,3.554-1.392
	c1.449,0.047,3.89-0.929,4.005,1.441C346.012,448.375,343.488,447.22,342.073,447.626z"/>
<path fill="#787878" d="M342.206,455.582c-1.415-0.414-3.825,0.819-3.897-1.704c-0.063-2.19,2.145-1.578,3.449-1.52
	c1.464,0.064,3.863-0.941,4.104,1.348C346.139,456.354,343.574,455.152,342.206,455.582z"/>
<path fill="#787878" d="M342.021,350.556c-1.352-0.45-3.832,0.843-3.686-1.856c0.117-2.139,2.289-1.393,3.589-1.362
	c1.45,0.035,3.902-0.89,3.966,1.498C345.956,351.324,343.443,350.143,342.021,350.556z"/>
<path fill="#383838" d="M985.365,513.528c-0.193,0.693,0.089,1.798-1.142,1.676c-1.06-0.104-1.038-1.071-1.017-1.854
	c0.023-0.791,0.07-1.794,1.184-1.7C985.461,511.739,985.241,512.774,985.365,513.528z"/>
<path fill="#5C5C5C" d="M976.518,511.47c1.021,0.048,1.406,0.78,1.532,1.6c0.161,1.039-0.085,2.092-1.275,2.289
	c-0.97,0.16-1.427-0.674-1.513-1.536C975.159,512.798,975.327,511.835,976.518,511.47z"/>
<path fill="#A0C6DC" d="M823.393,425.4c-7.813,0-15.624-0.085-23.434,0.046c-2.781,0.046-3.822-0.878-3.795-3.72
	c0.027-2.714,1.19-3.362,3.641-3.353c15.954,0.065,31.91,0.072,47.865-0.004c2.564-0.013,3.482,0.861,3.538,3.456
	c0.064,2.951-1.207,3.655-3.883,3.616C839.35,425.326,831.371,425.4,823.393,425.4z"/>
<path fill="#A8CADF" d="M773.953,409.495c-6.167,0-12.333-0.023-18.499,0.013c-2.3,0.015-4.348,0.081-4.274-3.241
	c0.061-2.821,1.287-3.825,3.973-3.814c12.499,0.049,24.998,0.059,37.497-0.011c2.466-0.015,3.62,0.699,3.66,3.391
	c0.043,2.888-1.122,3.761-3.858,3.704C786.286,409.405,780.118,409.494,773.953,409.495z"/>
<path fill="#A0C6DC" d="M767.076,425.398c-4.166-0.001-8.336-0.111-12.496,0.038c-2.729,0.098-3.362-1.172-3.392-3.618
	c-0.033-2.634,1.018-3.479,3.563-3.449c8.33,0.103,16.663,0.112,24.993-0.002c2.723-0.038,3.36,1.173,3.391,3.622
	c0.032,2.636-1.017,3.526-3.563,3.445C775.41,425.304,771.242,425.399,767.076,425.398z"/>
<path fill="#A1C6DC" d="M767.44,387.345c4.155,0.004,8.313,0.104,12.466-0.032c2.685-0.089,3.388,1.135,3.405,3.598
	c0.019,2.603-1.002,3.492-3.55,3.461c-8.31-0.098-16.621-0.088-24.932-0.002c-2.438,0.025-3.629-0.629-3.657-3.347
	c-0.028-2.843,1.02-3.828,3.804-3.722C759.125,387.462,763.285,387.343,767.44,387.345z"/>
<path fill="#A1C6DC" d="M797.126,441.324c-3.33,0-6.662-0.072-9.987,0.023c-2.457,0.07-4.142-0.236-4.132-3.406
	c0.009-2.922,1.195-3.702,3.893-3.654c6.823,0.121,13.652,0.128,20.477-0.003c2.729-0.052,3.839,0.773,3.858,3.671
	c0.021,3.191-1.671,3.463-4.118,3.393C803.788,441.252,800.456,441.324,797.126,441.324z"/>
<path fill="#A2C6DD" d="M810.657,387.342c3.153-0.001,6.309,0.093,9.456-0.029c2.536-0.101,4.129,0.385,4.003,3.476
	c-0.118,2.919-1.613,3.604-4.168,3.576c-6.801-0.074-13.604-0.108-20.406,0.013c-2.712,0.049-3.341-1.184-3.365-3.616
	c-0.027-2.604,0.979-3.546,3.532-3.45C803.354,387.444,807.008,387.345,810.657,387.342z"/>
<path fill="#A1C6DE" d="M837.469,434.33c3.328-0.002,6.663,0.128,9.983-0.042c2.832-0.144,3.779,0.964,3.76,3.767
	c-0.02,2.774-1.312,3.333-3.704,3.302c-6.656-0.087-13.314-0.104-19.973,0.004c-2.581,0.041-3.53-0.939-3.521-3.508
	c0.008-2.518,0.832-3.662,3.47-3.554C830.805,434.438,834.14,434.332,837.469,434.33z"/>
<path fill="#A8CADF" d="M824.805,409.494c-3.326,0-6.661-0.128-9.98,0.039c-2.843,0.143-3.767-1.002-3.749-3.784
	c0.019-2.772,1.326-3.339,3.714-3.308c6.488,0.083,12.979,0.075,19.468,0.008c2.746-0.028,3.853,1.142,3.877,3.896
	c0.028,2.88-1.577,3.224-3.843,3.169C831.131,409.438,827.969,409.495,824.805,409.494z"/>
<path fill="#A3C7DD" d="M760.858,434.326c1.991,0.003,3.988,0.11,5.971-0.021c2.744-0.186,3.299,1.246,3.338,3.64
	c0.043,2.634-1.037,3.508-3.561,3.421c-3.812-0.131-7.631-0.103-11.443-0.012c-2.681,0.063-3.89-0.972-3.975-3.771
	c-0.102-3.28,1.866-3.344,4.196-3.271C757.209,434.369,759.034,434.323,760.858,434.326z"/>
<path fill="#ABCBE0" d="M717.19,409.443c-1.329,0-2.665,0.083-3.987-0.02c-2.504-0.19-2.033-2.161-2.096-3.752
	c-0.063-1.586,0.102-3.104,2.21-3.158c2.157-0.058,4.323,0.035,6.479-0.072c2.854-0.146,4.313,0.855,4.302,3.977
	c-0.015,3.396-2.223,3.099-4.414,3.083c-0.83-0.006-1.663-0.001-2.493-0.001C717.19,409.48,717.19,409.462,717.19,409.443z"/>
<path fill="#A1C6DC" d="M716.488,394.338c-1.916-0.52-5.404,1.51-5.423-3.177c-0.011-2.623,0.605-4.133,3.563-3.838
	c1.305,0.13,2.634,0.061,3.949,0.01c2.62-0.102,4.857-0.181,4.775,3.676c-0.076,3.639-2.262,3.375-4.622,3.332
	C718.073,394.327,717.414,394.338,716.488,394.338z"/>
<path fill="#A0C6DC" d="M717.031,425.478c-2.453-0.535-6.027,1.439-5.982-3.561c0.049-5.365,3.917-3.303,6.364-3.407
	c2.396-0.102,5.929-1.552,5.909,3.384C723.303,427.289,719.313,424.712,717.031,425.478z"/>
<path fill="#A1C6DE" d="M717.008,441.383c-2.656-0.368-6.107,1.234-5.956-3.672c0.168-5.368,4.07-3.089,6.487-3.279
	c2.453-0.193,5.913-1.364,5.78,3.506C723.172,443.321,719.148,440.546,717.008,441.383z"/>
<path fill="#A7C9DF" d="M749.9,358.312c-2.799-0.026-5.648,0.545-5.714-3.661c-0.072-4.617,3.234-3.235,5.573-3.307
	c2.447-0.073,5.441-1.021,5.438,3.482C755.196,359.377,752.137,358.104,749.9,358.312z"/>
<path fill="#A2C6DD" d="M715.969,358.29c-2.022-0.186-4.838,0.955-4.939-3.289c-0.105-4.436,2.721-3.664,5.305-3.699
	c2.506-0.032,4.991-0.496,4.967,3.547C721.273,358.956,718.668,358.271,715.969,358.29z"/>
<path fill="#A6C8DF" d="M733.02,358.282c-2.333-0.057-4.965,0.754-5.047-3.32c-0.09-4.333,2.675-3.688,5.24-3.651
	c2.334,0.032,4.977-0.78,5.041,3.33C738.324,358.95,735.662,358.366,733.02,358.282z"/>
</svg>
