<?xml version="1.0" encoding="utf-8"?>
<!-- Generator: Adobe Illustrator 16.0.0, SVG Export Plug-In . SVG Version: 6.00 Build 0)  -->
<!DOCTYPE svg PUBLIC "-//W3C//DTD SVG 1.1//EN" "http://www.w3.org/Graphics/SVG/1.1/DTD/svg11.dtd">
<svg version="1.1" id="Camada_1" xmlns="http://www.w3.org/2000/svg" xmlns:xlink="http://www.w3.org/1999/xlink" x="0px" y="0px"
	 width="1920.438px" height="1080.246px" viewBox="0 0 1920.438 1080.246" enable-background="new 0 0 1920.438 1080.246"
	 xml:space="preserve">
<g>
	<path fill-rule="evenodd" clip-rule="evenodd" fill="#7058BF" d="M1,599.137C1,401.463,1.012,203.792,0.914,6.119
		C0.912,2.203,1.33,0.865,5.882,0.866C644.401,1.007,1282.919,1,1921.438,1c0.974,2.073,0.461,4.272,0.461,6.402
		c0.031,199.877,0.021,399.754,0.03,599.622c-0.287,2.247-2.159,2.289-3.746,2.536c-57.645,8.975-113.399,25.641-169.393,41.396
		c-27.588,7.764-55.101,15.797-82.927,22.739c-17.268,4.309-34.108,4.527-51.334,0.122c-25.85-6.61-51.471-13.967-76.939-21.882
		c-53.473-16.616-106.579-34.435-160.725-48.839c-4.076-1.085-8.161-1.5-12.355-1.496c-35.504,0.03-71.009,0.04-106.515-0.023
		c-2.718-0.005-5.741,0.807-7.974-1.726c0.016-0.682,0.326-1.168,0.931-1.478c2.861-1.29,5.902-0.904,8.88-0.906
		c49.667-0.024,99.335-0.014,149.004-0.02c9.908-0.001,11.095-1.49,9.7-11.482c-0.362-2.594-1.503-3.884-4.114-4.025
		c-2.334-0.127-4.665-0.121-6.997-0.121c-79.502-0.005-159.004-0.001-238.506-0.012c-3.162,0-6.337,0.178-9.478-0.383
		c-2.127-0.561-4.206-1.253-6.06-2.489c-3.247-2.849-5.273-6.552-5.792-10.69c-0.869-6.922-2.559-13.993,0.99-20.753
		c2.645-1.375,5.518-1.007,8.318-1.009c32.401-0.027,64.803-0.016,97.205-0.019c1.993,0,3.986-0.044,5.979-0.077
		c3.413-0.056,5.354-1.648,5.394-5.112c0.087-7.792,0.674-15.595-0.433-23.366c-0.544-2.806-0.439-5.645-0.44-8.476
		c-0.008-43.67-0.055-87.341,0.033-131.012c0.019-9.486,1.262-18.936,1.011-28.456c-0.26-9.887-0.354-10.193-10.064-10.195
		c-47.67-0.011-95.341-0.004-143.011-0.005c-29.67,0-59.339,0.008-89.008-0.013c-2.82-0.002-5.68,0.27-8.417-0.706
		c-2.554-1.356-2.301-3.859-2.343-6.139c-0.124-6.663,0.05-13.329-0.074-19.992c-0.202-10.861-6.191-17.044-17.032-18.459
		c-15.899-2.075-31.675-1.436-45.649,6.673c-9.197,5.337-18.098,8.043-28.661,7.618c-11.839-0.476-23.622,10.506-22.777,22.936
		c0.172,2.533,0.613,5.446-2.142,7.267c-3.059,1.175-6.256,0.797-9.4,0.798c-75.935,0.021-151.868,0.016-227.803,0.018
		c-11.414,0.001-11.756,0.02-11.37,11.282c1.802,52.433,0.563,104.879,0.933,157.317c0.022,3.16,0.151,6.332-0.417,9.467
		c-1.178,7.785-0.533,15.607-0.444,23.415c0.036,3.191,1.83,4.821,5.006,5.056c2.164,0.16,4.327,0.16,6.491,0.16
		c32.979,0.005,65.958-0.007,98.938,0.02c2.808,0.002,5.684-0.354,8.357,0.945c0.131,0.095,0.31,0.171,0.382,0.304
		c4.34,7.951,1.585,25.378-4.929,31.283c-1.93,1.087-3.995,1.827-6.138,2.378c-3.306,0.599-6.647,0.414-9.976,0.415
		c-77.168,0.011-154.336,0.01-231.504,0.006c-10.625-0.001-9.725,0.117-9.819,9.416c-0.019,1.833-0.049,3.677-0.914,5.367
		c-2.301,2.605-4.927,1.205-7.355,0.412c-18.052-5.896-36.216-11.427-54.537-16.409c-26.375-7.17-52.92-13.764-80.294-15.628
		c-20.578-1.402-41.2-0.777-61.801,0.355c-12.125,0.667-24.241,1.438-36.361,2.171c-20.774,1.259-41.477,3.257-62.157,5.442
		c-39.903,4.217-79.761,8.861-119.457,14.749c-24.05,3.567-48.084,7.253-72.052,11.352C6.925,599.543,3.96,600.399,1,599.137z"/>
	<path fill-rule="evenodd" clip-rule="evenodd" fill="#5E49AB" d="M1,1081.246c0-83.352,0-166.705,0-250.057
		c1.93-1.37,3.874-0.419,5.762,0.05c21.837,5.418,43.517,11.444,65.355,16.861c42.067,10.436,84.307,20.044,126.979,27.749
		c26.25,4.74,52.697,5.88,79.186,4.59c24.762-1.206,49.499-3.205,74.214-5.401c23.886-2.12,47.771-4.271,71.641-6.538
		c18.734-1.781,37.472-3.552,56.204-5.369c21.543-2.088,43.122-3.829,64.693-5.627c16.925-1.41,33.872-2.396,50.805-3.628
		c6.143-0.447,12.307-0.715,18.448-1.011c22.13-1.068,44.293-1.908,66.446-1.122c32.644,1.157,64.506,7.38,95.969,15.837
		c39.124,10.518,77.401,23.874,116.404,34.794c29.899,8.372,60.164,15.22,91.137,17.89c16.714,1.44,33.509,1.797,50.393,0.749
		c29.269-1.817,58.464-4.304,87.599-7.488c26.002-2.843,51.991-5.823,77.966-8.927c42.192-5.041,84.323-10.572,126.466-15.994
		c58.672-7.549,117.332-15.202,176.024-22.591c41.818-5.265,83.692-10.189,125.667-14.088c16.9-1.57,33.841-2.708,50.824-3.432
		c27.115-1.156,53.844,2.217,80.586,5.558c50.459,6.305,100.553,14.983,150.591,23.953c3.939,0.706,8.451,0.184,11.53,3.753
		c0.086,65.178-0.01,130.35,0.103,195.521c0.006,3.42-0.868,5.002-4.438,4.477c-0.979-0.144-1.997-0.021-2.997-0.021
		c-635.723,0-1271.444,0.001-1907.167-0.026C5.262,1081.707,3.068,1082.214,1,1081.246z"/>
	<path fill-rule="evenodd" clip-rule="evenodd" fill="#634EB0" d="M1921.268,881.207c-10.926-1.829-21.855-3.636-32.777-5.491
		c-20.544-3.488-41.065-7.121-61.633-10.472c-17.131-2.791-34.264-5.686-51.492-7.733c-12.314-1.464-24.599-3.211-36.945-4.493
		c-14.991-1.558-30.014-2.66-45.03-3.595c-9.388-0.584-18.946,0.141-28.319,1.218c-6.099,0.701-12.229,0.806-18.313,1.336
		c-19.946,1.737-39.871,3.535-59.74,6.043c-13.127,1.656-26.331,2.699-39.478,4.213c-12.808,1.475-25.583,3.234-38.379,4.809
		c-14.28,1.758-28.577,3.386-42.852,5.184c-11.971,1.509-23.912,3.247-35.881,4.763c-14.275,1.807-28.575,3.406-42.846,5.241
		c-13.445,1.729-26.86,3.705-40.303,5.462c-9.672,1.265-19.375,2.297-29.051,3.527c-11.317,1.439-22.615,3.028-33.932,4.47
		c-9.677,1.233-19.374,2.3-29.051,3.531c-11.317,1.439-22.615,3.02-33.933,4.462c-9.677,1.231-19.366,2.37-29.053,3.521
		c-10.506,1.247-21.015,2.486-31.527,3.681c-10.025,1.141-20.056,2.237-30.088,3.319c-15.29,1.651-30.575,3.352-45.878,4.874
		c-8.731,0.869-17.485,1.578-26.244,2.092c-17.235,1.01-34.459,2.675-51.749,2.007c-19.537-0.754-38.928-2.792-58.207-6.261
		c-36.02-6.482-70.861-17.312-105.752-27.979c-27.618-8.442-55.019-17.646-83.22-24.037c-18.557-4.205-37.173-7.96-56.185-9.876
		c-21.914-2.206-43.85-2.224-65.763-1.656c-19.881,0.515-39.754,1.9-59.626,2.963c-20.822,1.112-41.606,3.047-62.378,4.936
		c-19.271,1.752-38.492,4.031-57.755,5.864c-15.983,1.521-32.006,2.624-47.993,4.109c-16.304,1.516-32.57,3.439-48.881,4.87
		c-14.353,1.26-28.773,1.793-43.114,3.165c-26.165,2.503-52.378,3.514-78.633,2.854c-16.075-0.404-31.931-3.236-47.717-6.076
		c-34.075-6.129-67.887-13.565-101.484-21.908c-26.542-6.591-52.955-13.707-79.429-20.579c-3.202-0.83-6.423-1.584-9.636-2.374
		c0-47.344,0-94.688,0-142.032c1.04-2.059,3.067-2.363,5.008-2.857c18.907-4.822,37.938-9.037,57.354-11.231
		c12.193-1.378,24.284,0.248,36.338,1.845c52.942,7.009,104.911,19.019,156.981,30.541c38.41,8.499,76.585,17.964,114.768,27.392
		c37.856,9.349,75.654,18.938,113.236,29.352c14.842,4.112,29.905,6.618,45.365,6.484c11.833-0.103,23.668,0.034,35.501-0.034
		c16.823-0.097,33.569-1.617,50.345-2.643c14.79-0.903,29.558-1.957,44.313-3.281c7.076-0.378,14.118-1.108,21.154-1.935
		c33.293-2.883,66.559-6.068,99.853-8.886c21.517-1.821,43.061-3.611,64.663-4.374c4.812-0.17,9.566-1.363,14.421-0.842
		c24.82-1.302,49.637-2.723,74.494-1.005c13.893,0.124,27.633,1.826,41.324,4.035c19.105,2.503,38.219,4.966,57.348,7.301
		c2.656,0.324,5.299,0.31,7.952,0.414c15.116,2.509,30.393,3.603,45.618,5.091c19.204,1.879,38.398,3.854,57.616,5.574
		c17.556,1.572,35.119,3.053,52.677,4.585c10.591,0.924,21.244,1.201,31.762,2.9c7.229-0.385,14.276,1.66,21.484,1.614
		c18.271,2.72,35.994,0.223,53.904-3.955c32.293-7.533,64.844-13.971,97.374-20.455c23.376-4.66,46.813-8.991,70.26-13.267
		c36.899-6.73,73.896-12.978,111.243-16.484c14.703-1.381,29.611-0.682,44.448,0.153c14.806,0.834,29.548,2.324,44.31,3.564
		c16.26,1.366,32.479,3.296,48.696,5.178c53.646,6.226,107.11,13.768,160.517,21.75c11.539,1.726,23.116,3.179,34.628,5.079
		c2.262,0.374,4.733,0.476,5.939,3.008c0.072,37.719,0.018,75.432,0.006,113.144
		C1921.899,878.347,1922.429,879.919,1921.268,881.207z"/>
	<path fill-rule="evenodd" clip-rule="evenodd" fill="#6A53B8" d="M660.17,766.166c-15.994,1.321-31.971,2.943-47.989,3.814
		c-6.291,0.341-12.571,0.912-18.854,1.303c-14.954,0.928-29.919,0.518-44.866,0.976c-25.254,0.775-49.816-2.134-74.197-9.276
		c-29.097-8.524-58.639-15.558-88.07-22.909c-34.725-8.675-69.471-17.287-104.331-25.394c-33.38-7.763-66.856-15.138-100.407-22.119
		c-22.174-4.614-44.508-8.518-66.862-12.184c-12.22-2.005-24.6-3.403-36.963-4.093c-18.047-1.007-35.529,3.401-53.01,7.175
		c-7.915,1.709-15.749,3.787-23.62,5.698c0-30.007,0-60.014,0-90.021c9.599-1.666,19.184-3.412,28.798-4.978
		c16.317-2.658,32.633-5.338,48.988-7.75c13.25-1.956,26.556-3.528,39.835-5.279c12.126-1.6,24.234-3.353,36.38-4.778
		c13.309-1.563,26.653-2.809,39.979-4.228c11.672-1.243,23.331-2.625,35.012-3.776c8.898-0.878,17.811-1.735,26.738-2.171
		c24.201-1.181,48.359-2.946,72.623-3.276c21.438-0.292,42.623,0.781,63.68,4.702c36.297,6.759,71.515,17.5,106.579,28.815
		c1.092,0.353,2.253,0.492,3.382,0.73c1.29,0.018,2.279,0.845,3.43,1.249c14.813,3.435,28.946,8.944,43.208,14.057
		c33.722,12.085,67.266,24.664,101.03,36.637c3.919,1.392,8.722,1.688,10.691,6.479c0.542,2.137,0.477,4.311,0.478,6.475
		c0.015,32,0.021,63.999-0.013,95.999C661.817,760.835,662.246,763.771,660.17,766.166z"/>
	<path fill-rule="evenodd" clip-rule="evenodd" fill="#FEFEFE" d="M1921.268,881.207c0.002-39.342,0.003-78.684,0.004-118.024
		c-1.629-1.963-1.516-4.342-1.518-6.661c-0.031-47.239-0.031-94.479,0.001-141.72c0.001-2.316-0.122-4.698,1.521-6.655
		c0.054-2.163,0.153-4.325,0.153-6.487c0.008-200.219,0.008-400.439,0.008-600.659c0.308,0.218,1.043-0.506,1.011,0.5
		c-0.043,1.332-0.011,2.667-0.011,4c0,357.355-0.01,714.71,0.119,1072.065c0.002,4.204-1.031,4.781-4.939,4.781
		c-637.372-0.104-1274.745-0.1-1912.117-0.162c-1.463,0-3.391,1.154-4.5-0.938c637.598,0,1275.195,0,1912.792,0
		c1.501,0,3.011-0.112,4.498,0.023c2.318,0.211,3.487-0.577,3.154-3.045c-0.066-0.491-0.007-0.999-0.007-1.499
		c0-64.177,0-128.354-0.008-192.53C1921.43,883.199,1921.324,882.203,1921.268,881.207z"/>
	<path fill-rule="evenodd" clip-rule="evenodd" fill="#6A53B8" d="M1921.276,608.146c0.054,34.231,0.134,68.464,0.15,102.696
		c0.008,17.446-0.1,34.893-0.155,52.34c-22.902-3.349-45.806-6.701-68.708-10.044c-22.411-3.273-44.806-6.664-67.242-9.761
		c-14.251-1.967-28.569-3.452-42.849-5.229c-12.303-1.53-24.557-3.603-36.898-4.627c-11.225-0.933-22.381-2.427-33.598-3.355
		c-15.67-1.298-31.319-3.175-47.017-3.717c-14.933-0.515-29.909-0.975-44.884,0.491c-16.312,1.595-32.522,3.872-48.713,6.287
		c-15.209,2.269-30.362,4.938-45.504,7.636c-24.433,4.352-48.892,8.595-73.238,13.392c-29.887,5.889-59.678,12.262-89.494,18.5
		c-14.264,2.984-28.398,6.712-42.764,9.026c-9.969,1.607-20.157,0.123-30.147-1.626c-1.839-1.881-1.604-4.306-1.605-6.603
		c-0.047-55.468-0.046-110.937,0.003-166.405c0.002-2.445-0.342-5.072,1.808-7.003c34.831-0.002,69.67,0.394,104.49-0.211
		c13.08-0.228,25.373,2.313,37.669,5.834c39.916,11.429,79.497,23.941,119.07,36.5c34.32,10.892,68.728,21.502,103.71,30.207
		c17.399,4.329,34.254,3.881,51.473-0.53c42.426-10.871,84.327-23.592,126.528-35.248c36.108-9.975,72.385-19.299,109.204-26.304
		C1908.702,609.227,1914.923,607.899,1921.276,608.146z"/>
	<path fill-rule="evenodd" clip-rule="evenodd" fill="#1D1D1B" d="M897.165,337.937c0.117-5.449-0.824-11.021,1.766-16.191
		c4.974-9.927,13.295-14.849,24.128-14.672c8.807,0.144,16.354-1.416,24.228-6.255c16.327-10.034,34.766-10.281,53.158-7.053
		c8.181,1.436,13.535,8.751,13.699,17.396c0.169,8.979,0.073,17.963,0.093,26.945c2.414,3.108,1.391,6.715,1.482,10.162
		c0.252,8.586,0.257,17.172,0.008,25.758c0.242,10.371,0.233,20.742,0.016,31.109c0.209,8.79-0.05,17.584-2.206,26.141
		c-2.191,8.703-5.271,17.069-12.141,23.407c-1.866,0.729-3.592,0.144-5.303-0.582c-25.783-10.943-51.654-11.646-77.643-0.708
		c-1.83,0.77-3.667,1.616-5.703,1.765c-4.209-0.129-5.77-3.559-7.539-6.423c-3.94-6.376-6.607-13.305-7.962-20.708
		c-0.467-1.84-0.296-3.75-0.646-5.605c-0.458-1.642-0.803-3.297-0.793-5.012c-0.039-3.899,0.029-7.796-0.08-11.693
		c-0.272-10.388-0.285-20.772-0.005-31.154c-0.01-8.368,0.367-16.743-0.229-25.104c-0.188-0.551-0.314-1.119-0.413-1.691
		C894.856,344.297,895.113,340.925,897.165,337.937z"/>
	<path fill-rule="evenodd" clip-rule="evenodd" fill="#B2B2B2" d="M1158.315,580.03c84.664,0.011,169.329,0.021,253.992,0.032
		c8.014,0.001,8.067,0.001,8.004,7.756c-0.108,13.086,1.689,11.352-11.418,11.367c-52.833,0.062-105.664,0.042-158.495,0.053
		c-3.722,2.536-7.941,1.319-11.955,1.521c-3.1,0.155-6.22,0.166-9.323-0.154c-53.709-0.051-107.416,0.435-161.125,0.215
		c-3.132-0.014-6.341,0.449-9.334-0.982c-3.711-6.604-3.795-13.68-2.681-20.912c3.211-2.11,6.741-1.336,10.186-1.042
		c8.947,0.765,17.868,1.749,26.879,1.729c4.533-0.011,8.929-0.847,13.393-1.269c12.875,0.809,25.762,0.215,38.642,0.322
		C1149.554,578.702,1153.972,578.908,1158.315,580.03z"/>
	<path fill-rule="evenodd" clip-rule="evenodd" fill="#B2B2B2" d="M505.19,599.318c-0.731-0.723-1.462-1.447-2.194-2.17
		c0.04-4.332,0.214-8.67,0.074-12.996c-0.097-2.976,0.913-4.396,4.008-4.108c1.322,0.123,2.665,0.019,3.998,0.019
		c82.014-0.002,164.028-0.004,246.042-0.006c5.51-1.681,11.182-1.296,16.825-1.363c12.647-0.151,25.3,0.381,37.94-0.302
		c12.739,2.459,25.463,0.724,38.188-0.206c2.142-0.156,4.297-0.751,6.26,0.666c1.288,7.2,0.58,14.173-2.403,20.891
		c-1.809,1.064-3.823,1.07-5.817,1.072c-54.895,0.034-109.789,0.038-164.684,0c-0.664,0-1.327-0.094-1.987-0.166
		c-7.155,0.228-14.311,0.248-21.468-0.003c-4.992,0.404-9.992,0.176-14.986,0.179c-37.315,0.024-74.63-0.056-111.944,0.062
		C523.709,600.915,514.434,600.554,505.19,599.318z"/>
	<path fill-rule="evenodd" clip-rule="evenodd" d="M897.165,337.937c-0.332,3.346-0.665,6.692-0.997,10.037
		c-2.619,2.551-5.953,1.757-9.021,1.76c-54.814,0.054-109.629,0.037-164.444,0.039c-18.494,0-36.987-0.027-55.481,0.014
		c-7.007,0.016-7.363,0.368-7.367,7.314c-0.022,46.983-0.024,93.967,0.001,140.951c0.004,7.168,0.224,7.36,7.769,7.362
		c52.815,0.017,105.631-0.001,158.446,0.028c3.136,0.002,6.352-0.451,9.345,0.978c1.5,1.065,1.167,2.458,0.032,3.259
		c-5.677,4.006-10.436,9.556-17.788,10.832c-4.487,0.406-8.979,0.301-13.47,0.301c-49.235,0.001-98.47,0.032-147.705-0.062
		c-3.265-0.007-7.186,1.233-9.331-2.84c-0.08-9.828-0.22-19.655-0.228-29.481c-0.027-37.16,0.018-74.321-0.029-111.48
		c-0.013-10.325-0.288-20.649-0.368-30.974c-0.061-7.825,0.053-7.893,7.684-7.893c78.986-0.001,157.972,0.001,236.958-0.007
		C893.17,338.073,895.168,337.984,897.165,337.937z"/>
	<path fill-rule="evenodd" clip-rule="evenodd" d="M1014.237,348.032c0-3.309,0-6.619,0-9.928
		c82.167-0.008,164.333,0.022,246.5-0.119c4.991-0.009,6.325,1.872,6.31,6.455c-0.217,56.325-0.321,112.652-0.47,168.979
		c-0.005,1.493-0.181,2.988-0.276,4.481c-0.779,2.374-2.855,2.548-4.838,2.769c-2.149,0.239-4.318,0.14-6.479,0.14
		c-48.045,0.003-96.09-0.002-144.135,0.01c-3.659,0.001-7.313-0.044-10.953-0.346c-7.04-1.944-12.16-6.977-17.768-11.205
		c-1.49-1.124-1.479-2.503,0.598-3.256c2.944-0.853,5.962-0.577,8.951-0.578c50.998-0.019,101.998-0.01,152.997-0.016
		c8.895-0.001,8.913-0.014,8.914-8.708c0.007-46.167,0.004-92.333,0.002-138.499c0-1.333-0.053-2.667-0.055-3.998
		c-0.003-2.84-1.281-4.312-4.208-4.367c-2.166-0.041-4.332-0.071-6.497-0.071c-72.999-0.003-145.998,0.007-218.997-0.032
		C1020.571,349.742,1017.101,350.463,1014.237,348.032z"/>
	<path fill-rule="evenodd" clip-rule="evenodd" fill="#F9F9F9" d="M647.155,517.909c1.987,1.731,4.404,1.193,6.683,1.193
		c53.292,0.021,106.584,0.015,159.876,0.021c1.829,0,3.66,0.079,5.489,0.121c0.306,2.304-1.645,3.05-2.97,4.152
		c-2.796,2.325-5.947,4.161-8.93,6.229c-5.914,4.098-11.346,8.572-13.528,15.863c-0.379,1.269-1.184,2.357-2.364,3.105
		c-8.092,1.484-16.166,2.354-24.163-0.498c-32.763-0.037-65.528,0.027-98.291-0.192c-7.059-0.048-16.026,3.168-20.709-1.512
		c-4.875-4.872-1.218-13.939-1.692-21.151C646.398,522.828,645.87,520.258,647.155,517.909z"/>
	<path fill-rule="evenodd" clip-rule="evenodd" fill="#F9F9F9" d="M1098.479,519.3c10.642-0.061,21.282-0.168,31.924-0.174
		c43.076-0.02,86.153-0.002,129.23-0.025c2.271-0.001,4.693,0.573,6.667-1.199c1.497,8.895,0.571,17.843,0.505,26.768
		c-0.016,2.069-1.621,3.196-3.735,3.276c-1.497,0.056-2.995,0.036-4.493,0.038c-36.777,0.044-73.555,0.087-110.33,0.129
		c-4.409,2.892-9.348,1.172-14.039,1.57c-2.131,0.181-4.307,0.118-6.422-0.341c-2.221-0.512-3.264-2.158-3.839-4.171
		c-1.689-5.909-5.517-10.102-10.454-13.539c-4.097-2.852-8.352-5.491-12.229-8.645C1100.061,522.01,1098.14,521.477,1098.479,519.3z
		"/>
	<path fill-rule="evenodd" clip-rule="evenodd" fill="#292929" d="M1317.44,513.4c8.164,0,16.33-0.064,24.493,0.045
		c2.018,0.027,4.995-0.293,4.671,2.961c-0.408,4.095,1.735,3.805,4.518,3.478c13.88-1.625,21.285,7.767,16.172,20.792
		c-4.203,10.706-12.18,18.535-20.87,25.68c-1.419,1.167-2.773,2.326-3.929,3.786c-4.864,6.146-11.241,9.136-19.116,8.979
		c-4.497-0.089-8.998,0.042-13.496-0.028c-11.775-0.184-21.416-9.466-21.6-21.168c-0.208-13.327,0.047-26.66-0.146-39.987
		c-0.054-3.719,1.664-4.574,4.811-4.555C1301.111,513.434,1309.275,513.4,1317.44,513.4z"/>
	<path fill-rule="evenodd" clip-rule="evenodd" fill="#959595" d="M1229.191,599.229c7.067,0.003,14.137,0.006,21.206,0.01
		c-0.046,0.304-0.039,0.605,0.022,0.907c-0.044,29.834-0.099,59.669-0.133,89.503c-0.033,30.17-0.047,60.339-0.07,90.508
		c-3.022,2.145-6.076-0.013-8.998-0.271c-3.913-0.347-7.824-0.652-11.752-0.788c-1.938-1.792-1.855-4.188-1.857-6.507
		c-0.04-55.74-0.048-111.48-0.002-167.221c0.001-1.497,0.026-3,0.52-4.443C1228.387,600.3,1228.743,599.735,1229.191,599.229z"/>
	<path fill-rule="evenodd" clip-rule="evenodd" fill="#FEFEFE" d="M1324.207,491.963c2.312-4.141,0.613-6.835-3.046-9.059
		c-4.419-2.686-9.548-3.81-13.851-6.819c-13.157-9.2-19.693-25.265-16.078-40.169c3.745-15.434,21.457-25.503,36.744-20.887
		c7.992,2.414,12.22,10.795,9.417,18.673c-2.642,7.424-11.385,11.465-18.759,8.669c-6.678-2.53-9.027-1.416-10.569,5.583
		c-2.243,10.182,1.521,18.292,9.348,24.686c3.357,2.743,6.962,5.203,9.286,8.968c2.563,4.151,2.791,8.124-1.288,11.575
		C1324.361,493.416,1323.953,493.017,1324.207,491.963z"/>
	<path fill-rule="evenodd" clip-rule="evenodd" fill="#9A9A9A" d="M767.25,548.097c8.267-0.865,16.615,0.689,24.859-0.841
		c0.896,0.624,1.316,1.603,1.24,2.569c-0.683,8.719,3.492,15.15,9.615,20.691c1.21,2.795,3.626,4.412,5.896,6.218
		c1.132,0.901,3.109,2.312-0.332,2.89c-14.271-0.011-28.533,0.047-42.794-0.076c-1.485-0.014-3.696,1.312-4.511-1.349
		c4.236-3.365,5.728-8.046,5.926-13.153C767.368,559.403,767.232,553.747,767.25,548.097z"/>
	<path fill-rule="evenodd" clip-rule="evenodd" fill="#9A9A9A" d="M1126.384,547.908c7.286,0.068,14.574,0.136,21.862,0.204
		c0.01,5.269-0.154,10.544,0.078,15.804c0.239,5.396,2.115,10.253,5.907,14.247c-0.525,2.708-2.673,1.379-4.005,1.39
		c-13.33,0.111-26.661,0.063-39.979,0.069c-2.946,0.089-2.595-1.34-1.175-2.896c1.646-1.807,3.896-3.071,4.85-5.494
		c7.005-5.563,10.899-12.748,11.371-21.738C1125.328,548.816,1125.806,548.291,1126.384,547.908z"/>
	<path fill-rule="evenodd" clip-rule="evenodd" fill="#8D77D8" d="M490.718,502.134c3.838,0.056,7.323,3.546,7.374,7.387
		c0.054,4.065-3.707,7.657-7.781,7.432c-3.899-0.215-7.049-3.586-7.128-7.63C483.112,505.655,486.861,502.079,490.718,502.134z"/>
	<path fill-rule="evenodd" clip-rule="evenodd" fill="#8D77D8" d="M296.036,241.055c-0.292,3.872-3.945,7.152-7.765,6.973
		c-3.86-0.182-7.195-3.81-7.052-7.672c0.149-4.02,3.947-7.437,8.04-7.233C292.935,233.305,296.321,237.269,296.036,241.055z"/>
	<path fill-rule="evenodd" clip-rule="evenodd" fill="#8D77D8" d="M83.742,377.065c-4.007,0.141-7.717-3.46-7.707-7.479
		c0.009-3.838,3.459-7.302,7.326-7.356c3.406-0.047,7.629,4.341,7.591,7.887C90.915,373.524,87.372,376.938,83.742,377.065z"/>
	<path fill-rule="evenodd" clip-rule="evenodd" fill="#8D77D8" d="M1405.292,370.09c4.428-0.016,6.961,2.572,7.049,7.201
		c0.077,4.072-3.077,7.447-6.983,7.47c-3.897,0.022-7.104-3.346-7.051-7.406C1398.367,372.704,1400.865,370.107,1405.292,370.09z"/>
	<path fill-rule="evenodd" clip-rule="evenodd" fill="#8D77D8" d="M1681.793,495.125c-4.685-0.003-7.322-2.435-7.418-6.836
		c-0.098-4.631,2.655-7.253,7.557-7.195c3.814,0.046,7,3.102,7.124,6.835C1689.185,491.788,1685.813,495.128,1681.793,495.125z"/>
	<path fill-rule="evenodd" clip-rule="evenodd" fill="#8D77D8" d="M56.989,221.277c0.141,3.965-2.547,6.607-6.913,6.797
		c-4.133,0.18-8.021-3.249-7.997-7.049c0.023-3.417,3.508-6.86,7.072-6.986C53.261,213.893,56.845,217.203,56.989,221.277z"/>
	<path fill-rule="evenodd" clip-rule="evenodd" fill="#8D77D8" d="M1861.436,251.328c0.094,4.042-2.986,7.575-6.73,7.725
		c-4.177,0.165-7.151-2.705-7.301-7.045c-0.134-3.925,3.008-7.637,6.672-7.88C1857.61,243.892,1861.349,247.55,1861.436,251.328z"/>
	<path fill-rule="evenodd" clip-rule="evenodd" fill="#8D77D8" d="M1137.604,58.985c-4-0.027-7.437-3.619-7.354-7.685
		c0.077-3.758,3.772-7.412,7.297-7.217c3.645,0.203,6.835,3.891,6.729,7.779C1144.167,55.966,1141.314,59.011,1137.604,58.985z"/>
	<path fill-rule="evenodd" clip-rule="evenodd" fill="#8D77D8" d="M719.582,55.022c-3.799-0.04-7.454-3.607-7.347-7.172
		c0.109-3.618,3.792-6.917,7.662-6.864c4.128,0.059,7.196,2.833,7.247,6.554C727.199,51.519,723.615,55.064,719.582,55.022z"/>
	<path fill-rule="evenodd" clip-rule="evenodd" fill="#8D77D8" d="M1674.91,16.02c3.844,0.022,7.312,3.501,7.328,7.354
		c0.014,3.197-4.274,7.286-7.668,7.312c-3.777,0.029-7.322-3.671-7.163-7.479C1667.567,19.367,1671.085,15.998,1674.91,16.02z"/>
	<path fill-rule="evenodd" clip-rule="evenodd" fill="#8D77D8" d="M1421.336,121.635c-0.037,3.791-3.594,7.427-7.168,7.328
		c-3.443-0.096-7.365-4.144-7.305-7.539c0.061-3.426,4.105-7.371,7.517-7.331C1417.988,114.135,1421.375,117.807,1421.336,121.635z"
		/>
	<path fill-rule="evenodd" clip-rule="evenodd" fill="#8D77D8" d="M1044.225,228.308c0.082-3.615,3.422-7.103,6.884-7.189
		c3.808-0.094,7.334,3.818,7.144,7.926c-0.165,3.555-3.723,7.019-7.132,6.942C1047.467,235.903,1044.139,232.195,1044.225,228.308z"
		/>
	<path fill-rule="evenodd" clip-rule="evenodd" fill="#8D77D8" d="M1872.68,50.985c3.899-0.064,7.598,3.252,7.684,6.891
		c0.084,3.615-3.525,7.012-7.586,7.14c-3.459,0.108-7.132-3.31-7.288-6.783C1865.316,54.377,1868.614,51.053,1872.68,50.985z"/>
	<path fill-rule="evenodd" clip-rule="evenodd" fill="#8D77D8" d="M547.402,362.091c-3.793-0.078-7.451-3.811-7.212-7.359
		c0.249-3.691,3.981-6.84,7.902-6.668c3.546,0.156,7.028,3.709,6.965,7.107C554.989,358.805,551.266,362.171,547.402,362.091z"/>
	<path fill-rule="evenodd" clip-rule="evenodd" fill="#8D77D8" d="M80.096,72.036c-4.603-0.129-7.147-2.696-7.08-7.143
		c0.066-4.371,2.92-7.045,7.342-6.881c4.353,0.162,6.735,2.853,6.68,7.546C86.987,69.878,84.541,72.161,80.096,72.036z"/>
	<path fill-rule="evenodd" clip-rule="evenodd" fill="#8D77D8" d="M1673.406,235.571c0.032,4.657-2.368,7.343-6.687,7.483
		c-3.831,0.125-7.326-3.233-7.338-7.05c-0.014-4.357,2.6-6.89,7.193-6.972C1671.035,228.952,1673.376,231.193,1673.406,235.571z"/>
	<path fill-rule="evenodd" clip-rule="evenodd" fill="#9994A6" d="M761.224,578.198c1.341,1.453,3.107,0.908,4.703,0.911
		c14.781,0.025,29.562-0.004,44.342-0.017c0.704-0.522,1.328-0.464,1.857,0.26c-1.101,1.029-2.478,0.772-3.78,0.771
		c-17.076-0.013-34.152-0.042-51.229-0.067C758.486,579.438,759.854,578.818,761.224,578.198z"/>
	<path fill-rule="evenodd" clip-rule="evenodd" fill="#938FA2" d="M1108.043,579.004c14.329,0.043,28.657,0.086,42.986,0.125
		c1.163,0.004,2.36,0.1,3.202-0.967c1.36,0.624,2.723,1.247,4.084,1.869c-16.102,0.033-32.201,0.071-48.303,0.092
		c-1.297,0.001-2.69,0.281-3.731-0.871C1106.794,578.636,1107.385,578.582,1108.043,579.004z"/>
	<path fill-rule="evenodd" clip-rule="evenodd" fill="#8B75D6" d="M1305.627,278.212c2.09,0.249,3.461,1.498,3.572,3.763
		c0.101,2.069-1.131,3.606-3.091,3.821c-2.176,0.239-3.71-0.83-3.85-3.378C1302.127,280.02,1303.159,278.707,1305.627,278.212z"/>
	<path fill-rule="evenodd" clip-rule="evenodd" fill="#8C76D7" d="M1205.978,155.05c2.529,0.073,3.396,1.547,3.271,3.868
		c-0.123,2.25-1.431,3.149-3.55,3.094c-2.597-0.068-3.265-1.912-3.315-3.98C1202.326,155.71,1203.92,155.016,1205.978,155.05z"/>
	<path fill-rule="evenodd" clip-rule="evenodd" fill="#8D77D8" d="M1590.496,368.797c-2.123-0.291-3.701-1.491-3.746-3.73
		c-0.04-2.015,1.436-3.484,3.39-3.588c2.244-0.12,3.781,1.408,3.837,3.628C1594.027,367.123,1592.532,368.29,1590.496,368.797z"/>
	<path fill-rule="evenodd" clip-rule="evenodd" fill="#8C76D7" d="M1527.294,540.644c0.011,2.42-1.183,3.447-3.376,3.469
		c-2.146,0.021-3.46-0.885-3.546-3.166c-0.078-2.059,0.531-3.685,2.903-3.728C1525.618,537.175,1526.805,538.646,1527.294,540.644z"
		/>
	<path fill-rule="evenodd" clip-rule="evenodd" fill="#8D76D7" d="M1309.234,88.454c-0.455,2.019-1.655,3.479-3.991,3.469
		c-2.378-0.012-3.001-1.625-2.938-3.7c0.068-2.288,1.338-3.215,3.508-3.201C1308,85.035,1309.234,86.01,1309.234,88.454z"/>
	<path fill-rule="evenodd" clip-rule="evenodd" fill="#8C76D7" d="M82.476,540.599c-1.889-0.488-3.482-1.28-3.387-3.554
		c0.086-2.057,1.297-3.593,3.255-3.672c2.269-0.091,3.533,1.554,3.596,3.806C86.004,539.454,84.326,540.167,82.476,540.599z"/>
	<path fill-rule="evenodd" clip-rule="evenodd" fill="#8C75D7" d="M1259.226,555.739c0.049,2.467-1.399,3.685-3.309,3.739
		c-2.186,0.061-3.605-1.25-3.651-3.706c-0.037-2.046,1.097-3.259,2.884-3.249C1257.191,552.535,1258.938,553.531,1259.226,555.739z"
		/>
	<path fill-rule="evenodd" clip-rule="evenodd" fill="#8C76D7" d="M126.007,29.518c0.07,2.99-0.76,4.329-3.102,4.483
		c-2.34,0.154-3.548-1.202-3.637-3.198c-0.105-2.36,1.523-3.624,3.812-3.693C125.178,27.045,125.947,28.453,126.007,29.518z"/>
	<path fill-rule="evenodd" clip-rule="evenodd" fill="#8C76D7" d="M257.761,373.374c1.974,0.322,3.164,1.558,3.23,3.594
		c0.066,2.037-1.022,3.705-3.083,3.695c-1.794-0.008-3.526-1.016-3.759-3.205C253.879,374.919,255.754,374.125,257.761,373.374z"/>
	<path fill-rule="evenodd" clip-rule="evenodd" fill="#8B75D6" d="M1865.488,194.269c2.198,0.697,3.732,1.873,3.563,3.914
		c-0.182,2.178-1.707,3.706-4.007,3.469c-1.702-0.177-3.218-1.368-2.99-3.318C1862.295,196.259,1863.608,194.797,1865.488,194.269z"
		/>
	<path fill-rule="evenodd" clip-rule="evenodd" fill="#8B75D6" d="M1717.07,88.302c1.992,0.313,3.181,1.554,3.252,3.588
		c0.071,2.036-1.016,3.706-3.078,3.703c-1.796-0.003-3.533-1.002-3.769-3.194C1713.203,89.861,1715.079,89.063,1717.07,88.302z"/>
	<path fill-rule="evenodd" clip-rule="evenodd" fill="#8C76D7" d="M1475.343,44.442c0.214,2.042-1.211,3.182-3.209,3.339
		c-2.145,0.169-3.397-1.335-3.669-3.329c-0.308-2.271,0.98-3.379,3.224-3.441C1473.853,40.952,1475.214,41.811,1475.343,44.442z"/>
	<path fill-rule="evenodd" clip-rule="evenodd" fill="#8C76D7" d="M862.161,247.856c-0.049,2.463-1.601,3.583-3.466,3.582
		c-1.867-0.003-3.525-1.135-3.414-3.396c0.109-2.23,1.367-3.879,3.661-3.728C860.91,244.443,861.986,246.021,862.161,247.856z"/>
	<path fill-rule="evenodd" clip-rule="evenodd" fill="#8C76D7" d="M140.739,232.159c2.071,0.691,3.452,1.988,3.203,4.292
		c-0.232,2.152-1.83,3.173-3.802,2.922c-1.955-0.249-3.338-1.545-3.015-3.751C137.415,233.649,138.677,232.462,140.739,232.159z"/>
	<path fill-rule="evenodd" clip-rule="evenodd" fill="#8C76D7" d="M660.056,194.514c-0.454,1.965-1.602,3.251-3.628,3.447
		c-2.234,0.215-3.503-1.244-3.613-3.172c-0.124-2.185,1.093-3.812,3.572-3.671C658.436,191.235,659.56,192.575,660.056,194.514z"/>
	<path fill-rule="evenodd" clip-rule="evenodd" fill="#8C76D7" d="M235.007,115.272c-0.454,2.163-1.12,3.778-3.508,3.747
		c-2.223-0.03-3.409-1.078-3.435-3.35c-0.024-2.148,0.784-3.62,3.15-3.565C233.373,112.154,234.355,113.646,235.007,115.272z"/>
	<path fill-rule="evenodd" clip-rule="evenodd" fill="#8C76D7" d="M910.655,102.96c-2.437,0.096-3.655-1.291-3.793-3.22
		c-0.138-1.935,0.92-3.553,3.125-3.642c2.281-0.092,3.93,1.209,3.999,3.424C914.047,101.523,912.433,102.618,910.655,102.96z"/>
	<path fill-rule="evenodd" clip-rule="evenodd" fill="#8C76D7" d="M1673.925,381.049c-2.134-0.7-3.45-1.844-3.458-3.939
		c-0.01-2.356,1.516-3.075,3.61-3.027c2.227,0.052,3.427,1.167,3.208,3.408C1677.083,379.571,1675.607,380.525,1673.925,381.049z"/>
	<path fill-rule="evenodd" clip-rule="evenodd" fill="#8C76D7" d="M471.739,55.03c-1.313-0.063-3.059-0.09-3.092-1.625
		c-0.043-2.022,2.063-1.751,3.315-1.708c1.105,0.037,2.991,0.057,2.861,1.872C474.692,55.409,472.939,54.865,471.739,55.03z"/>
	<path fill-rule="evenodd" clip-rule="evenodd" fill="#EAE7F5" d="M1324.207,491.963c0.401,0.406,0.803,0.813,1.204,1.22
		c-2.344,3.163-5.772,4.512-9.615,5.33C1318.672,496.391,1321.588,494.355,1324.207,491.963z"/>
	<path fill-rule="evenodd" clip-rule="evenodd" fill="#565656" d="M853.76,599.068c0.721-6.655,1.442-13.31,2.162-19.965
		c-2.086-3.883,0.272-7.784-0.061-11.673c2.224-15.824,3.439-31.774,5.781-47.587c2.275-15.359,8.367-29.039,18.285-40.998
		c0.966-1.165,1.692-2.468,2.396-3.787c7.835-7.549,16.234-14.368,25.79-19.686c1.359-0.757,2.912-0.48,4.244-1.151
		c14.601-6.05,29.462-10.75,45.588-10.157c13.381,0.492,26.173,3.299,38.449,8.576c1.511,0.649,2.896,1.668,4.678,1.385
		c6.983,2.667,13.002,6.924,18.748,11.576c2.038,1.65,4.05,3.343,6.093,5.001c0.575,0.527,1.077,1.113,1.515,1.761
		c9.725,10.053,17.048,21.555,21.223,34.976c3.128,10.061,3.932,20.49,4.982,30.881c0.949,9.397,1.675,18.816,2.943,28.182
		c-0.434,4.211,2.058,8.438-0.061,12.638c0.627,6.711,1.255,13.422,1.883,20.134c3.569,4.925,2.027,10.858,3.1,16.278
		c0.662,3.349,0.729,6.865,1.109,10.301c1.949,21.045,4.298,42.052,6.303,63.093c2.043,21.426-3.453,40.896-15.38,58.632
		c-3.318,4.935-6.445,10.167-12.258,12.752c-4.248,2.384-8.545,0.19-12.658-0.273c-17.558-1.979-35.051-4.531-52.568-6.873
		c-1.683-1.954-1.497-4.352-1.499-6.663c-0.034-42.801-0.034-85.601-0.005-128.401c0.002-2.159-0.051-4.347,1.005-6.343
		c2.33-2.75,5.775-2.239,8.783-2.789c3.58-0.654,5.222-2.539,5.263-6.062c0.107-9.15,0.107-18.3,0.002-27.449
		c-0.041-3.568-1.979-5.465-5.326-6.191c-1.803-0.392-3.626-0.479-5.458-0.48c-15.97-0.02-31.941-0.06-47.913,0.013
		c-9.271,0.042-11.075,1.911-11.116,11.133c-0.029,6.488-0.045,12.977,0.005,19.465c0.062,7.892,1.74,9.658,9.516,10.247
		c2.29,0.174,4.728-0.092,6.471,1.951c1.076,1.802,1.109,3.812,1.111,5.803c0.048,41.859,0.042,83.72,0.001,125.578
		c-0.002,2.147,0.09,4.355-1.43,6.17c-25.055-1.142-50.079-0.053-75.102,1.054c-7.038-5.313-9.674-13.389-12.796-21.022
		c-6.812-16.652-7.465-33.946-4.412-51.494c0.458-2.634,0.556-5.295,0.879-7.94c2.543-21.568,4.919-43.152,7.524-64.71
		C851.809,602.795,851.987,600.641,853.76,599.068z"/>
	<path fill-rule="evenodd" clip-rule="evenodd" fill="#6A53B8" d="M1041.272,760.231c10.226-10.7,18.168-22.744,22.537-37.054
		c4.188-13.717,5.158-27.475,2.887-41.703c-1.771-11.097-2.364-22.382-3.437-33.588c-0.693-7.247-1.308-14.501-1.957-21.752
		c1.791-2.003,4.287-2.454,6.719-2.98c34.954-7.581,69.898-15.208,105.016-22.01c5.375-1.041,10.824-1.661,16.343-1.513
		c13.267,0.358,26.552-0.609,39.811,0.513c0.04,53.987,0.076,107.975,0.127,161.963c0.005,5.663,0.095,11.326,0.147,16.99
		c-5.774-1.89-11.854-1.158-17.749-1.678c-19.597-1.727-39.214-3.233-58.797-5.175c-15.63-1.55-31.31-2.575-46.939-4.122
		c-18.247-1.805-36.459-3.959-54.695-5.871C1047.863,761.894,1044.266,762.63,1041.272,760.231z"/>
	<path fill-rule="evenodd" clip-rule="evenodd" fill="#6A53B8" d="M845.209,670.153c-0.681,7.073-1.37,14.146-2.042,21.219
		c-1.43,15.055,2.043,29.183,8.041,42.852c2.473,5.638,5.973,10.668,9.144,15.896c-18.283,1.393-36.608,2.085-54.881,3.805
		c-10.18,0.957-20.462,1.158-30.653,2.272c-13.287,1.454-26.65,1.97-39.927,3.697c-7.668,0.998-15.454,1.278-23.181,2.081
		c-10.184,1.058-20.435,1.468-30.658,2.156c-1.708-1.928-1.565-4.318-1.568-6.63c-0.038-29.933-0.035-59.865-0.005-89.799
		c0.002-1.992-0.018-4.003,0.86-5.868c2.117-2.622,4.589-1.08,6.837-0.404c16.101,4.842,32.153,9.776,48.611,13.404
		c15.017,3.312,30.031,3.177,45.188,2.17c19.464-1.293,38.688-4.398,57.949-7.267C840.994,669.43,843.207,668.691,845.209,670.153z"
		/>
	<path fill-rule="evenodd" clip-rule="evenodd" fill="#ACACAC" d="M935.455,749.065c-0.026-43.808-0.051-87.614-0.086-131.421
		c-0.002-2.162-0.092-4.325-0.141-6.488c0.23-0.221,0.46-0.44,0.688-0.663c2.69-1.252,5.567-0.822,8.349-0.734
		c10.424,0.331,20.886-0.937,31.279,0.704c0.234,0.217,0.466,0.438,0.697,0.656c-0.042,41.157-0.082,82.314-0.129,123.471
		c-0.007,6.166-0.043,12.33-0.066,18.495C962.561,751.294,949.071,749.538,935.455,749.065z"/>
	<path fill-rule="evenodd" clip-rule="evenodd" fill="#959595" d="M681.153,661.148c-0.033,34.327-0.065,68.655-0.099,102.982
		c-6.894,1.385-13.89,1.702-20.884,2.035c-0.055-37.352-0.11-74.703-0.165-112.054c-1.322-2.237-1.545-4.692-1.542-7.228
		c0.012-13.656-0.021-27.314,0.03-40.972c0.009-2.304-0.218-4.713,1.523-6.643c7.072-0.009,14.145-0.018,21.216-0.026
		c1.647,1.738,1.576,3.949,1.583,6.092c0.056,16.577,0.058,33.155,0.002,49.733C682.808,657.229,682.76,659.41,681.153,661.148z"/>
	<path fill-rule="evenodd" clip-rule="evenodd" fill="#7159C0" d="M660.015,599.271c-0.003,18.28-0.005,36.562-0.009,54.843
		c-22.145-8.097-44.232-16.351-66.446-24.248c-26.449-9.402-52.59-19.673-79.358-28.171c-2.958-0.938-6.007-1.593-9.013-2.377
		C556.798,599.303,608.406,599.286,660.015,599.271z"/>
	<path fill-rule="evenodd" clip-rule="evenodd" fill="#8C76D7" d="M337.386,577.024c-2.005-0.499-3.451-1.355-3.304-3.713
		c0.144-2.313,1.43-3.217,3.604-3.177c2.24,0.041,3.528,1.141,3.276,3.41C340.736,575.577,339.427,576.775,337.386,577.024z"/>
	<path fill-rule="evenodd" clip-rule="evenodd" fill="#292929" d="M912.357,454.223c-10.681,5.577-19.641,13.565-29.127,20.815
		c-2.202,4.02-6.382,5.71-9.847,8.186c-10.938,7.817-21.956,15.524-32.958,23.25c-1.212,0.852-2.33,2.617-4.29,1.364
		c-1.809-1.297-3.879-0.693-5.821-0.694c-55.31-0.035-110.62-0.102-165.929,0.094c-5.102,0.019-6.352-1.31-6.331-6.36
		c0.199-48.811,0.119-97.624,0.12-146.437c0-6.348,0.006-6.352,6.597-6.352c74.968-0.001,149.936,0,224.904-0.006
		c2.165,0,4.328-0.069,6.493-0.108c0-0.001,0.07,0.232,0.07,0.232c1.007,8.105,0.178,16.246,0.46,24.355
		c0.116,2.088-1.367,2.897-2.973,3.41c-7.039,2.25-10.708,7.42-10.792,14.404c-0.083,6.908,4.109,11.597,10.434,14.294
		c0.606,0.26,1.176,0.598,1.731,0.969c2.451,1.783,1.332,4.41,1.595,6.712c0.216,1.89-0.496,3.859,0.48,5.685
		c0.327,1.385,0.654,2.77,0.981,4.155c-0.737,1.958-0.719,3.919-0.009,5.879c2.256,6.32,3.872,12.912,7.45,18.681
		C907.375,449.62,908.581,453.118,912.357,454.223z"/>
	<path fill-rule="evenodd" clip-rule="evenodd" fill="#A1C9E2" d="M1014.237,348.032c78.617,0.016,157.233,0.064,235.851-0.045
		c4.16-0.006,5.552,0.662,5.532,5.288c-0.205,49.468-0.206,98.938-0.002,148.406c0.02,4.782-1.485,5.538-5.79,5.527
		c-54.133-0.14-108.266-0.094-162.397-0.085c-1.997,0-3.993,0.097-5.99,0.148c-1.427,0.686-2.636-0.001-3.709-0.763
		c-7.331-5.209-14.897-10.092-22.03-15.57c-1.372-1.054-5.146-2.59-0.818-4.983c2.796-0.713,5.64-0.496,8.463-0.497
		c43.467-0.016,86.934-0.01,130.399-0.011c1.666,0,3.331,0.01,4.997-0.005c9.197-0.078,10.84-1.629,10.852-10.757
		c0.043-31.975,0.045-63.951-0.001-95.926c-0.013-8.805-1.255-9.998-10.231-10.001c-54.292-0.021-108.584-0.023-162.875,0.003
		c-8.19,0.004-8.3,0.15-10.22,8.192c-0.891,2.01-2.485,1.987-4.105,1.189c-2.64-1.299-5.646-1.888-7.879-3.989
		C1014.268,365.446,1014.253,356.739,1014.237,348.032z"/>
	<path fill-rule="evenodd" clip-rule="evenodd" fill="#A2C9E2" d="M1024.99,471.342c-7.329-6.661-15.943-11.546-23.918-17.313
		c9.406-12.187,13.184-26.138,13.014-41.345c-0.023-2.149,0.187-4.303,0.289-6.453c2.553-2.17,5.955-2.503,8.803-4.056
		c1.337-0.73,2.522-0.36,3.095,1.229c0.534,1.429,0.606,2.921,0.612,4.411c0.059,19.208,0.07,38.415-0.018,57.622
		C1026.857,467.552,1026.986,469.812,1024.99,471.342z"/>
	<path fill-rule="evenodd" clip-rule="evenodd" fill="#F6AA7E" d="M894.209,406.248c-8.465-3.06-13.067-9.019-12.695-16.438
		c0.407-8.146,5.319-13.416,14.684-15.76c0.498-0.52,0.782-0.421,0.853,0.296c0.004,10.5,0.008,21.001,0.011,31.503
		C896.26,407.046,895.224,406.572,894.209,406.248z"/>
	<path fill-rule="evenodd" clip-rule="evenodd" fill="#F8AB7F" d="M1025.022,402.134c-3.158,2.383-6.476,4.349-10.647,4.096
		c-0.031-10.692-0.062-21.384-0.093-32.077c4.099-0.033,7.313,2.231,10.675,4.111
		C1032.871,383.698,1032.909,397.509,1025.022,402.134z"/>
	<path fill-rule="evenodd" clip-rule="evenodd" fill="#433B36" d="M897.051,374.347c-0.312-0.021-0.595-0.12-0.853-0.296
		c0.014-8.615,0.026-17.231,0.04-25.846c1.974,3.752,0.751,7.777,0.907,11.665C897.339,364.687,897.102,369.521,897.051,374.347z"/>
	<path fill-rule="evenodd" clip-rule="evenodd" fill="#443B36" d="M894.209,406.248c0.951-0.132,1.902-0.265,2.852-0.398
		c0.037,4.063,0.074,8.125,0.111,12.188c-1.81-1.992-0.838-4.413-0.901-6.625C896.213,409.349,896.136,407.482,894.209,406.248z"/>
	<path fill-rule="evenodd" clip-rule="evenodd" fill="#4C4138" d="M898.145,428.071c-1.435-1.962-1.501-3.924,0.009-5.881
		C898.151,424.151,898.148,426.112,898.145,428.071z"/>
	<path fill-rule="evenodd" clip-rule="evenodd" fill="#7159C0" d="M1229.19,600.145c-4.831-0.002-9.688,0.309-14.491-0.059
		c-22.656-1.735-44.56,2.779-66.475,7.534c-28.951,6.281-57.947,12.354-86.922,18.515c-0.97-8.987-1.938-17.975-2.905-26.961
		c56.932,0.019,113.863,0.036,170.795,0.054C1229.237,599.534,1229.237,599.839,1229.19,600.145z"/>
	<path fill-rule="evenodd" clip-rule="evenodd" fill="#FAC29C" d="M1056.516,579.042c-0.655-4.272-1.541-8.521-1.249-12.886
		c1.999-1.653,4.124-0.673,6.19-0.249c10.261,2.101,20.539,4.119,30.75,6.452c6.264,1.432,12.475,1.936,18.687-0.221
		c1.092-0.379,2.25-0.646,3.401-0.111c0.015,4.205-4.447,4.4-6.251,6.978c-0.589,0.081-1.176,0.163-1.763,0.246
		c-8.324,3.527-17.051,1.915-25.568,1.589C1072.65,580.532,1064.628,579.084,1056.516,579.042z"/>
	<path fill-rule="evenodd" clip-rule="evenodd" fill="#7159C0" d="M681.153,661.148c0.026-20.636,0.052-41.271,0.078-61.905
		c55.353-0.012,110.705-0.023,166.058-0.044c2.159-0.001,4.318-0.087,6.474-0.132c-1.869,16.313-3.692,32.633-5.618,48.939
		c-0.874,7.396-1.951,14.766-2.936,22.146c-12.735,1.989-25.431,4.301-38.217,5.888c-16.951,2.104-33.96,3.731-51.101,3.135
		c-13.544-0.472-26.491-4.086-39.437-7.505C704.589,668.535,692.913,664.684,681.153,661.148z"/>
	<path fill-rule="evenodd" clip-rule="evenodd" fill="#FAC29C" d="M857.144,567.225c0.321,4.034-0.73,7.928-1.221,11.878
		c-11.359,1.181-22.715,2.311-34.166,2.147c-3.376-0.048-6.599-0.352-9.631-1.899c-0.62-0.085-1.239-0.171-1.858-0.258
		c-2.919-2.417-7.062-3.584-8.102-7.924c1.15-0.634,2.306-0.324,3.358,0.151c6.557,2.96,13.21,2.55,20.026,0.988
		c8.425-1.931,16.88-3.753,25.386-5.303C852.98,566.633,855.134,565.601,857.144,567.225z"/>
	<path fill-rule="evenodd" clip-rule="evenodd" fill="#7159C0" d="M857.144,567.225c-12.136,2.525-24.263,5.096-36.411,7.559
		c-6.651,1.348-12.801-0.233-18.567-3.614c-8.19-5.938-11.092-14.1-10.056-23.915c1.475-6.982,5.325-12.242,11.159-16.353
		c5.376-3.788,11.124-7.09,15.934-11.656c6.088-3.143,11.31-7.57,16.931-11.406c15.699-10.934,31.397-21.867,47.096-32.8
		c0.629,2.338-1.342,3.462-2.463,4.839c-11.038,13.553-16.794,29.143-18.62,46.424C860.702,539.967,858.828,553.586,857.144,567.225
		z"/>
	<path fill-rule="evenodd" clip-rule="evenodd" fill="#7159C0" d="M1114.295,572.027c-9.217,5.487-18.598,2.491-27.962,0.547
		c-10.353-2.15-20.71-4.279-31.067-6.418c-1.012-9.029-2.34-18.037-2.975-27.094c-1.467-20.976-5.387-41.032-18.996-58.035
		c-2.37-2.959-5.707-5.115-7.249-8.747c1.33-1.648,3.093-1.201,4.511-0.515c8.294,4.016,16.104,8.773,22.529,15.519
		c9.102,7.16,18.701,13.61,28.354,19.986c5.679,4.009,11.358,8.019,17.038,12.03c4.421,3.179,8.656,6.665,13.304,9.468
		c7.473,4.507,12.353,10.762,14.601,19.14C1126.581,558.066,1123.173,566.418,1114.295,572.027z"/>
	<path fill-rule="evenodd" clip-rule="evenodd" fill="#6F58BD" d="M1346.562,553.475c0-7.499-0.063-13.722,0.021-19.943
		c0.06-4.332,2.149-5.327,8.658-4.697c4.016,0.389,4.599,3.108,3.859,6.024C1357.271,542.08,1352.771,547.609,1346.562,553.475z"/>
	<path fill-rule="evenodd" clip-rule="evenodd" fill="#EDEDED" d="M1320.23,539.932c0.662-2.565,5.089-1.248,4.996-4.793
		c-0.006-0.236,1.646-0.053,1.947,1.235c0.295,1.255-0.954,3.016,1.123,3.728c1.189,1.354,1.19,2.709-0.005,4.061
		c-2.643,2.26-5.306,3.52-8.066,0.169C1319,542.863,1319.004,541.396,1320.23,539.932z"/>
	<path fill-rule="evenodd" clip-rule="evenodd" fill="#F0F0F0" d="M1311.466,544.141c-2.243,2.335-4.891,3.217-7.274,0.656
		c-2.104-2.261-1.996-5.356-0.163-7.727c2.172-2.808,4.855-2.069,7.275,0.05c1.414,4.627-3.678,1.011-4.18,3.747
		C1307.094,543.362,1312.979,539.517,1311.466,544.141z"/>
	<path fill-rule="evenodd" clip-rule="evenodd" fill="#E9E9E9" d="M1328.292,544.162c0.002-1.354,0.003-2.707,0.005-4.061
		c1.551-2.389,3.46-2.733,5.747-1.021c2.818,2.108,0.441,5.171-0.242,6.17C1332.44,547.243,1329.773,546.619,1328.292,544.162z"/>
	<path fill-rule="evenodd" clip-rule="evenodd" fill="#F0F0F0" d="M1320.23,539.932c-0.001,1.466-0.003,2.933-0.005,4.399
		c-2.738,1.467-5.488,3.449-8.106-0.189c-0.289-1.573-1.328-3.199,0.318-4.639C1315.192,536.794,1317.687,538.806,1320.23,539.932z"
		/>
	<path fill-rule="evenodd" clip-rule="evenodd" fill="#373737" d="M1312.438,539.503c-0.106,1.546-0.213,3.093-0.318,4.639
		l-0.327,0.013l-0.326-0.014c-0.164-2.126-1.18-2.092-2.484-0.902c-1.23,1.122-2.445,1.213-3.181-0.292
		c-0.72-1.472-0.836-3.193,0.219-4.633c0.866-1.183,1.854-0.893,2.893,0.005c1.614,1.392,2.636,1.282,2.392-1.198
		C1312.198,537.669,1312.387,538.552,1312.438,539.503z"/>
	<path fill-rule="evenodd" clip-rule="evenodd" fill="#F9F9F9" d="M1053.086,487.285c-5.221-3.515-10.412-7.075-15.672-10.531
		c-3.461-2.274-6.935-4.619-11.366-4.473c-0.354-0.313-0.705-0.626-1.058-0.939c0.012-23.07,0.023-46.14,0.034-69.209
		c6.194-8.64,6.181-13.714-0.065-23.87c0.644-11.24,0.644-11.24,11.833-11.24c54.472-0.001,108.943-0.001,163.415,0
		c9.891,0,11.021,1.157,11.021,11.25c0,32.816,0.004,65.632-0.002,98.448c-0.002,8.243-2.121,10.387-10.228,10.388
		c-47.142,0.002-94.283-0.001-141.426,0.009C1057.411,487.119,1055.248,487.227,1053.086,487.285z"/>
	<path fill-rule="evenodd" clip-rule="evenodd" d="M935.229,611.156c-2.994-0.086-5.993-0.086-8.98-0.275
		c-5.726-0.361-7.758-2.414-7.811-8.108c-0.085-9.001-0.072-18.002-0.007-27.002c0.044-6.029,2.011-8.175,8.068-8.36
		c6.661-0.204,13.332-0.056,20-0.057c11.667-0.002,23.335-0.051,35.002,0.018c8.034,0.047,9.635,1.731,9.639,9.69
		c0.003,8.167,0.007,16.334-0.001,24.501c-0.008,7.531-0.567,8.198-7.933,9.062c-2.309,0.271-4.642,0.337-6.964,0.495l-0.394-0.08
		c-13.404-0.646-26.806-0.761-40.207,0.053L935.229,611.156z"/>
	<path fill-rule="evenodd" clip-rule="evenodd" fill="#8C76D7" d="M1194.752,625.426c-0.367,1.952-1.075,3.612-3.321,3.643
		c-2.279,0.031-3.916-1.265-3.918-3.497c-0.002-1.97,1.532-3.199,3.577-3.359C1193.379,622.031,1194.166,623.648,1194.752,625.426z"
		/>
	<path fill-rule="evenodd" clip-rule="evenodd" fill="#634EB0" d="M935.642,611.092c2.95-1.601,6.139-0.719,9.173-0.654
		c10.346,0.221,20.723-0.924,31.038,0.604C962.445,611.057,949.043,611.074,935.642,611.092z"/>
	<path fill-rule="evenodd" clip-rule="evenodd" fill="#747474" d="M805.426,441.086c15.991,0,31.982-0.036,47.971,0.059
		c1.549,0.009,4.322-1.184,4.376,1.63c0.058,3.019-2.82,2.181-4.63,2.184c-32.147,0.046-64.295,0.049-96.442-0.014
		c-1.581-0.003-4.276,1.046-4.319-1.808c-0.05-3.342,2.933-1.973,4.574-1.984C773.111,441.043,789.269,441.086,805.426,441.086z"/>
	<path fill-rule="evenodd" clip-rule="evenodd" fill="#737373" d="M793.437,401.036c15.816-0.001,31.631-0.051,47.446,0.073
		c1.661,0.014,4.706-1.427,4.799,1.69c0.088,2.957-2.869,2.106-4.678,2.108c-32.13,0.047-64.26,0.049-96.391-0.009
		c-1.59-0.003-4.215,0.99-4.286-1.877c-0.074-2.988,2.61-1.928,4.166-1.936C760.807,401.005,777.122,401.036,793.437,401.036z"/>
	<path fill-rule="evenodd" clip-rule="evenodd" fill="#737373" d="M755.488,465.111c10.152,0,20.305-0.04,30.456,0.045
		c1.427,0.012,3.801-0.958,3.878,1.694c0.071,2.403-2.084,2.163-3.709,2.164c-20.637,0.019-41.274,0.018-61.911,0.004
		c-1.653-0.001-3.787,0.15-3.632-2.242c0.167-2.578,2.523-1.609,3.963-1.621C734.851,465.072,745.17,465.111,755.488,465.111z"/>
	<path fill-rule="evenodd" clip-rule="evenodd" fill="#727272" d="M755.156,417.054c10.316,0.001,20.633-0.036,30.949,0.042
		c1.424,0.011,3.834-0.888,3.71,1.849c-0.106,2.349-2.277,2-3.877,2.001c-20.467,0.023-40.933,0.023-61.4,0.001
		c-1.596-0.002-3.859,0.389-3.936-1.916c-0.099-2.992,2.562-1.913,4.103-1.928C734.856,417.008,745.006,417.054,755.156,417.054z"/>
	<path fill-rule="evenodd" clip-rule="evenodd" fill="#747474" d="M774.195,453.002c-9.833,0-19.666,0.048-29.498-0.048
		c-1.591-0.016-4.195,1.051-4.371-1.787c-0.189-3.057,2.522-2.02,4.074-2.024c20.166-0.072,40.331-0.073,60.497,0.001
		c1.549,0.006,4.248-1.06,4.119,1.979c-0.122,2.875-2.737,1.816-4.322,1.831C794.528,453.048,784.361,453.002,774.195,453.002z"/>
	<path fill-rule="evenodd" clip-rule="evenodd" fill="#747474" d="M775.175,433.082c9.832,0,19.664-0.054,29.494,0.056
		c1.558,0.018,4.197-1.151,4.348,1.75c0.154,2.994-2.517,2.046-4.103,2.051c-20.164,0.063-40.326,0.063-60.49,0.001
		c-1.588-0.006-4.262,0.932-4.099-2.059c0.158-2.889,2.796-1.727,4.356-1.743C754.845,433.029,765.01,433.082,775.175,433.082z"/>
	<path fill-rule="evenodd" clip-rule="evenodd" fill="#727272" d="M774.641,388.914c-10.161,0-20.322,0.028-30.482-0.031
		c-1.497-0.009-3.751,0.713-3.862-1.852c-0.117-2.696,2.198-1.979,3.674-1.981c20.488-0.047,40.976-0.046,61.464-0.002
		c1.484,0.003,3.801-0.674,3.609,2.043c-0.18,2.542-2.427,1.781-3.919,1.79C794.963,388.943,784.802,388.914,774.641,388.914z"/>
	<path fill-rule="evenodd" clip-rule="evenodd" fill="#727272" d="M762.355,476.164c-10.162,0-20.323,0.028-30.484-0.031
		c-1.486-0.009-3.749,0.675-3.627-2.044c0.099-2.22,2.034-1.803,3.441-1.805c20.656-0.025,41.311-0.025,61.966,0
		c1.408,0.001,3.336-0.407,3.369,1.861c0.04,2.71-2.206,1.979-3.683,1.988C783.01,476.193,772.682,476.164,762.355,476.164z"/>
	<path fill-rule="evenodd" clip-rule="evenodd" fill="#727272" d="M774.251,484.177c-9.995,0-19.991,0.037-29.986-0.041
		c-1.459-0.012-3.819,0.875-3.955-1.684c-0.159-2.991,2.435-2.136,4.047-2.141c20.157-0.056,40.314-0.059,60.471,0.007
		c1.589,0.005,4.245-0.96,4.186,1.978c-0.059,2.928-2.716,1.813-4.277,1.829C794.576,484.227,784.413,484.177,774.251,484.177z"/>
	<path fill-rule="evenodd" clip-rule="evenodd" fill="#727272" d="M787.166,393.028c9.996,0,19.99-0.036,29.984,0.039
		c1.462,0.012,3.828-0.853,3.918,1.723c0.105,2.977-2.491,2.092-4.097,2.097c-20.156,0.059-40.312,0.061-60.468-0.005
		c-1.585-0.005-4.253,0.958-4.14-2.015c0.11-2.908,2.757-1.77,4.318-1.787C766.843,392.977,777.004,393.027,787.166,393.028z"/>
	<path fill-rule="evenodd" clip-rule="evenodd" fill="#737373" d="M762.663,425.068c10.163,0,20.327-0.034,30.489,0.039
		c1.455,0.011,3.746-0.856,3.857,1.792c0.112,2.667-2.152,2.04-3.661,2.042c-20.493,0.04-40.986,0.038-61.479,0.003
		c-1.532-0.003-3.79,0.539-3.617-2.104c0.17-2.6,2.463-1.722,3.921-1.733C742.336,425.033,752.5,425.068,762.663,425.068z"/>
	<path fill-rule="evenodd" clip-rule="evenodd" fill="#737373" d="M762.496,461.011c-10.165,0-20.331,0.027-30.496-0.029
		c-1.5-0.009-3.764,0.667-3.75-1.96c0.014-2.664,2.311-1.879,3.776-1.883c20.497-0.05,40.994-0.045,61.49-0.007
		c1.356,0.003,3.342-0.605,3.506,1.679c0.192,2.676-1.98,2.174-3.532,2.18C783.159,461.03,772.827,461.011,762.496,461.011z"/>
	<path fill-rule="evenodd" clip-rule="evenodd" fill="#787878" d="M755.14,372.249c-10.307,0-20.614,0.021-30.92-0.026
		c-1.365-0.006-3.501,0.608-3.57-1.55c-0.073-2.268,2.107-1.626,3.442-1.628c20.613-0.042,41.228-0.051,61.841,0.017
		c1.404,0.004,3.894-0.951,3.777,1.729c-0.093,2.114-2.3,1.42-3.649,1.428C775.754,372.274,765.447,372.249,755.14,372.249z"/>
	<path fill-rule="evenodd" clip-rule="evenodd" fill="#787878" d="M762.471,380.262c-10.169,0-20.338,0.025-30.506-0.031
		c-1.35-0.007-3.489,0.654-3.588-1.526c-0.107-2.348,2.107-1.64,3.416-1.643c20.504-0.05,41.009-0.05,61.513-0.002
		c1.329,0.003,3.572-0.716,3.568,1.482c-0.004,2.583-2.454,1.665-3.896,1.677C782.808,380.301,772.639,380.262,762.471,380.262z"/>
	<path fill-rule="evenodd" clip-rule="evenodd" fill="#727272" d="M751.135,409.043c5.999-0.001,11.998-0.059,17.995,0.041
		c1.431,0.023,3.79-0.875,3.695,1.888c-0.07,2.038-1.936,1.965-3.432,1.967c-12.663,0.017-25.327,0.02-37.99-0.003
		c-1.463-0.003-3.296,0.202-3.18-2.084c0.117-2.307,2.043-1.772,3.417-1.784C738.138,409.015,744.637,409.045,751.135,409.043z"/>
	<path fill-rule="evenodd" clip-rule="evenodd" fill="#6B55B5" d="M737.316,444.946c-2.484,0.006-4.969,0.005-7.454,0.006
		c-1.465,0.001-2.669-0.299-2.578-2.163c0.082-1.655,1.288-1.697,2.473-1.7c5.301-0.013,10.602-0.006,15.902,0
		c1.254,0.002,2.321,0.242,2.342,1.846c0.02,1.548-0.937,1.988-2.238,1.998C742.948,444.955,740.132,444.94,737.316,444.946z"/>
	<path fill-rule="evenodd" clip-rule="evenodd" fill="#6B55B4" d="M725.512,449.108c2.807-0.002,5.612-0.019,8.418,0.007
		c1.079,0.011,1.96,0.362,1.946,1.672c-0.012,1.141-0.607,2.02-1.717,2.037c-5.772,0.085-11.546,0.083-17.319,0.057
		c-1.229-0.006-1.637-0.873-1.625-2.014c0.013-1.265,0.758-1.738,1.879-1.748C719.9,449.096,722.706,449.11,725.512,449.108z"/>
	<path fill-rule="evenodd" clip-rule="evenodd" fill="#6B55B4" d="M725.259,436.936c-2.475,0.003-4.949,0.008-7.424,0.001
		c-1.424-0.004-2.675-0.207-2.621-2.101c0.046-1.642,1.171-1.755,2.382-1.757c5.279-0.009,10.559-0.017,15.838,0.001
		c1.162,0.004,2.451-0.005,2.437,1.68c-0.014,1.763-1.26,2.148-2.693,2.165C730.539,436.953,727.898,436.932,725.259,436.936z"/>
	<path fill-rule="evenodd" clip-rule="evenodd" fill="#6A54B3" d="M713.741,425.049c2.494,0,4.989-0.022,7.482,0.01
		c1.154,0.015,2.488-0.065,2.547,1.619c0.05,1.411-0.796,2.185-2.152,2.196c-5.486,0.043-10.974,0.042-16.46,0.021
		c-1.431-0.005-2.081-0.827-1.995-2.244c0.082-1.345,1.056-1.561,2.097-1.572c2.827-0.029,5.654-0.01,8.48-0.01
		C713.741,425.063,713.741,425.056,713.741,425.049z"/>
	<path fill-rule="evenodd" clip-rule="evenodd" fill="#6954B1" d="M725.879,401.03c2.666,0,5.333-0.022,7.998,0.011
		c1.064,0.014,2.004,0.312,2.01,1.651c0.005,1.173-0.648,2.027-1.749,2.042c-5.825,0.077-11.653,0.081-17.479,0.009
		c-1.256-0.015-1.514-1.12-1.431-2.19c0.103-1.331,1.12-1.504,2.152-1.514C720.213,401.012,723.046,401.029,725.879,401.03z"/>
	<path fill-rule="evenodd" clip-rule="evenodd" fill="#6954B1" d="M713.25,476.175c-2.66,0-5.32,0.021-7.979-0.01
		c-1.042-0.013-2.014-0.241-2.107-1.57c-0.1-1.42,0.577-2.241,1.995-2.247c5.485-0.024,10.97-0.024,16.455,0.025
		c1.333,0.013,2.217,0.758,2.163,2.185c-0.064,1.679-1.389,1.615-2.547,1.627c-2.659,0.031-5.319,0.01-7.979,0.01
		C713.25,476.189,713.25,476.183,713.25,476.175z"/>
	<path fill-rule="evenodd" clip-rule="evenodd" fill="#6953B0" d="M725.675,385.003c2.666-0.006,5.331-0.021,7.996,0.002
		c1.029,0.009,2.094,0.167,2.216,1.459c0.133,1.408-0.702,2.288-2.039,2.302c-5.661,0.062-11.323,0.042-16.985-0.006
		c-1.223-0.011-1.674-0.881-1.647-2.032c0.031-1.289,0.849-1.705,1.962-1.713C720.011,384.995,722.843,385.009,725.675,385.003z"/>
	<path fill-rule="evenodd" clip-rule="evenodd" fill="#6954B0" d="M725.164,484.204c-2.499-0.006-4.999,0.004-7.498-0.01
		c-1.21-0.007-2.385-0.085-2.452-1.745c-0.061-1.519,0.798-2.093,2.154-2.097c5.332-0.014,10.664-0.019,15.995,0.012
		c1.519,0.009,2.685,0.663,2.509,2.372c-0.165,1.61-1.574,1.45-2.71,1.463C730.497,484.232,727.83,484.21,725.164,484.204z"/>
	<path fill-rule="evenodd" clip-rule="evenodd" fill="#6954B1" d="M713.084,412.894c-2.494,0-4.987,0.012-7.481-0.005
		c-1.242-0.008-2.327-0.257-2.438-1.824c-0.112-1.58,0.832-2.017,2.158-2.02c5.485-0.009,10.971-0.016,16.457,0.005
		c1.075,0.003,2.007,0.342,1.999,1.659c-0.008,1.434-0.89,2.116-2.219,2.139c-2.825,0.051-5.651,0.016-8.477,0.016
		C713.084,412.874,713.084,412.884,713.084,412.894z"/>
	<path fill-rule="evenodd" clip-rule="evenodd" fill="#6C55B6" d="M713.168,460.95c-2.646,0.007-5.292,0.019-7.937,0.002
		c-1.403-0.009-2.132-0.702-2.059-2.153c0.064-1.279,0.894-1.664,1.991-1.666c5.457-0.011,10.913-0.011,16.37,0.006
		c1.361,0.004,2.237,0.631,2.116,2.099c-0.099,1.192-0.954,1.682-2.049,1.695C718.79,460.963,715.979,460.943,713.168,460.95z"/>
	<path fill-rule="evenodd" clip-rule="evenodd" fill="#6A54B2" d="M737.947,393.009c2.493-0.006,4.986-0.036,7.478,0.008
		c1.131,0.02,2.475-0.107,2.546,1.607c0.061,1.474-0.883,2.152-2.174,2.164c-5.482,0.05-10.965,0.052-16.446-0.019
		c-1.318-0.017-2.155-0.831-2.044-2.271c0.104-1.351,1.159-1.461,2.167-1.472C732.297,392.994,735.122,393.014,737.947,393.009z"/>
	<path fill-rule="evenodd" clip-rule="evenodd" fill="#6A54B2" d="M706.264,417.045c2.5,0.003,5-0.005,7.499,0.007
		c1.224,0.006,2.372,0.136,2.422,1.776c0.046,1.538-0.874,2.057-2.204,2.062c-5.165,0.02-10.331,0.021-15.496,0.004
		c-1.243-0.004-2.359-0.299-2.435-1.854c-0.098-2.004,1.371-1.972,2.717-1.989C701.265,417.019,703.764,417.042,706.264,417.045z"/>
	<path fill-rule="evenodd" clip-rule="evenodd" fill="#6C55B6" d="M706.115,468.972c-2.667-0.002-5.333,0.02-7.999-0.011
		c-1.4-0.016-2.165-0.738-2.064-2.19c0.09-1.286,1.001-1.622,2.08-1.625c5.333-0.017,10.666-0.017,15.998-0.003
		c1.088,0.003,1.966,0.348,2.042,1.647c0.084,1.454-0.635,2.171-2.058,2.179C711.448,468.985,708.781,468.974,706.115,468.972z"/>
	<path fill-rule="evenodd" clip-rule="evenodd" fill="#7159C0" d="M713.192,380.295c-2.654,0.001-5.307,0.021-7.959-0.009
		c-1.077-0.013-1.997-0.384-1.988-1.673c0.009-1.333,1.006-1.572,2.05-1.575c5.307-0.018,10.613-0.02,15.919,0.01
		c1.042,0.005,2.055,0.279,2.01,1.622c-0.043,1.283-1.025,1.596-2.072,1.61C718.498,380.318,715.845,380.293,713.192,380.295z"/>
	<path fill-rule="evenodd" clip-rule="evenodd" fill="#7159C0" d="M706.173,372.278c-2.651,0-5.303,0.023-7.954-0.012
		c-1.042-0.015-2.025-0.299-2.083-1.59c-0.06-1.348,0.934-1.639,1.981-1.644c5.303-0.029,10.606-0.027,15.91-0.009
		c1.036,0.004,2.041,0.229,2.069,1.559c0.028,1.298-0.894,1.67-1.969,1.684C711.477,372.302,708.825,372.278,706.173,372.278z"/>
	<path fill-rule="evenodd" clip-rule="evenodd" fill="#6B6B6B" d="M681.31,460.015c-1.512-0.374-4.153,0.827-4.02-2.142
		c0.13-2.892,2.729-1.772,4.29-1.781c1.539-0.009,4.243-1.086,4.121,1.872C685.594,460.571,683.065,459.789,681.31,460.015z"/>
	<path fill-rule="evenodd" clip-rule="evenodd" fill="#6B6B6B" d="M681.606,395.256c-1.561-0.52-4.202,0.987-4.317-1.939
		c-0.116-2.944,2.481-2,4.086-2.057c1.701-0.06,4.214-0.622,4.327,1.974C685.832,396.241,683.07,394.716,681.606,395.256z"/>
	<path fill-rule="evenodd" clip-rule="evenodd" fill="#6D6D6D" d="M681.301,403.186c-1.477-0.445-4.074,0.947-4.029-2.091
		c0.037-2.552,2.289-1.893,3.77-1.858c1.611,0.038,4.121-0.838,4.096,2.056C685.115,403.872,682.783,402.85,681.301,403.186z"/>
	<path fill-rule="evenodd" clip-rule="evenodd" fill="#6D6D6D" d="M680.969,452.043c-1.536-0.254-3.807,0.537-3.698-2.065
		c0.124-2.943,2.64-1.784,4.197-1.862c1.457-0.073,3.779-0.703,3.669,1.905C685.018,452.873,682.498,451.67,680.969,452.043z"/>
	<path fill-rule="evenodd" clip-rule="evenodd" fill="#6D6D6D" d="M681.534,440.048c1.562,0.257,3.883-0.497,3.605,2.153
		c-0.29,2.764-2.748,1.708-4.355,1.793c-1.513,0.08-3.767,0.521-3.509-2.103C677.557,439.017,680.083,440.534,681.534,440.048z"/>
	<path fill-rule="evenodd" clip-rule="evenodd" fill="#6D6D6D" d="M681.229,428.157c-1.514-0.402-4.113,0.866-3.958-2.193
		c0.129-2.551,2.394-1.766,3.857-1.753c1.61,0.015,4.143-0.82,4.008,2.125C685.021,428.869,682.701,427.814,681.229,428.157z"/>
	<path fill-rule="evenodd" clip-rule="evenodd" fill="#717171" d="M681.303,470.154c-1.718-0.361-4.014,0.624-4.017-1.981
		c-0.003-2.972,2.524-1.918,4.087-1.978c1.461-0.056,3.739-0.732,3.765,1.822C685.171,471.046,682.491,469.523,681.303,470.154z"/>
	<path fill-rule="evenodd" clip-rule="evenodd" fill="#717171" d="M681.154,432.091c1.559,0.366,4.147-0.777,3.971,2.212
		c-0.147,2.479-2.43,1.731-3.897,1.703c-1.576-0.03-4.122,0.919-3.949-2.113C677.424,431.319,679.721,432.455,681.154,432.091z"/>
	<path fill-rule="evenodd" clip-rule="evenodd" fill="#717171" d="M681.539,411.197c-1.673-0.51-4.254,0.892-4.252-2.117
		c0.001-2.577,2.266-1.899,3.731-1.857c1.591,0.046,4.092-0.9,4.117,1.997C685.159,411.871,682.75,410.67,681.539,411.197z"/>
	<path fill-rule="evenodd" clip-rule="evenodd" fill="#6D6D6D" d="M681.247,373.057c-1.526-0.367-4.087,0.818-3.978-2.191
		c0.095-2.603,2.392-1.765,3.83-1.739c1.572,0.028,4.143-0.946,4.037,2.044C685.047,373.675,682.763,372.773,681.247,373.057z"/>
	<path fill-rule="evenodd" clip-rule="evenodd" fill="#787878" d="M681.324,417.907c1.361,0.429,3.932-0.769,3.625,1.894
		c-0.263,2.273-2.656,1.255-4.121,1.322c-1.304,0.061-3.519,0.664-3.429-1.538C677.5,417.088,679.901,418.315,681.324,417.907z"/>
	<path fill-rule="evenodd" clip-rule="evenodd" fill="#787878" d="M680.933,383.82c1.639,0.507,4.174-0.708,4.043,1.846
		c-0.121,2.358-2.555,1.403-4.008,1.449c-1.302,0.042-3.472,0.748-3.552-1.408C677.312,382.95,679.91,384.574,680.933,383.82z"/>
	<path fill-rule="evenodd" clip-rule="evenodd" fill="#787878" d="M681.166,476.344c-1.377-0.429-3.835,0.813-3.747-1.831
		c0.072-2.16,2.257-1.433,3.554-1.392c1.449,0.047,3.889-0.929,4.005,1.441C685.104,477.093,682.581,475.938,681.166,476.344z"/>
	<path fill-rule="evenodd" clip-rule="evenodd" fill="#787878" d="M681.299,484.3c-1.415-0.414-3.825,0.819-3.898-1.704
		c-0.063-2.191,2.145-1.578,3.45-1.52c1.463,0.065,3.863-0.941,4.103,1.348C685.231,485.071,682.667,483.87,681.299,484.3z"/>
	<path fill-rule="evenodd" clip-rule="evenodd" fill="#787878" d="M681.114,379.273c-1.351-0.45-3.832,0.843-3.685-1.856
		c0.117-2.139,2.289-1.393,3.589-1.362c1.45,0.035,3.902-0.89,3.965,1.498C685.049,380.042,682.536,378.86,681.114,379.273z"/>
	<path fill-rule="evenodd" clip-rule="evenodd" fill="#383838" d="M1324.458,542.246c-0.193,0.693,0.089,1.798-1.142,1.676
		c-1.059-0.104-1.038-1.071-1.016-1.855c0.023-0.791,0.07-1.794,1.183-1.7C1324.554,540.457,1324.334,541.492,1324.458,542.246z"/>
	<path fill-rule="evenodd" clip-rule="evenodd" fill="#5C5C5C" d="M1315.61,540.187c1.021,0.048,1.407,0.781,1.533,1.6
		c0.161,1.039-0.085,2.092-1.276,2.289c-0.97,0.16-1.426-0.674-1.512-1.536C1314.252,541.516,1314.42,540.553,1315.61,540.187z"/>
	<path fill-rule="evenodd" clip-rule="evenodd" fill="#A2CAE2" d="M1162.485,454.118c-7.812,0-15.624-0.085-23.433,0.046
		c-2.782,0.046-3.823-0.878-3.795-3.72c0.027-2.714,1.19-3.362,3.641-3.352c15.954,0.065,31.91,0.072,47.865-0.004
		c2.564-0.013,3.482,0.861,3.538,3.456c0.064,2.951-1.207,3.655-3.883,3.616C1178.442,454.044,1170.464,454.118,1162.485,454.118z"
		/>
	<path fill-rule="evenodd" clip-rule="evenodd" fill="#A9CDE4" d="M1113.046,438.213c-6.167,0-12.333-0.024-18.499,0.013
		c-2.3,0.014-4.348,0.081-4.275-3.242c0.061-2.821,1.288-3.825,3.973-3.814c12.499,0.049,24.998,0.059,37.497-0.011
		c2.466-0.014,3.62,0.699,3.66,3.391c0.043,2.887-1.122,3.761-3.858,3.704C1125.379,438.123,1119.211,438.212,1113.046,438.213z"/>
	<path fill-rule="evenodd" clip-rule="evenodd" fill="#A2CAE2" d="M1106.169,454.116c-4.166-0.001-8.336-0.111-12.496,0.038
		c-2.729,0.098-3.362-1.172-3.392-3.618c-0.033-2.634,1.018-3.479,3.563-3.449c8.33,0.102,16.663,0.112,24.993-0.002
		c2.723-0.038,3.36,1.173,3.391,3.622c0.032,2.636-1.017,3.526-3.563,3.445C1114.503,454.021,1110.335,454.117,1106.169,454.116z"/>
	<path fill-rule="evenodd" clip-rule="evenodd" fill="#A3CAE2" d="M1106.533,416.063c4.156,0.003,8.314,0.104,12.466-0.033
		c2.685-0.089,3.388,1.135,3.405,3.598c0.019,2.602-1.002,3.492-3.549,3.461c-8.31-0.098-16.622-0.088-24.932-0.002
		c-2.439,0.025-3.629-0.629-3.657-3.347c-0.029-2.843,1.019-3.828,3.803-3.721C1098.218,416.18,1102.378,416.061,1106.533,416.063z"
		/>
	<path fill-rule="evenodd" clip-rule="evenodd" fill="#A3CAE2" d="M1136.219,470.042c-3.33,0-6.662-0.072-9.988,0.023
		c-2.456,0.071-4.141-0.236-4.131-3.406c0.008-2.922,1.195-3.702,3.892-3.654c6.823,0.121,13.653,0.128,20.477-0.003
		c2.729-0.052,3.839,0.773,3.858,3.671c0.021,3.191-1.671,3.463-4.118,3.392C1142.881,469.97,1139.549,470.042,1136.219,470.042z"/>
	<path fill-rule="evenodd" clip-rule="evenodd" fill="#A4CAE3" d="M1149.75,416.06c3.153-0.001,6.309,0.092,9.456-0.03
		c2.536-0.1,4.129,0.385,4.003,3.476c-0.118,2.919-1.613,3.604-4.168,3.576c-6.801-0.074-13.605-0.108-20.406,0.013
		c-2.712,0.049-3.341-1.184-3.366-3.616c-0.027-2.604,0.979-3.546,3.533-3.451C1142.447,416.162,1146.101,416.062,1149.75,416.06z"
		/>
	<path fill-rule="evenodd" clip-rule="evenodd" fill="#A3CAE3" d="M1176.561,463.048c3.329-0.002,6.664,0.128,9.984-0.042
		c2.832-0.144,3.779,0.964,3.76,3.766c-0.02,2.775-1.312,3.333-3.704,3.302c-6.657-0.087-13.315-0.104-19.973,0.004
		c-2.581,0.041-3.53-0.939-3.522-3.508c0.008-2.517,0.832-3.662,3.47-3.553C1169.898,463.155,1173.232,463.05,1176.561,463.048z"/>
	<path fill-rule="evenodd" clip-rule="evenodd" fill="#A9CDE4" d="M1163.898,438.212c-3.327,0-6.662-0.128-9.981,0.039
		c-2.843,0.143-3.767-1.002-3.749-3.784c0.019-2.773,1.326-3.339,3.714-3.308c6.488,0.083,12.979,0.075,19.468,0.008
		c2.746-0.028,3.852,1.142,3.877,3.896c0.028,2.879-1.577,3.223-3.843,3.168C1170.224,438.155,1167.061,438.213,1163.898,438.212z"
		/>
	<path fill-rule="evenodd" clip-rule="evenodd" fill="#A5CBE3" d="M1099.951,463.044c1.991,0.003,3.988,0.11,5.971-0.022
		c2.744-0.185,3.299,1.247,3.338,3.64c0.043,2.634-1.037,3.508-3.561,3.421c-3.811-0.131-7.631-0.103-11.443-0.012
		c-2.681,0.064-3.89-0.971-3.975-3.771c-0.101-3.28,1.867-3.344,4.196-3.271C1096.302,463.087,1098.127,463.041,1099.951,463.044z"
		/>
	<path fill-rule="evenodd" clip-rule="evenodd" fill="#ACCFE5" d="M1056.283,438.161c-1.329,0-2.665,0.083-3.987-0.019
		c-2.504-0.191-2.033-2.162-2.096-3.752c-0.062-1.586,0.102-3.104,2.21-3.159c2.158-0.057,4.324,0.036,6.479-0.072
		c2.854-0.145,4.313,0.856,4.301,3.977c-0.014,3.395-2.222,3.098-4.414,3.083c-0.83-0.006-1.663-0.001-2.493-0.001
		C1056.283,438.198,1056.283,438.18,1056.283,438.161z"/>
	<path fill-rule="evenodd" clip-rule="evenodd" fill="#A3CAE2" d="M1055.581,423.056c-1.916-0.52-5.404,1.509-5.423-3.177
		c-0.011-2.623,0.606-4.133,3.564-3.838c1.304,0.13,2.633,0.061,3.949,0.01c2.62-0.102,4.857-0.181,4.775,3.676
		c-0.076,3.638-2.261,3.375-4.622,3.332C1057.166,423.045,1056.507,423.056,1055.581,423.056z"/>
	<path fill-rule="evenodd" clip-rule="evenodd" fill="#A2CAE2" d="M1056.124,454.195c-2.453-0.535-6.027,1.44-5.982-3.56
		c0.048-5.365,3.917-3.303,6.364-3.407c2.396-0.102,5.929-1.552,5.909,3.383C1062.395,456.007,1058.406,453.43,1056.124,454.195z"/>
	<path fill-rule="evenodd" clip-rule="evenodd" fill="#A3CAE3" d="M1056.101,470.101c-2.657-0.369-6.108,1.234-5.956-3.672
		c0.168-5.368,4.07-3.089,6.487-3.28c2.453-0.193,5.913-1.364,5.78,3.506C1062.265,472.039,1058.241,469.264,1056.101,470.101z"/>
	<path fill-rule="evenodd" clip-rule="evenodd" fill="#A8CDE4" d="M1088.993,387.029c-2.799-0.026-5.648,0.545-5.714-3.661
		c-0.072-4.617,3.235-3.235,5.573-3.306c2.448-0.074,5.442-1.021,5.439,3.482C1094.289,388.095,1091.23,386.821,1088.993,387.029z"
		/>
	<path fill-rule="evenodd" clip-rule="evenodd" fill="#A4CAE3" d="M1055.062,387.008c-2.023-0.186-4.838,0.955-4.94-3.289
		c-0.106-4.436,2.721-3.664,5.305-3.699c2.505-0.033,4.991-0.497,4.966,3.546C1060.366,387.674,1057.761,386.988,1055.062,387.008z"
		/>
	<path fill-rule="evenodd" clip-rule="evenodd" fill="#A7CCE4" d="M1072.112,387c-2.333-0.057-4.965,0.754-5.047-3.32
		c-0.089-4.333,2.675-3.689,5.241-3.652c2.334,0.033,4.976-0.78,5.041,3.33C1077.417,387.668,1074.755,387.084,1072.112,387z"/>
</g>
</svg>
