<?xml version="1.0" encoding="utf-8"?>
<!-- Generator: Adobe Illustrator 21.0.0, SVG Export Plug-In . SVG Version: 6.00 Build 0)  -->
<svg version="1.1" id="Camada_1" xmlns="http://www.w3.org/2000/svg" xmlns:xlink="http://www.w3.org/1999/xlink" x="0px" y="0px"
	 viewBox="0 0 1201 401" style="enable-background:new 0 0 1201 401;" xml:space="preserve">
<style type="text/css">
	.st0{fill:#001828;stroke:#000000;stroke-miterlimit:10;}
	.st1{fill:#0073E5;stroke:#000000;stroke-miterlimit:10;}
	.st2{fill:#FCFCFC;}
	.st3{font-family:'MyriadPro-Regular';}
	.st4{font-size:60px;}
	.st5{fill:#FFFFFF;}
	.st6{font-size:48px;}
	.st7{clip-path:url(#SVGID_2_);fill:#C35510;}
	.st8{fill:#CE6C22;}
	.st9{fill:#F3F4F4;}
	.st10{fill:#060800;}
</style>
<g>
	<g>
		<rect x="0.5" y="0.5" class="st0" width="1200" height="400"/>
		<polygon class="st1" points="345.5,400.5 0.5,400.5 0.5,0.5 600.5,0.5 		"/>
	</g>
	<text transform="matrix(1 0 0 1 609 102)" class="st2 st3 st4">Promoção da semana</text>
	<text transform="matrix(1 0 0 1 609 184)" class="st5 st3 st6">Curso de HTML 5 por 29,99</text>
	<g>
		<g>
			<defs>
				<rect id="SVGID_1_" x="92" y="38.2" width="229.9" height="324.5"/>
			</defs>
			<clipPath id="SVGID_2_">
				<use xlink:href="#SVGID_1_"  style="overflow:visible;"/>
			</clipPath>
			<polygon class="st7" points="112.9,336.7 92,102 321.9,102 301,336.6 206.8,362.8 112.9,336.7 			"/>
		</g>
		<polygon class="st8" points="206.9,342.8 283,321.7 300.9,121.2 206.9,121.2 206.9,342.8 		"/>
		<polygon class="st9" points="206.9,208.2 168.9,208.2 166.2,178.8 206.9,178.8 206.9,150 206.8,150 134.8,150 135.5,157.7 
			142.5,237 206.9,237 206.9,208.2 		"/>
		<polygon class="st9" points="206.9,283 206.8,283 174.8,274.4 172.7,251.4 157.1,251.4 143.8,251.4 147.9,296.6 206.8,313 
			206.9,312.9 206.9,283 		"/>
		<polygon class="st10" points="113.4,38.2 128,38.2 128,52.7 141.4,52.7 141.4,38.2 156,38.2 156,82 141.4,82 141.4,67.4 128,67.4 
			128,82 113.4,82 113.4,38.2 113.4,38.2 		"/>
		<polygon class="st10" points="175.3,52.8 162.4,52.8 162.4,38.2 202.8,38.2 202.8,52.8 189.9,52.8 189.9,82 175.3,82 175.3,52.8 
			175.3,52.8 		"/>
		<polygon class="st10" points="209.2,38.2 224.4,38.2 233.8,53.6 243.2,38.2 258.4,38.2 258.4,82 243.9,82 243.9,60.3 233.8,75.9 
			233.6,75.9 223.5,60.3 223.5,82 209.2,82 209.2,38.2 		"/>
		<polygon class="st10" points="265.7,38.2 280.3,38.2 280.3,67.5 300.9,67.5 300.9,82 265.7,82 265.7,38.2 		"/>
		<polygon class="st5" points="206.8,208.2 206.8,237 242.3,237 238.9,274.3 206.8,283 206.8,313 265.9,296.6 266.3,291.7 273,216 
			273.7,208.2 266,208.2 206.8,208.2 		"/>
		<polygon class="st5" points="206.8,150 206.8,167.9 206.8,178.7 206.8,178.8 276.3,178.8 276.3,178.8 276.4,178.8 276.9,172.3 
			278.3,157.7 278.9,150 206.8,150 		"/>
	</g>
</g>
</svg>
