<?xml version="1.0" encoding="utf-8"?>
<!-- Generator: Adobe Illustrator 16.0.0, SVG Export Plug-In . SVG Version: 6.00 Build 0)  -->
<!DOCTYPE svg PUBLIC "-//W3C//DTD SVG 1.1//EN" "http://www.w3.org/Graphics/SVG/1.1/DTD/svg11.dtd">
<svg version="1.1" id="Camada_1" xmlns="http://www.w3.org/2000/svg" xmlns:xlink="http://www.w3.org/1999/xlink" x="0px" y="0px"
	 width="1580px" height="320px" viewBox="0 0 1580 320" enable-background="new 0 0 1580 320" xml:space="preserve">
<rect y="-0.026" fill="#061926" width="1580" height="320.053"/>
<polygon fill="#346DB6" points="454.248,320.026 0,320.026 0,-0.026 789.999,-0.026 "/>
<g>
	<g>
		<g>
			<g>
				<defs>
					<rect id="SVGID_1_" x="138.287" y="15.561" width="207.83" height="293.342"/>
				</defs>
				<clipPath id="SVGID_2_">
					<use xlink:href="#SVGID_1_"  overflow="visible"/>
				</clipPath>
				<polygon clip-path="url(#SVGID_2_)" fill="#BB5626" points="157.18,285.401 138.287,73.236 346.116,73.236 327.223,285.31 
					242.063,308.996 				"/>
			</g>
		</g>
	</g>
	<polygon fill="#C76B29" points="242.156,290.914 310.948,271.845 327.13,90.593 242.156,90.593 	"/>
	<polygon fill="#F3F4F4" points="242.156,169.241 207.804,169.241 205.365,142.663 242.156,142.663 242.156,116.627 
		242.063,116.627 176.979,116.627 177.612,123.588 183.938,195.274 242.156,195.274 	"/>
	<polygon fill="#F3F4F4" points="242.156,236.856 242.063,236.856 213.137,229.081 211.239,208.293 197.138,208.293 
		185.114,208.293 188.822,249.151 242.063,263.977 242.156,263.886 	"/>
	<polygon fill="#070906" points="157.633,15.561 170.83,15.561 170.83,28.667 182.944,28.667 182.944,15.561 196.142,15.561 
		196.142,55.155 182.944,55.155 182.944,41.958 170.83,41.958 170.83,55.155 157.633,55.155 	"/>
	<polygon fill="#070906" points="213.59,28.76 201.93,28.76 201.93,15.561 238.448,15.561 238.448,28.76 226.789,28.76 
		226.789,55.155 213.59,55.155 	"/>
	<polygon fill="#070906" points="244.234,15.561 257.974,15.561 266.475,29.482 274.971,15.561 288.711,15.561 288.711,55.155 
		275.603,55.155 275.603,35.539 266.475,49.641 266.294,49.641 257.161,35.539 257.161,55.155 244.234,55.155 	"/>
	<polygon fill="#070906" points="295.31,15.561 308.51,15.561 308.51,42.047 327.13,42.047 327.13,55.155 295.31,55.155 	"/>
	<polygon fill="#FFFFFF" points="242.063,169.241 242.063,195.274 274.157,195.274 271.083,228.991 242.063,236.856 
		242.063,263.977 295.49,249.151 295.854,244.724 301.911,176.288 302.544,169.241 295.583,169.241 	"/>
	<polygon fill="#FFFFFF" points="242.063,116.627 242.063,132.808 242.063,142.573 242.063,142.663 304.893,142.663 
		304.893,142.663 304.983,142.663 305.435,136.785 306.699,123.588 307.245,116.627 	"/>
</g>
<text transform="matrix(1 0 0 1 875.7744 138.447)"><tspan x="0" y="0" fill="#FFFFFF" font-family="'MyriadPro-Regular'" font-size="57.9566">Promoção da semana</tspan><tspan x="0" y="69.548" fill="#FFFFFF" font-family="'MyriadPro-Regular'" font-size="57.9566">Curso de HTML5 por 29,99</tspan></text>
</svg>
