<?xml version="1.0" encoding="utf-8"?>
<!-- Generator: Adobe Illustrator 21.0.0, SVG Export Plug-In . SVG Version: 6.00 Build 0)  -->
<svg version="1.1" id="Camada_1" xmlns="http://www.w3.org/2000/svg" xmlns:xlink="http://www.w3.org/1999/xlink" x="0px" y="0px"
	 viewBox="0 0 1201 401" style="enable-background:new 0 0 1201 401;" xml:space="preserve">
<style type="text/css">
	.st0{fill:#0073E5;stroke:#000000;stroke-miterlimit:10;}
	.st1{fill:#001828;stroke:#000000;stroke-miterlimit:10;}
	.st2{fill:url(#SVGID_1_);}
	.st3{fill:#FF7F18;}
	.st4{fill:#FFFFFF;}
	.st5{font-family:'MyriadPro-Regular';}
	.st6{font-size:60px;}
	.st7{fill:#F9F9F9;}
	.st8{font-size:48px;}
</style>
<g>
	<rect x="0.5" y="0.5" class="st0" width="1200" height="400"/>
	<polygon class="st1" points="345.5,400.5 0.5,400.5 0.5,0.5 600.5,0.5 	"/>
	<g>
		
			<radialGradient id="SVGID_1_" cx="-1412.5043" cy="775.9958" r="0.3564" gradientTransform="matrix(545.6736 0 0 -528.3113 770932.4375 410076.625)" gradientUnits="userSpaceOnUse">
			<stop  offset="0" style="stop-color:#423325;stop-opacity:0.98"/>
			<stop  offset="1" style="stop-color:#1C0A00"/>
		</radialGradient>
		<path class="st2" d="M81.8,53.4h255.9v248.9H81.8V53.4z"/>
		<path class="st3" d="M81.8,53.4h255.9v248.9H81.8V53.4z M70.2,314h279.2V41.8H70.2V314z M253.1,138.9c0-1,0.3-1.4,1.4-1.4h18.3
			c1,0,1.4,0.3,1.4,1.4v91.8c0,1-0.2,1.4-1.4,1.4h-18.1c-1.2,0-1.5-0.6-1.5-1.5v-91.7L253.1,138.9L253.1,138.9z M251.8,112.4
			c0-7.4,5.3-11.9,11.9-11.9c7.1,0,11.9,4.8,11.9,11.9c0,7.7-5,11.9-12.1,11.9C256.7,124.3,251.8,120.1,251.8,112.4z M199.5,177.1
			c-3.2-12.9-11-41-13.9-54.7h-0.2c-2.5,13.6-8.6,36.6-13.5,54.7H199.5L199.5,177.1z M167.2,195.9l-9.2,34.9c-0.2,1-0.6,1.2-1.7,1.2
			h-17.1c-1.2,0-1.4-0.3-1.2-1.7l33-115.6c0.6-2.1,1-4,1.2-9.7c0-0.8,0.3-1.2,1-1.2h24.4c0.8,0,1.2,0.2,1.4,1.2l37,125.5
			c0.2,1,0,1.5-1,1.5h-19.3c-1,0-1.5-0.2-1.7-1.1l-9.6-35H167.2L167.2,195.9z"/>
	</g>
	<text transform="matrix(1 0 0 1 580.6167 105.1055)" class="st4 st5 st6">Promoção de novembro</text>
	<text transform="matrix(1 0 0 1 580.6162 155.6078)" class="st7 st5 st8">curso básico de Adobe</text>
	<text transform="matrix(1 0 0 1 580.6162 213.2078)" class="st7 st5 st8">Illustrator</text>
	<text transform="matrix(1 0 0 1 779 212)" class="st4 st5 st8">por 24,99</text>
</g>
</svg>
