<?xml version="1.0" encoding="utf-8"?>
<!-- Generator: Adobe Illustrator 16.0.0, SVG Export Plug-In . SVG Version: 6.00 Build 0)  -->
<!DOCTYPE svg PUBLIC "-//W3C//DTD SVG 1.1//EN" "http://www.w3.org/Graphics/SVG/1.1/DTD/svg11.dtd">
<svg version="1.1" id="Camada_1" xmlns="http://www.w3.org/2000/svg" xmlns:xlink="http://www.w3.org/1999/xlink" x="0px" y="0px"
	 width="1920.438px" height="495.051px" viewBox="12.001 419.429 1920.438 495.051"
	 enable-background="new 12.001 419.429 1920.438 495.051" xml:space="preserve">
<g>
	<path fill="#7058BF" d="M13.001,746.155c0-197.676,0.012-395.348-0.086-593.021c-0.002-3.916,0.416-5.254,4.968-5.253
		c638.52,0.141,1277.037,0.134,1915.556,0.134c0.975,2.073,0.461,4.272,0.461,6.402c0.031,199.877,0.021,399.754,0.029,599.625
		c-0.287,2.246-2.158,2.289-3.746,2.535c-57.645,8.975-113.398,25.641-169.393,41.396c-27.588,7.764-55.1,15.797-82.926,22.738
		c-17.27,4.311-34.109,4.527-51.334,0.123c-25.852-6.609-51.473-13.967-76.939-21.883c-53.473-16.615-106.58-34.434-160.725-48.838
		c-4.076-1.086-8.162-1.5-12.355-1.496c-35.504,0.029-71.01,0.039-106.516-0.023c-2.717-0.006-5.74,0.807-7.973-1.727
		c0.016-0.682,0.324-1.168,0.93-1.479c2.861-1.289,5.902-0.902,8.881-0.904c49.666-0.025,99.334-0.016,149.004-0.021
		c9.908,0,11.094-1.49,9.699-11.48c-0.361-2.596-1.502-3.885-4.113-4.025c-2.334-0.127-4.666-0.121-6.998-0.121
		c-79.502-0.006-159.004-0.002-238.506-0.012c-3.162,0-6.336,0.178-9.477-0.383c-2.127-0.563-4.207-1.254-6.061-2.49
		c-3.248-2.848-5.273-6.551-5.793-10.689c-0.869-6.922-2.559-13.992,0.99-20.754c2.645-1.375,5.518-1.006,8.318-1.008
		c32.4-0.027,64.803-0.016,97.205-0.02c1.992,0,3.986-0.043,5.979-0.076c3.414-0.057,5.354-1.648,5.395-5.113
		c0.088-7.791,0.674-15.594-0.434-23.365c-0.543-2.807-0.438-5.646-0.439-8.477c-0.008-43.672-0.055-87.342,0.033-131.013
		c0.02-9.486,1.262-18.937,1.012-28.456c-0.262-9.888-0.355-10.193-10.064-10.195c-47.67-0.011-95.342-0.004-143.012-0.005
		c-29.67,0-59.338,0.008-89.008-0.014c-2.82-0.002-5.68,0.271-8.416-0.705c-2.555-1.356-2.303-3.859-2.344-6.14
		c-0.125-6.663,0.051-13.329-0.074-19.992c-0.201-10.86-6.191-17.044-17.031-18.459c-15.9-2.075-31.676-1.436-45.649,6.674
		c-9.197,5.337-18.098,8.043-28.661,7.617c-11.84-0.476-23.623,10.507-22.777,22.937c0.172,2.533,0.613,5.446-2.143,7.267
		c-3.059,1.175-6.256,0.797-9.399,0.798c-75.936,0.021-151.868,0.017-227.803,0.019c-11.414,0.001-11.757,0.02-11.37,11.282
		c1.802,52.433,0.563,104.876,0.933,157.318c0.022,3.16,0.151,6.332-0.417,9.467c-1.178,7.785-0.533,15.607-0.444,23.416
		c0.036,3.191,1.83,4.82,5.007,5.057c2.164,0.16,4.326,0.16,6.49,0.16c32.979,0.004,65.958-0.008,98.938,0.02
		c2.808,0.002,5.684-0.354,8.356,0.945c0.132,0.094,0.311,0.17,0.383,0.303c4.34,7.951,1.585,25.379-4.93,31.283
		c-1.93,1.088-3.995,1.828-6.138,2.379c-3.306,0.598-6.647,0.414-9.976,0.414c-77.168,0.012-154.336,0.01-231.504,0.006
		c-10.625,0-9.726,0.117-9.819,9.416c-0.02,1.834-0.049,3.678-0.914,5.367c-2.301,2.605-4.927,1.205-7.355,0.412
		c-18.052-5.896-36.216-11.428-54.536-16.408c-26.375-7.17-52.92-13.764-80.294-15.629c-20.578-1.402-41.2-0.777-61.801,0.355
		c-12.125,0.666-24.241,1.438-36.361,2.17c-20.774,1.26-41.477,3.258-62.157,5.443c-39.903,4.217-79.761,8.861-119.457,14.748
		c-24.05,3.568-48.084,7.254-72.052,11.354C18.926,746.561,15.961,747.417,13.001,746.155z"/>
	<path fill="#5E49AB" d="M13.001,1228.262c0-83.352,0-166.705,0-250.057c1.93-1.369,3.874-0.418,5.762,0.051
		C40.6,983.675,62.28,989.7,84.118,995.118c42.067,10.436,84.307,20.043,126.979,27.748c26.25,4.74,52.697,5.881,79.186,4.59
		c24.762-1.205,49.499-3.205,74.214-5.4c23.886-2.119,47.771-4.271,71.641-6.537c18.734-1.781,37.473-3.553,56.204-5.369
		c21.543-2.088,43.122-3.83,64.693-5.627c16.925-1.41,33.872-2.396,50.805-3.629c6.144-0.447,12.307-0.715,18.448-1.012
		c22.13-1.066,44.293-1.908,66.446-1.121c32.644,1.156,64.506,7.379,95.969,15.836c39.124,10.52,77.4,23.875,116.404,34.795
		c29.898,8.371,60.164,15.221,91.136,17.891c16.715,1.439,33.51,1.797,50.393,0.748c29.27-1.816,58.465-4.303,87.6-7.488
		c26.002-2.842,51.99-5.822,77.967-8.926c42.191-5.041,84.322-10.572,126.465-15.994c58.672-7.549,117.332-15.203,176.025-22.592
		c41.816-5.266,83.691-10.189,125.666-14.088c16.9-1.57,33.842-2.707,50.824-3.432c27.115-1.156,53.844,2.217,80.586,5.559
		c50.459,6.305,100.553,14.982,150.592,23.953c3.938,0.705,8.449,0.184,11.529,3.752c0.086,65.178-0.01,130.35,0.104,195.521
		c0.006,3.42-0.869,5.002-4.439,4.477c-0.979-0.145-1.996-0.021-2.996-0.021c-635.723,0-1271.444,0.002-1907.167-0.025
		C17.263,1228.725,15.069,1229.231,13.001,1228.262z"/>
	<path fill="#634EB0" d="M1933.269,1028.223c-10.926-1.828-21.855-3.635-32.777-5.49c-20.543-3.488-41.064-7.121-61.633-10.473
		c-17.131-2.791-34.264-5.686-51.492-7.732c-12.314-1.463-24.6-3.211-36.945-4.492c-14.99-1.559-30.014-2.66-45.029-3.596
		c-9.389-0.584-18.945,0.141-28.318,1.219c-6.1,0.701-12.23,0.805-18.314,1.336c-19.945,1.736-39.871,3.535-59.74,6.043
		c-13.127,1.656-26.33,2.699-39.477,4.213c-12.809,1.475-25.584,3.234-38.379,4.809c-14.281,1.758-28.578,3.387-42.854,5.184
		c-11.971,1.51-23.912,3.248-35.881,4.764c-14.273,1.807-28.574,3.406-42.846,5.24c-13.445,1.73-26.859,3.705-40.303,5.463
		c-9.672,1.266-19.375,2.297-29.051,3.527c-11.316,1.438-22.615,3.027-33.932,4.469c-9.678,1.234-19.375,2.301-29.051,3.531
		c-11.318,1.439-22.615,3.02-33.934,4.463c-9.678,1.23-19.365,2.369-29.053,3.52c-10.506,1.248-21.016,2.486-31.527,3.682
		c-10.025,1.141-20.057,2.238-30.088,3.318c-15.291,1.652-30.574,3.354-45.879,4.875c-8.73,0.869-17.484,1.578-26.244,2.092
		c-17.234,1.01-34.459,2.676-51.748,2.008c-19.537-0.754-38.928-2.793-58.207-6.262c-36.021-6.482-70.861-17.313-105.753-27.979
		c-27.617-8.443-55.019-17.646-83.22-24.037c-18.557-4.205-37.173-7.961-56.185-9.877c-21.914-2.205-43.851-2.223-65.764-1.656
		c-19.881,0.516-39.754,1.9-59.626,2.965c-20.821,1.111-41.605,3.047-62.378,4.936c-19.271,1.752-38.491,4.031-57.755,5.863
		c-15.982,1.521-32.006,2.625-47.993,4.109c-16.304,1.516-32.57,3.439-48.881,4.869c-14.353,1.262-28.773,1.793-43.114,3.166
		c-26.165,2.502-52.378,3.514-78.633,2.854c-16.075-0.404-31.931-3.236-47.717-6.076c-34.075-6.129-67.887-13.564-101.484-21.908
		c-26.542-6.59-52.955-13.707-79.429-20.578c-3.202-0.83-6.423-1.584-9.636-2.375c0-47.344,0-94.688,0-142.031
		c1.04-2.059,3.067-2.363,5.008-2.857c18.907-4.822,37.938-9.037,57.354-11.23c12.193-1.379,24.284,0.248,36.338,1.846
		c52.942,7.008,104.911,19.018,156.981,30.541c38.41,8.498,76.585,17.963,114.768,27.391c37.856,9.35,75.654,18.939,113.236,29.352
		c14.843,4.113,29.905,6.619,45.365,6.484c11.833-0.102,23.668,0.035,35.501-0.033c16.823-0.098,33.569-1.617,50.345-2.643
		c14.79-0.904,29.559-1.957,44.313-3.281c7.076-0.379,14.118-1.107,21.154-1.936c33.293-2.883,66.559-6.068,99.853-8.887
		c21.517-1.82,43.061-3.609,64.663-4.373c4.813-0.17,9.566-1.363,14.421-0.842c24.82-1.303,49.637-2.723,74.494-1.006
		c13.893,0.125,27.633,1.826,41.325,4.035c19.104,2.504,38.219,4.967,57.348,7.301c2.656,0.324,5.299,0.311,7.951,0.414
		c15.117,2.51,30.393,3.604,45.619,5.092c19.203,1.879,38.396,3.854,57.615,5.574c17.557,1.572,35.119,3.053,52.678,4.584
		c10.59,0.924,21.244,1.201,31.762,2.9c7.229-0.385,14.275,1.66,21.484,1.613c18.27,2.721,35.992,0.225,53.902-3.953
		c32.293-7.533,64.846-13.973,97.375-20.455c23.375-4.66,46.813-8.992,70.26-13.268c36.898-6.73,73.896-12.979,111.242-16.484
		c14.703-1.381,29.611-0.682,44.449,0.152c14.807,0.834,29.547,2.324,44.311,3.564c16.26,1.367,32.479,3.297,48.695,5.178
		c53.646,6.227,107.109,13.768,160.518,21.75c11.539,1.727,23.115,3.18,34.627,5.08c2.262,0.373,4.732,0.475,5.939,3.008
		c0.072,37.719,0.018,75.432,0.006,113.145C1933.9,1025.364,1934.429,1026.936,1933.269,1028.223z"/>
	<path fill="#6A53B8" d="M672.171,913.184c-15.994,1.32-31.971,2.941-47.989,3.813c-6.291,0.342-12.57,0.912-18.854,1.303
		c-14.954,0.93-29.919,0.52-44.866,0.977c-25.254,0.775-49.816-2.133-74.197-9.275c-29.097-8.523-58.639-15.559-88.07-22.91
		c-34.725-8.674-69.471-17.287-104.331-25.393c-33.38-7.764-66.856-15.139-100.407-22.119c-22.174-4.615-44.508-8.518-66.862-12.184
		c-12.22-2.006-24.6-3.404-36.963-4.094c-18.047-1.008-35.529,3.4-53.01,7.176c-7.915,1.709-15.749,3.785-23.62,5.697
		c0-30.008,0-60.014,0-90.021c9.599-1.666,19.184-3.412,28.798-4.979c16.317-2.658,32.633-5.338,48.988-7.75
		c13.25-1.955,26.556-3.527,39.835-5.277c12.126-1.602,24.234-3.354,36.38-4.779c13.309-1.563,26.653-2.809,39.979-4.229
		c11.672-1.242,23.331-2.625,35.012-3.775c8.898-0.877,17.811-1.734,26.738-2.17c24.201-1.182,48.359-2.947,72.623-3.277
		c21.438-0.291,42.623,0.781,63.68,4.703c36.297,6.758,71.515,17.5,106.579,28.814c1.092,0.354,2.253,0.492,3.382,0.73
		c1.29,0.018,2.279,0.844,3.43,1.248c14.813,3.436,28.946,8.945,43.208,14.057c33.722,12.086,67.267,24.664,101.03,36.639
		c3.919,1.391,8.722,1.688,10.69,6.479c0.542,2.137,0.478,4.311,0.479,6.475c0.015,32,0.021,64-0.013,96
		C673.818,907.852,674.247,910.788,672.171,913.184z"/>
	<path fill="#FEFEFE" d="M1933.269,1028.223c0.002-39.342,0.002-78.684,0.004-118.023c-1.629-1.963-1.516-4.342-1.518-6.66
		c-0.031-47.24-0.031-94.479,0-141.721c0.002-2.316-0.121-4.697,1.521-6.654c0.055-2.164,0.152-4.326,0.152-6.488
		c0.008-200.221,0.008-400.44,0.008-600.661c0.309,0.218,1.043-0.506,1.012,0.5c-0.043,1.332-0.012,2.667-0.012,4
		c0,357.355-0.01,714.713,0.119,1072.067c0.002,4.205-1.031,4.781-4.938,4.781c-637.373-0.104-1274.746-0.1-1912.118-0.162
		c-1.463,0-3.391,1.154-4.5-0.938c637.599,0,1275.196,0,1912.792,0c1.502,0,3.012-0.111,4.498,0.023
		c2.318,0.211,3.488-0.578,3.154-3.045c-0.066-0.492-0.006-1-0.006-1.5c0-64.176,0-128.354-0.01-192.529
		C1933.431,1030.216,1933.326,1029.219,1933.269,1028.223z"/>
	<path fill="#6A53B8" d="M1933.277,755.163c0.055,34.232,0.135,68.465,0.15,102.697c0.008,17.445-0.1,34.893-0.156,52.34
		c-22.9-3.35-45.805-6.701-68.707-10.045c-22.41-3.273-44.807-6.664-67.242-9.76c-14.25-1.969-28.568-3.453-42.85-5.23
		c-12.303-1.529-24.557-3.602-36.896-4.627c-11.227-0.932-22.381-2.426-33.6-3.354c-15.67-1.299-31.318-3.176-47.016-3.719
		c-14.934-0.514-29.91-0.975-44.885,0.492c-16.313,1.594-32.521,3.871-48.713,6.287c-15.209,2.268-30.361,4.938-45.504,7.635
		c-24.434,4.354-48.893,8.596-73.238,13.393c-29.887,5.889-59.678,12.262-89.494,18.5c-14.264,2.984-28.398,6.713-42.764,9.025
		c-9.969,1.607-20.156,0.123-30.146-1.625c-1.84-1.881-1.604-4.307-1.605-6.604c-0.047-55.467-0.047-110.938,0.004-166.404
		c0.002-2.445-0.344-5.072,1.807-7.004c34.832-0.002,69.67,0.395,104.49-0.211c13.08-0.227,25.373,2.314,37.67,5.834
		c39.916,11.43,79.496,23.941,119.068,36.5c34.32,10.893,68.729,21.502,103.711,30.207c17.398,4.33,34.254,3.881,51.473-0.529
		c42.426-10.871,84.328-23.592,126.527-35.248c36.109-9.975,72.387-19.299,109.205-26.305
		C1920.703,756.245,1926.923,754.917,1933.277,755.163z"/>
	<path fill="#1D1D1B" d="M909.166,484.952c0.117-5.449-0.824-11.021,1.766-16.191c4.975-9.927,13.295-14.849,24.128-14.672
		c8.808,0.145,16.354-1.416,24.229-6.255c16.327-10.034,34.766-10.281,53.159-7.053c8.18,1.436,13.533,8.751,13.697,17.396
		c0.17,8.979,0.074,17.964,0.094,26.945c2.414,3.108,1.391,6.715,1.482,10.162c0.252,8.586,0.256,17.172,0.008,25.758
		c0.242,10.371,0.232,20.743,0.016,31.109c0.209,8.79-0.049,17.584-2.205,26.141c-2.191,8.703-5.271,17.07-12.143,23.406
		c-1.865,0.729-3.592,0.143-5.303-0.582c-25.783-10.941-51.654-11.645-77.642-0.707c-1.83,0.768-3.667,1.615-5.703,1.764
		c-4.209-0.129-5.77-3.557-7.539-6.422c-3.939-6.375-6.607-13.305-7.962-20.707c-0.467-1.84-0.296-3.75-0.646-5.605
		c-0.459-1.643-0.804-3.297-0.794-5.013c-0.038-3.898,0.029-7.795-0.079-11.691c-0.272-10.389-0.285-20.773-0.006-31.155
		c-0.01-8.368,0.367-16.743-0.229-25.104c-0.188-0.552-0.314-1.119-0.413-1.691C906.857,491.313,907.114,487.941,909.166,484.952z"
		/>
	<path fill="#B2B2B2" d="M1170.316,727.048c84.664,0.012,169.328,0.021,253.992,0.031c8.014,0.002,8.066,0.002,8.004,7.756
		c-0.107,13.086,1.689,11.354-11.418,11.367c-52.834,0.063-105.664,0.043-158.496,0.053c-3.721,2.537-7.939,1.32-11.953,1.521
		c-3.102,0.154-6.221,0.166-9.324-0.154c-53.709-0.051-107.416,0.436-161.125,0.215c-3.131-0.014-6.34,0.449-9.334-0.98
		c-3.711-6.605-3.795-13.682-2.682-20.912c3.213-2.111,6.742-1.336,10.188-1.043c8.947,0.766,17.867,1.75,26.879,1.729
		c4.533-0.01,8.928-0.846,13.393-1.268c12.875,0.809,25.762,0.215,38.643,0.322C1161.554,725.719,1165.972,725.925,1170.316,727.048
		z"/>
	<path fill="#B2B2B2" d="M517.191,746.335c-0.731-0.723-1.463-1.447-2.194-2.17c0.04-4.332,0.214-8.67,0.074-12.996
		c-0.098-2.975,0.913-4.395,4.008-4.107c1.322,0.123,2.665,0.02,3.998,0.02c82.014-0.002,164.028-0.004,246.042-0.006
		c5.51-1.682,11.182-1.297,16.825-1.363c12.646-0.15,25.3,0.381,37.939-0.303c12.739,2.459,25.463,0.725,38.188-0.205
		c2.142-0.156,4.297-0.752,6.26,0.666c1.288,7.199,0.58,14.172-2.403,20.891c-1.809,1.064-3.823,1.07-5.816,1.072
		c-54.896,0.033-109.789,0.037-164.685,0c-0.664,0-1.327-0.094-1.986-0.166c-7.155,0.229-14.312,0.248-21.469-0.004
		c-4.992,0.404-9.992,0.176-14.985,0.18c-37.315,0.023-74.631-0.057-111.944,0.063C535.71,747.932,526.435,747.571,517.191,746.335z
		"/>
	<path d="M909.166,484.952c-0.332,3.346-0.665,6.692-0.997,10.037c-2.619,2.551-5.953,1.757-9.021,1.76
		c-54.814,0.054-109.63,0.037-164.444,0.039c-18.494,0-36.987-0.027-55.481,0.014c-7.007,0.017-7.362,0.368-7.367,7.314
		c-0.021,46.984-0.023,93.966,0.002,140.951c0.004,7.17,0.224,7.361,7.769,7.363c52.815,0.018,105.631-0.002,158.446,0.027
		c3.136,0.002,6.352-0.451,9.345,0.979c1.5,1.064,1.167,2.459,0.032,3.26c-5.678,4.006-10.437,9.557-17.788,10.832
		c-4.487,0.406-8.979,0.301-13.471,0.301c-49.234,0.002-98.47,0.033-147.704-0.061c-3.266-0.008-7.187,1.232-9.331-2.842
		c-0.08-9.828-0.221-19.656-0.229-29.482c-0.027-37.16,0.019-74.321-0.029-111.48c-0.013-10.325-0.288-20.648-0.367-30.974
		c-0.062-7.825,0.053-7.894,7.684-7.894c78.986-0.001,157.972,0.001,236.958-0.007C905.171,485.088,907.169,484.999,909.166,484.952
		z"/>
	<path d="M1026.238,495.047c0-3.309,0-6.619,0-9.928c82.168-0.008,164.334,0.022,246.5-0.119c4.99-0.009,6.324,1.872,6.311,6.455
		c-0.217,56.325-0.322,112.651-0.471,168.981c-0.004,1.492-0.18,2.988-0.275,4.48c-0.779,2.375-2.855,2.549-4.838,2.77
		c-2.148,0.238-4.318,0.141-6.479,0.141c-48.045,0.002-96.09-0.002-144.137,0.01c-3.658,0-7.313-0.045-10.951-0.346
		c-7.041-1.945-12.16-6.979-17.77-11.207c-1.49-1.123-1.479-2.502,0.6-3.256c2.943-0.854,5.961-0.576,8.949-0.578
		c50.998-0.02,101.998-0.01,152.998-0.016c8.895,0,8.912-0.014,8.914-8.709c0.006-46.166,0.004-92.332,0.002-138.499
		c0-1.333-0.053-2.667-0.055-3.998c-0.004-2.84-1.281-4.313-4.209-4.367c-2.166-0.041-4.332-0.071-6.496-0.071
		c-73-0.003-145.998,0.007-218.998-0.032C1032.572,496.757,1029.101,497.479,1026.238,495.047z"/>
	<path fill="#F9F9F9" d="M659.156,664.927c1.986,1.73,4.403,1.193,6.683,1.193c53.292,0.02,106.584,0.014,159.876,0.02
		c1.829,0,3.66,0.08,5.489,0.121c0.306,2.305-1.646,3.051-2.97,4.152c-2.797,2.326-5.947,4.162-8.931,6.229
		c-5.914,4.1-11.346,8.572-13.527,15.863c-0.38,1.27-1.185,2.357-2.364,3.105c-8.092,1.484-16.166,2.354-24.163-0.498
		c-32.763-0.037-65.528,0.027-98.291-0.191c-7.06-0.049-16.026,3.168-20.709-1.512c-4.875-4.873-1.218-13.939-1.692-21.152
		C658.399,669.844,657.871,667.276,659.156,664.927z"/>
	<path fill="#F9F9F9" d="M1110.48,666.317c10.643-0.061,21.281-0.168,31.924-0.174c43.076-0.02,86.152-0.002,129.23-0.025
		c2.271,0,4.693,0.574,6.666-1.199c1.498,8.896,0.572,17.844,0.506,26.77c-0.016,2.068-1.621,3.195-3.734,3.275
		c-1.498,0.057-2.996,0.035-4.494,0.037c-36.777,0.045-73.555,0.088-110.33,0.129c-4.408,2.893-9.348,1.172-14.039,1.57
		c-2.131,0.182-4.307,0.119-6.422-0.34c-2.221-0.514-3.264-2.158-3.838-4.172c-1.689-5.908-5.518-10.102-10.455-13.539
		c-4.098-2.852-8.352-5.49-12.229-8.645C1112.062,669.028,1110.14,668.495,1110.48,666.317z"/>
	<path fill="#292929" d="M1329.441,660.417c8.164,0,16.33-0.064,24.492,0.045c2.02,0.027,4.996-0.293,4.672,2.961
		c-0.408,4.096,1.734,3.807,4.518,3.479c13.881-1.625,21.285,7.768,16.172,20.793c-4.203,10.705-12.18,18.535-20.869,25.68
		c-1.42,1.166-2.773,2.326-3.93,3.785c-4.863,6.146-11.24,9.137-19.115,8.979c-4.498-0.088-8.998,0.043-13.496-0.027
		c-11.775-0.184-21.416-9.465-21.6-21.168c-0.209-13.326,0.047-26.66-0.146-39.986c-0.055-3.719,1.664-4.576,4.811-4.557
		C1313.113,660.45,1321.277,660.417,1329.441,660.417z"/>
	<path fill="#959595" d="M1241.193,746.247c7.066,0.002,14.137,0.006,21.205,0.01c-0.047,0.305-0.039,0.605,0.021,0.906
		c-0.043,29.834-0.098,59.67-0.133,89.504c-0.033,30.17-0.047,60.338-0.07,90.508c-3.021,2.145-6.076-0.014-8.998-0.271
		c-3.912-0.348-7.824-0.652-11.752-0.787c-1.938-1.793-1.854-4.189-1.855-6.508c-0.041-55.74-0.049-111.48-0.002-167.221
		c0-1.498,0.025-3,0.52-4.443C1240.388,747.317,1240.744,746.753,1241.193,746.247z"/>
	<path fill="#FEFEFE" d="M1336.208,638.977c2.311-4.141,0.613-6.834-3.047-9.059c-4.418-2.686-9.547-3.809-13.852-6.818
		c-13.156-9.201-19.691-25.266-16.076-40.168c3.744-15.436,21.457-25.505,36.742-20.888c7.992,2.414,12.221,10.794,9.418,18.671
		c-2.643,7.426-11.385,11.467-18.76,8.67c-6.678-2.529-9.025-1.416-10.568,5.584c-2.242,10.18,1.521,18.291,9.348,24.686
		c3.357,2.742,6.963,5.203,9.287,8.969c2.563,4.15,2.791,8.123-1.289,11.574C1336.363,640.43,1335.955,640.032,1336.208,638.977z"/>
	<path fill="#9A9A9A" d="M779.251,695.114c8.267-0.865,16.615,0.689,24.859-0.84c0.896,0.623,1.315,1.602,1.239,2.568
		c-0.683,8.719,3.492,15.15,9.615,20.691c1.21,2.795,3.626,4.412,5.896,6.217c1.132,0.902,3.108,2.313-0.332,2.891
		c-14.271-0.012-28.533,0.047-42.794-0.076c-1.485-0.014-3.696,1.313-4.512-1.35c4.236-3.363,5.729-8.045,5.927-13.152
		C779.369,706.421,779.233,700.764,779.251,695.114z"/>
	<path fill="#9A9A9A" d="M1138.384,694.925c7.287,0.068,14.574,0.137,21.863,0.205c0.01,5.27-0.154,10.543,0.078,15.805
		c0.238,5.395,2.115,10.252,5.906,14.246c-0.525,2.707-2.674,1.379-4.006,1.391c-13.328,0.111-26.66,0.063-39.979,0.068
		c-2.945,0.09-2.594-1.34-1.174-2.896c1.645-1.807,3.895-3.07,4.85-5.494c7.004-5.563,10.898-12.748,11.371-21.738
		C1137.33,695.833,1137.806,695.309,1138.384,694.925z"/>
	<path fill="#8D77D8" d="M502.719,649.151c3.838,0.057,7.323,3.545,7.374,7.387c0.054,4.064-3.707,7.658-7.781,7.432
		c-3.898-0.215-7.049-3.586-7.128-7.631C495.113,652.671,498.862,649.096,502.719,649.151z"/>
	<path fill="#8D77D8" d="M308.037,388.071c-0.292,3.871-3.945,7.151-7.765,6.973c-3.86-0.182-7.195-3.811-7.052-7.672
		c0.149-4.021,3.947-7.438,8.04-7.233C304.936,380.321,308.322,384.284,308.037,388.071z"/>
	<path fill="#8D77D8" d="M95.743,524.08c-4.007,0.141-7.717-3.46-7.707-7.479c0.009-3.839,3.459-7.303,7.326-7.356
		c3.406-0.047,7.629,4.341,7.591,7.887C102.916,520.539,99.373,523.953,95.743,524.08z"/>
	<path fill="#8D77D8" d="M1417.292,517.106c4.428-0.017,6.961,2.571,7.049,7.2c0.078,4.072-3.076,7.447-6.982,7.471
		c-3.896,0.021-7.104-3.347-7.051-7.406C1410.369,519.719,1412.867,517.122,1417.292,517.106z"/>
	<path fill="#8D77D8" d="M1693.794,642.141c-4.686-0.004-7.322-2.436-7.418-6.838c-0.098-4.631,2.654-7.252,7.557-7.193
		c3.814,0.045,7,3.102,7.123,6.834C1701.185,638.802,1697.814,642.143,1693.794,642.141z"/>
	<path fill="#8D77D8" d="M68.99,368.292c0.141,3.965-2.547,6.606-6.913,6.797c-4.133,0.18-8.021-3.249-7.997-7.049
		c0.023-3.417,3.508-6.86,7.072-6.986C65.262,360.908,68.846,364.218,68.99,368.292z"/>
	<path fill="#8D77D8" d="M1873.437,398.343c0.094,4.042-2.986,7.575-6.73,7.726c-4.176,0.165-7.15-2.705-7.301-7.046
		c-0.135-3.925,3.008-7.637,6.672-7.88C1869.611,390.907,1873.349,394.565,1873.437,398.343z"/>
	<path fill="#8D77D8" d="M1149.605,206c-4-0.027-7.438-3.619-7.354-7.686c0.076-3.758,3.771-7.411,7.297-7.217
		c3.645,0.203,6.834,3.892,6.729,7.779C1156.167,202.981,1153.314,206.027,1149.605,206z"/>
	<path fill="#8D77D8" d="M731.583,202.037c-3.799-0.04-7.454-3.607-7.347-7.172c0.108-3.618,3.792-6.917,7.662-6.864
		c4.128,0.059,7.195,2.833,7.246,6.554C739.2,198.534,735.616,202.079,731.583,202.037z"/>
	<path fill="#8D77D8" d="M1686.912,163.035c3.844,0.021,7.311,3.501,7.328,7.354c0.014,3.197-4.275,7.286-7.668,7.313
		c-3.777,0.028-7.322-3.671-7.164-7.479C1679.568,166.382,1683.085,163.013,1686.912,163.035z"/>
	<path fill="#8D77D8" d="M1433.337,268.651c-0.037,3.79-3.594,7.427-7.168,7.327c-3.443-0.096-7.365-4.144-7.305-7.539
		c0.061-3.426,4.104-7.37,7.516-7.331C1429.99,261.151,1433.376,264.823,1433.337,268.651z"/>
	<path fill="#8D77D8" d="M1056.226,375.323c0.082-3.615,3.422-7.104,6.885-7.189c3.807-0.094,7.334,3.818,7.143,7.926
		c-0.164,3.556-3.723,7.02-7.131,6.942C1059.468,382.918,1056.14,379.21,1056.226,375.323z"/>
	<path fill="#8D77D8" d="M1884.681,198c3.898-0.064,7.598,3.252,7.684,6.891c0.084,3.615-3.525,7.013-7.586,7.141
		c-3.459,0.107-7.133-3.311-7.287-6.783C1877.318,201.392,1880.615,198.069,1884.681,198z"/>
	<path fill="#8D77D8" d="M559.403,509.107c-3.793-0.078-7.451-3.812-7.212-7.359c0.249-3.691,3.98-6.84,7.901-6.668
		c3.546,0.156,7.028,3.709,6.965,7.107C566.99,505.821,563.267,509.187,559.403,509.107z"/>
	<path fill="#8D77D8" d="M92.097,219.051c-4.603-0.129-7.147-2.696-7.08-7.143c0.066-4.371,2.92-7.045,7.342-6.881
		c4.353,0.161,6.735,2.853,6.68,7.546C98.988,216.893,96.542,219.176,92.097,219.051z"/>
	<path fill="#8D77D8" d="M1685.408,382.586c0.031,4.657-2.369,7.343-6.688,7.483c-3.832,0.125-7.326-3.233-7.338-7.051
		c-0.014-4.356,2.6-6.89,7.193-6.972C1683.037,375.967,1685.376,378.208,1685.408,382.586z"/>
	<path fill="#9994A6" d="M773.225,725.216c1.342,1.453,3.107,0.908,4.703,0.91c14.781,0.025,29.563-0.004,44.342-0.016
		c0.704-0.523,1.328-0.465,1.857,0.26c-1.101,1.029-2.479,0.771-3.78,0.77c-17.076-0.012-34.151-0.041-51.229-0.066
		C770.487,726.456,771.855,725.835,773.225,725.216z"/>
	<path fill="#938FA2" d="M1120.044,726.022c14.328,0.043,28.656,0.086,42.986,0.125c1.162,0.004,2.359,0.1,3.201-0.969
		c1.359,0.625,2.723,1.248,4.084,1.869c-16.102,0.033-32.201,0.072-48.303,0.094c-1.297,0-2.689,0.279-3.73-0.871
		C1118.794,725.653,1119.386,725.598,1120.044,726.022z"/>
	<path fill="#8B75D6" d="M1317.628,425.227c2.09,0.249,3.461,1.498,3.572,3.764c0.1,2.068-1.131,3.605-3.092,3.82
		c-2.176,0.239-3.709-0.83-3.85-3.378C1314.128,427.035,1315.16,425.722,1317.628,425.227z"/>
	<path fill="#8C76D7" d="M1217.978,302.065c2.529,0.073,3.396,1.548,3.271,3.868c-0.123,2.25-1.43,3.149-3.549,3.095
		c-2.598-0.068-3.266-1.912-3.316-3.98C1214.328,302.725,1215.921,302.031,1217.978,302.065z"/>
	<path fill="#8D77D8" d="M1602.498,515.813c-2.123-0.291-3.701-1.491-3.746-3.73c-0.041-2.015,1.436-3.484,3.389-3.588
		c2.244-0.12,3.781,1.408,3.838,3.628C1606.029,514.138,1604.533,515.305,1602.498,515.813z"/>
	<path fill="#8C76D7" d="M1539.294,687.661c0.012,2.42-1.182,3.447-3.375,3.469c-2.146,0.021-3.461-0.885-3.547-3.166
		c-0.078-2.059,0.531-3.684,2.902-3.727C1537.619,684.192,1538.806,685.663,1539.294,687.661z"/>
	<path fill="#8D76D7" d="M1321.236,235.469c-0.455,2.02-1.656,3.479-3.992,3.469c-2.377-0.012-3-1.625-2.938-3.699
		c0.068-2.288,1.338-3.216,3.508-3.201C1320.001,232.05,1321.236,233.026,1321.236,235.469z"/>
	<path fill="#8C76D7" d="M94.477,687.616c-1.889-0.488-3.482-1.279-3.387-3.553c0.086-2.059,1.297-3.594,3.255-3.674
		c2.269-0.09,3.533,1.555,3.596,3.807C98.005,686.471,96.327,687.184,94.477,687.616z"/>
	<path fill="#8C75D7" d="M1271.226,702.757c0.049,2.467-1.398,3.686-3.309,3.738c-2.186,0.061-3.605-1.25-3.65-3.705
		c-0.037-2.047,1.098-3.26,2.885-3.25C1269.193,699.552,1270.939,700.548,1271.226,702.757z"/>
	<path fill="#8C76D7" d="M138.008,176.533c0.07,2.989-0.76,4.329-3.102,4.482c-2.34,0.154-3.548-1.202-3.637-3.197
		c-0.105-2.36,1.523-3.624,3.812-3.693C137.179,174.06,137.948,175.468,138.008,176.533z"/>
	<path fill="#8C76D7" d="M269.762,520.389c1.974,0.322,3.164,1.559,3.23,3.595c0.066,2.037-1.022,3.705-3.083,3.694
		c-1.794-0.008-3.526-1.016-3.759-3.205C265.88,521.935,267.755,521.141,269.762,520.389z"/>
	<path fill="#8B75D6" d="M1877.49,341.284c2.197,0.696,3.73,1.873,3.563,3.914c-0.182,2.178-1.707,3.706-4.008,3.469
		c-1.701-0.177-3.217-1.368-2.99-3.318C1874.296,343.274,1875.609,341.812,1877.49,341.284z"/>
	<path fill="#8B75D6" d="M1729.072,235.318c1.99,0.313,3.18,1.554,3.252,3.588c0.07,2.035-1.018,3.706-3.078,3.702
		c-1.797-0.003-3.533-1.002-3.77-3.193C1725.205,236.876,1727.08,236.078,1729.072,235.318z"/>
	<path fill="#8C76D7" d="M1487.343,191.457c0.215,2.042-1.211,3.182-3.209,3.339c-2.145,0.169-3.396-1.335-3.668-3.329
		c-0.309-2.271,0.98-3.379,3.225-3.44C1485.853,187.967,1487.214,188.826,1487.343,191.457z"/>
	<path fill="#8C76D7" d="M874.162,394.871c-0.049,2.463-1.602,3.583-3.466,3.582c-1.867-0.003-3.525-1.135-3.414-3.396
		c0.108-2.229,1.366-3.879,3.661-3.728C872.911,391.458,873.987,393.036,874.162,394.871z"/>
	<path fill="#8C76D7" d="M152.74,379.174c2.071,0.691,3.452,1.988,3.203,4.292c-0.232,2.152-1.83,3.173-3.802,2.922
		c-1.955-0.249-3.338-1.545-3.015-3.751C149.416,380.664,150.678,379.477,152.74,379.174z"/>
	<path fill="#8C76D7" d="M672.057,341.53c-0.453,1.965-1.602,3.251-3.628,3.446c-2.233,0.215-3.503-1.244-3.612-3.172
		c-0.124-2.185,1.093-3.812,3.571-3.671C670.437,338.25,671.561,339.59,672.057,341.53z"/>
	<path fill="#8C76D7" d="M247.008,262.287c-0.454,2.163-1.12,3.777-3.508,3.747c-2.223-0.03-3.409-1.078-3.435-3.351
		c-0.024-2.147,0.784-3.62,3.15-3.564C245.374,259.169,246.356,260.661,247.008,262.287z"/>
	<path fill="#8C76D7" d="M922.656,249.975c-2.438,0.097-3.655-1.291-3.793-3.22c-0.139-1.935,0.92-3.553,3.125-3.642
		c2.281-0.093,3.93,1.209,3.999,3.424C926.048,248.538,924.434,249.633,922.656,249.975z"/>
	<path fill="#8C76D7" d="M1685.925,528.065c-2.133-0.7-3.449-1.845-3.457-3.939c-0.01-2.355,1.516-3.075,3.609-3.027
		c2.227,0.053,3.428,1.168,3.209,3.408C1689.083,526.586,1687.609,527.54,1685.925,528.065z"/>
	<path fill="#8C76D7" d="M483.74,202.045c-1.313-0.063-3.06-0.09-3.092-1.625c-0.043-2.022,2.063-1.751,3.314-1.708
		c1.105,0.037,2.991,0.057,2.861,1.872C486.693,202.424,484.939,201.88,483.74,202.045z"/>
	<path fill="#EAE7F5" d="M1336.208,638.977c0.4,0.406,0.803,0.814,1.203,1.221c-2.344,3.164-5.771,4.512-9.615,5.33
		C1330.673,643.407,1333.589,641.37,1336.208,638.977z"/>
	<path fill="#565656" d="M865.761,746.085c0.722-6.654,1.442-13.309,2.162-19.965c-2.086-3.883,0.272-7.783-0.061-11.672
		c2.224-15.824,3.438-31.775,5.78-47.588c2.275-15.359,8.367-29.041,18.285-41c0.967-1.164,1.692-2.469,2.396-3.787
		c7.835-7.549,16.233-14.367,25.79-19.688c1.358-0.758,2.911-0.48,4.243-1.15c14.602-6.049,29.463-10.748,45.589-10.156
		c13.381,0.492,26.172,3.299,38.447,8.576c1.512,0.648,2.896,1.666,4.68,1.383c6.982,2.668,13.002,6.926,18.748,11.578
		c2.037,1.65,4.049,3.342,6.092,5c0.576,0.527,1.078,1.113,1.516,1.762c9.725,10.055,17.047,21.557,21.223,34.979
		c3.129,10.061,3.932,20.49,4.982,30.881c0.949,9.396,1.674,18.816,2.943,28.182c-0.436,4.211,2.057,8.439-0.063,12.639
		c0.627,6.711,1.256,13.422,1.885,20.135c3.568,4.924,2.025,10.857,3.1,16.277c0.662,3.35,0.729,6.865,1.109,10.301
		c1.947,21.045,4.297,42.053,6.303,63.094c2.043,21.426-3.453,40.895-15.381,58.631c-3.318,4.936-6.445,10.168-12.258,12.752
		c-4.248,2.385-8.545,0.191-12.658-0.271c-17.559-1.98-35.051-4.531-52.568-6.873c-1.682-1.955-1.496-4.354-1.498-6.664
		c-0.035-42.801-0.035-85.602-0.006-128.4c0.002-2.16-0.051-4.348,1.006-6.344c2.33-2.75,5.775-2.238,8.783-2.789
		c3.58-0.654,5.221-2.539,5.262-6.063c0.107-9.148,0.107-18.299,0.002-27.447c-0.041-3.568-1.979-5.467-5.326-6.191
		c-1.803-0.393-3.625-0.479-5.457-0.48c-15.971-0.02-31.941-0.061-47.914,0.014c-9.271,0.041-11.074,1.91-11.115,11.133
		c-0.029,6.488-0.045,12.977,0.005,19.465c0.062,7.893,1.74,9.658,9.516,10.246c2.29,0.174,4.729-0.092,6.472,1.951
		c1.075,1.803,1.108,3.813,1.11,5.803c0.048,41.859,0.042,83.721,0.001,125.578c-0.002,2.148,0.09,4.355-1.43,6.17
		c-25.055-1.141-50.079-0.053-75.102,1.055c-7.039-5.313-9.675-13.389-12.797-21.021c-6.812-16.652-7.465-33.947-4.412-51.494
		c0.459-2.635,0.557-5.295,0.88-7.939c2.543-21.568,4.919-43.152,7.523-64.711C863.811,749.813,863.988,747.659,865.761,746.085z"/>
	<path fill="#6A53B8" d="M1053.273,907.249c10.227-10.701,18.168-22.744,22.537-37.055c4.188-13.717,5.158-27.475,2.887-41.703
		c-1.771-11.096-2.363-22.381-3.438-33.588c-0.693-7.246-1.307-14.5-1.957-21.752c1.791-2.002,4.287-2.453,6.719-2.98
		c34.955-7.58,69.898-15.207,105.018-22.01c5.375-1.041,10.822-1.66,16.342-1.512c13.268,0.357,26.553-0.609,39.811,0.512
		c0.041,53.988,0.076,107.975,0.127,161.963c0.006,5.664,0.096,11.326,0.148,16.99c-5.775-1.891-11.855-1.158-17.75-1.678
		c-19.596-1.727-39.213-3.232-58.797-5.176c-15.629-1.549-31.311-2.574-46.939-4.121c-18.246-1.805-36.459-3.959-54.693-5.871
		C1059.865,908.911,1056.267,909.647,1053.273,907.249z"/>
	<path fill="#6A53B8" d="M857.21,817.171c-0.681,7.072-1.37,14.146-2.042,21.219c-1.43,15.055,2.043,29.184,8.041,42.852
		c2.473,5.639,5.973,10.668,9.145,15.896c-18.283,1.393-36.608,2.084-54.882,3.805c-10.18,0.957-20.462,1.158-30.652,2.271
		c-13.287,1.455-26.65,1.971-39.928,3.697c-7.668,0.998-15.454,1.279-23.181,2.082c-10.184,1.057-20.435,1.467-30.658,2.156
		c-1.708-1.93-1.564-4.318-1.567-6.631c-0.038-29.934-0.035-59.865-0.006-89.799c0.003-1.992-0.018-4.004,0.86-5.867
		c2.117-2.623,4.589-1.08,6.837-0.404c16.102,4.842,32.153,9.775,48.611,13.404c15.017,3.311,30.031,3.176,45.188,2.17
		c19.464-1.293,38.688-4.398,57.949-7.268C852.995,816.448,855.208,815.708,857.21,817.171z"/>
	<path fill="#ACACAC" d="M947.456,896.083c-0.026-43.809-0.051-87.615-0.086-131.422c-0.002-2.162-0.092-4.324-0.142-6.488
		c0.23-0.221,0.461-0.439,0.688-0.662c2.69-1.252,5.567-0.822,8.349-0.734c10.423,0.332,20.886-0.938,31.279,0.705
		c0.234,0.217,0.467,0.438,0.697,0.654c-0.041,41.158-0.082,82.314-0.129,123.473c-0.008,6.166-0.043,12.33-0.066,18.494
		C974.562,898.311,961.073,896.555,947.456,896.083z"/>
	<path fill="#959595" d="M693.154,808.165c-0.033,34.328-0.065,68.656-0.1,102.982c-6.894,1.385-13.89,1.703-20.884,2.035
		c-0.055-37.352-0.11-74.703-0.165-112.055c-1.322-2.236-1.545-4.691-1.542-7.227c0.013-13.656-0.021-27.314,0.03-40.973
		c0.009-2.305-0.218-4.713,1.523-6.643c7.071-0.01,14.145-0.02,21.216-0.027c1.646,1.738,1.575,3.949,1.583,6.092
		c0.056,16.578,0.058,33.156,0.002,49.734C694.809,804.247,694.761,806.427,693.154,808.165z"/>
	<path fill="#7159C0" d="M672.016,746.288c-0.003,18.281-0.005,36.563-0.009,54.844c-22.145-8.098-44.231-16.352-66.446-24.248
		c-26.448-9.402-52.59-19.674-79.357-28.172c-2.958-0.938-6.007-1.592-9.013-2.377C568.799,746.321,620.407,746.303,672.016,746.288
		z"/>
	<path fill="#8C76D7" d="M349.387,724.042c-2.005-0.5-3.451-1.355-3.304-3.713c0.144-2.314,1.43-3.217,3.604-3.178
		c2.24,0.041,3.528,1.141,3.276,3.41C352.737,722.594,351.428,723.792,349.387,724.042z"/>
	<path fill="#292929" d="M924.357,601.237c-10.681,5.578-19.641,13.564-29.127,20.814c-2.201,4.021-6.382,5.711-9.847,8.188
		c-10.938,7.816-21.956,15.523-32.958,23.252c-1.212,0.852-2.33,2.617-4.29,1.363c-1.809-1.297-3.879-0.693-5.82-0.693
		c-55.311-0.035-110.62-0.102-165.93,0.094c-5.102,0.02-6.352-1.311-6.331-6.361c0.199-48.811,0.119-97.623,0.12-146.437
		c0-6.348,0.006-6.352,6.597-6.352c74.969-0.001,149.937,0,224.904-0.006c2.165,0,4.328-0.069,6.493-0.108
		c0-0.001,0.07,0.232,0.07,0.232c1.007,8.104,0.178,16.245,0.46,24.354c0.115,2.088-1.367,2.897-2.974,3.41
		c-7.038,2.25-10.708,7.42-10.792,14.404c-0.083,6.907,4.109,11.597,10.435,14.294c0.605,0.26,1.176,0.598,1.73,0.968
		c2.451,1.783,1.332,4.41,1.596,6.713c0.216,1.889-0.496,3.859,0.479,5.685c0.327,1.385,0.654,2.77,0.981,4.154
		c-0.737,1.959-0.72,3.92-0.009,5.879c2.256,6.32,3.871,12.912,7.449,18.682C919.376,596.635,920.582,600.134,924.357,601.237z"/>
	<path fill="#A1C9E2" d="M1026.238,495.047c78.617,0.017,157.232,0.064,235.852-0.045c4.16-0.006,5.551,0.662,5.531,5.288
		c-0.205,49.468-0.205,98.939-0.002,148.408c0.02,4.781-1.484,5.537-5.789,5.525c-54.133-0.139-108.268-0.094-162.398-0.084
		c-1.996,0-3.992,0.098-5.988,0.148c-1.428,0.686-2.637-0.002-3.709-0.764c-7.332-5.209-14.898-10.092-22.031-15.572
		c-1.371-1.053-5.146-2.59-0.818-4.982c2.797-0.713,5.641-0.494,8.463-0.496c43.469-0.016,86.936-0.01,130.4-0.012
		c1.666,0,3.33,0.012,4.996-0.004c9.197-0.078,10.84-1.629,10.852-10.758c0.043-31.975,0.045-63.95,0-95.925
		c-0.014-8.806-1.256-9.998-10.23-10.001c-54.293-0.021-108.584-0.023-162.875,0.003c-8.191,0.004-8.301,0.149-10.221,8.191
		c-0.891,2.011-2.484,1.987-4.105,1.189c-2.639-1.299-5.645-1.888-7.879-3.989C1026.269,512.461,1026.253,503.754,1026.238,495.047z
		"/>
	<path fill="#A2C9E2" d="M1036.992,618.356c-7.33-6.66-15.943-11.545-23.918-17.314c9.404-12.184,13.184-26.135,13.014-41.343
		c-0.023-2.148,0.186-4.303,0.289-6.453c2.553-2.169,5.955-2.503,8.803-4.056c1.336-0.73,2.521-0.359,3.094,1.229
		c0.535,1.43,0.607,2.921,0.613,4.411c0.059,19.208,0.07,38.415-0.018,57.622C1038.859,614.567,1038.988,616.827,1036.992,618.356z"
		/>
	<path fill="#F6AA7E" d="M906.21,553.263c-8.465-3.06-13.067-9.02-12.695-16.438c0.407-8.146,5.319-13.416,14.685-15.76
		c0.498-0.521,0.781-0.421,0.853,0.296c0.004,10.5,0.009,21.001,0.011,31.503C908.261,554.062,907.225,553.588,906.21,553.263z"/>
	<path fill="#F8AB7F" d="M1037.023,549.149c-3.158,2.383-6.477,4.349-10.646,4.097c-0.031-10.693-0.063-21.384-0.094-32.078
		c4.1-0.033,7.313,2.231,10.676,4.111C1044.873,530.713,1044.91,544.525,1037.023,549.149z"/>
	<path fill="#433B36" d="M909.052,521.363c-0.312-0.021-0.595-0.12-0.853-0.296c0.014-8.615,0.025-17.231,0.04-25.847
		c1.974,3.752,0.751,7.777,0.907,11.665C909.34,511.702,909.104,516.536,909.052,521.363z"/>
	<path fill="#443B36" d="M906.21,553.263c0.951-0.133,1.902-0.266,2.853-0.398c0.036,4.063,0.073,8.125,0.11,12.188
		c-1.81-1.991-0.838-4.413-0.901-6.626C908.214,556.365,908.137,554.498,906.21,553.263z"/>
	<path fill="#4C4138" d="M910.146,575.087c-1.436-1.963-1.502-3.924,0.009-5.881C910.152,571.167,910.148,573.128,910.146,575.087z"
		/>
	<path fill="#7159C0" d="M1241.191,747.163c-4.832-0.002-9.688,0.309-14.49-0.059c-22.656-1.736-44.561,2.777-66.477,7.533
		c-28.951,6.281-57.945,12.354-86.922,18.516c-0.969-8.988-1.938-17.977-2.904-26.961c56.932,0.018,113.863,0.035,170.795,0.053
		C1241.238,746.552,1241.238,746.856,1241.191,747.163z"/>
	<path fill="#FAC29C" d="M1068.517,726.059c-0.654-4.271-1.541-8.521-1.25-12.887c2-1.652,4.125-0.672,6.191-0.248
		c10.26,2.102,20.539,4.119,30.75,6.451c6.264,1.434,12.475,1.938,18.686-0.221c1.094-0.379,2.25-0.646,3.402-0.111
		c0.014,4.205-4.447,4.4-6.252,6.979c-0.588,0.082-1.176,0.164-1.762,0.246c-8.324,3.527-17.053,1.914-25.568,1.59
		C1084.652,727.55,1076.628,726.102,1068.517,726.059z"/>
	<path fill="#7159C0" d="M693.154,808.165c0.025-20.635,0.052-41.27,0.078-61.904c55.353-0.012,110.705-0.023,166.058-0.045
		c2.159,0,4.317-0.086,6.474-0.131c-1.869,16.313-3.691,32.633-5.617,48.939c-0.875,7.395-1.951,14.766-2.937,22.145
		c-12.735,1.99-25.431,4.301-38.217,5.889c-16.951,2.104-33.96,3.73-51.102,3.135c-13.544-0.473-26.49-4.086-39.437-7.504
		C716.59,815.552,704.914,811.702,693.154,808.165z"/>
	<path fill="#FAC29C" d="M869.145,714.243c0.321,4.033-0.729,7.928-1.221,11.877c-11.359,1.182-22.715,2.311-34.166,2.146
		c-3.376-0.047-6.599-0.352-9.631-1.898c-0.62-0.084-1.239-0.17-1.858-0.258c-2.919-2.416-7.062-3.584-8.102-7.924
		c1.15-0.635,2.306-0.324,3.358,0.15c6.557,2.961,13.21,2.551,20.025,0.988c8.425-1.932,16.88-3.752,25.387-5.303
		C864.98,713.651,867.135,712.618,869.145,714.243z"/>
	<path fill="#7159C0" d="M869.145,714.243c-12.136,2.525-24.263,5.096-36.41,7.559c-6.651,1.348-12.802-0.232-18.567-3.613
		c-8.19-5.939-11.092-14.102-10.056-23.916c1.475-6.982,5.324-12.242,11.158-16.354c5.376-3.787,11.124-7.09,15.935-11.656
		c6.088-3.143,11.31-7.57,16.931-11.406c15.699-10.936,31.397-21.867,47.096-32.803c0.63,2.34-1.342,3.465-2.463,4.842
		c-11.037,13.553-16.794,29.143-18.619,46.426C872.703,686.985,870.829,700.604,869.145,714.243z"/>
	<path fill="#7159C0" d="M1126.296,719.044c-9.217,5.488-18.598,2.492-27.963,0.547c-10.354-2.148-20.709-4.277-31.066-6.418
		c-1.012-9.027-2.34-18.037-2.975-27.094c-1.467-20.975-5.387-41.033-18.996-58.037c-2.371-2.959-5.707-5.115-7.25-8.748
		c1.33-1.646,3.094-1.201,4.512-0.514c8.293,4.016,16.104,8.773,22.529,15.518c9.102,7.162,18.701,13.611,28.354,19.988
		c5.68,4.01,11.357,8.02,17.037,12.031c4.422,3.18,8.656,6.666,13.305,9.469c7.473,4.506,12.354,10.762,14.602,19.139
		C1138.582,705.083,1135.173,713.436,1126.296,719.044z"/>
	<path fill="#6F58BD" d="M1358.562,700.493c0-7.5-0.063-13.723,0.021-19.943c0.061-4.332,2.15-5.328,8.658-4.697
		c4.016,0.389,4.6,3.107,3.859,6.023C1369.271,689.096,1364.771,694.626,1358.562,700.493z"/>
	<path fill="#EDEDED" d="M1332.23,686.95c0.662-2.566,5.09-1.248,4.996-4.793c-0.006-0.236,1.646-0.053,1.947,1.234
		c0.295,1.256-0.953,3.016,1.123,3.729c1.189,1.354,1.191,2.709-0.004,4.061c-2.643,2.26-5.307,3.52-8.066,0.168
		C1331.001,689.88,1331.005,688.413,1332.23,686.95z"/>
	<path fill="#F0F0F0" d="M1323.466,691.159c-2.242,2.334-4.891,3.217-7.273,0.656c-2.104-2.262-1.996-5.357-0.162-7.729
		c2.172-2.807,4.854-2.068,7.273,0.051c1.414,4.627-3.678,1.012-4.18,3.746C1319.095,690.38,1324.98,686.534,1323.466,691.159z"/>
	<path fill="#E9E9E9" d="M1340.292,691.178c0.002-1.354,0.004-2.707,0.006-4.061c1.551-2.389,3.459-2.732,5.746-1.021
		c2.818,2.109,0.441,5.172-0.242,6.172C1344.441,694.26,1341.773,693.635,1340.292,691.178z"/>
	<path fill="#F0F0F0" d="M1332.23,686.95c0,1.465-0.002,2.932-0.004,4.398c-2.738,1.467-5.488,3.449-8.105-0.189
		c-0.289-1.572-1.328-3.199,0.316-4.639C1327.193,683.811,1329.687,685.823,1332.23,686.95z"/>
	<path fill="#373737" d="M1324.439,686.52c-0.105,1.547-0.213,3.094-0.318,4.639l-0.326,0.014l-0.326-0.014
		c-0.164-2.127-1.18-2.092-2.484-0.902c-1.23,1.121-2.445,1.213-3.182-0.293c-0.719-1.471-0.836-3.191,0.219-4.633
		c0.867-1.182,1.855-0.893,2.895,0.006c1.613,1.393,2.635,1.281,2.391-1.199C1324.199,684.686,1324.388,685.569,1324.439,686.52z"/>
	<path fill="#F9F9F9" d="M1065.087,634.3c-5.221-3.514-10.412-7.074-15.672-10.531c-3.461-2.273-6.936-4.619-11.367-4.473
		c-0.354-0.313-0.705-0.627-1.057-0.939c0.012-23.068,0.021-46.139,0.033-69.207c6.193-8.641,6.182-13.714-0.064-23.871
		c0.645-11.24,0.645-11.24,11.832-11.24c54.473-0.001,108.943-0.001,163.416,0c9.891,0,11.021,1.157,11.021,11.25
		c0,32.817,0.004,65.632-0.002,98.447c-0.002,8.244-2.121,10.387-10.229,10.389c-47.143,0.002-94.283-0.002-141.426,0.008
		C1069.412,634.134,1067.25,634.241,1065.087,634.3z"/>
	<path d="M947.23,758.173c-2.994-0.086-5.993-0.086-8.98-0.273c-5.727-0.361-7.758-2.414-7.811-8.109
		c-0.086-9-0.072-18.002-0.008-27.002c0.045-6.029,2.012-8.174,8.068-8.359c6.661-0.203,13.332-0.057,20-0.057
		c11.667-0.002,23.335-0.051,35.001,0.018c8.035,0.047,9.635,1.73,9.639,9.689c0.004,8.168,0.008,16.334,0,24.502
		c-0.008,7.531-0.566,8.197-7.934,9.063c-2.309,0.27-4.643,0.336-6.963,0.494l-0.395-0.08c-13.404-0.646-26.806-0.762-40.207,0.053
		L947.23,758.173z"/>
	<path fill="#8C76D7" d="M1206.753,772.444c-0.367,1.951-1.076,3.611-3.322,3.643c-2.279,0.031-3.916-1.266-3.918-3.498
		c-0.002-1.969,1.533-3.197,3.578-3.357C1205.38,769.048,1206.167,770.665,1206.753,772.444z"/>
	<path fill="#634EB0" d="M947.643,758.11c2.95-1.602,6.14-0.721,9.174-0.654c10.345,0.221,20.722-0.924,31.037,0.604
		C974.447,758.075,961.043,758.091,947.643,758.11z"/>
	<path fill="#747474" d="M817.427,588.102c15.991,0,31.982-0.037,47.972,0.059c1.549,0.008,4.321-1.184,4.375,1.629
		c0.059,3.02-2.819,2.182-4.629,2.186c-32.147,0.045-64.296,0.049-96.442-0.016c-1.581-0.002-4.276,1.047-4.319-1.807
		c-0.05-3.342,2.934-1.975,4.574-1.984C785.112,588.059,801.27,588.102,817.427,588.102z"/>
	<path fill="#737373" d="M805.438,548.052c15.816-0.002,31.632-0.051,47.446,0.072c1.661,0.014,4.706-1.426,4.799,1.691
		c0.089,2.956-2.868,2.105-4.678,2.107c-32.13,0.047-64.26,0.049-96.391-0.01c-1.59-0.002-4.215,0.991-4.286-1.877
		c-0.074-2.988,2.609-1.928,4.166-1.936C772.808,548.02,789.123,548.052,805.438,548.052z"/>
	<path fill="#737373" d="M767.489,612.126c10.151,0,20.305-0.039,30.456,0.045c1.427,0.014,3.801-0.957,3.878,1.693
		c0.07,2.404-2.084,2.164-3.709,2.164c-20.638,0.02-41.274,0.018-61.911,0.004c-1.653,0-3.787,0.15-3.632-2.242
		c0.167-2.576,2.522-1.607,3.963-1.619C746.852,612.087,757.171,612.126,767.489,612.126z"/>
	<path fill="#727272" d="M767.157,564.07c10.315,0,20.633-0.037,30.948,0.041c1.425,0.012,3.834-0.889,3.711,1.849
		c-0.106,2.35-2.277,2-3.877,2.002c-20.468,0.023-40.934,0.023-61.4,0c-1.596-0.002-3.859,0.391-3.937-1.916
		c-0.099-2.991,2.563-1.913,4.104-1.927C746.857,564.023,757.007,564.07,767.157,564.07z"/>
	<path fill="#747474" d="M786.196,600.018c-9.833,0-19.666,0.047-29.498-0.049c-1.591-0.016-4.195,1.049-4.371-1.787
		c-0.189-3.057,2.521-2.02,4.074-2.023c20.166-0.072,40.331-0.074,60.497,0c1.549,0.006,4.248-1.059,4.118,1.98
		c-0.122,2.873-2.736,1.814-4.321,1.83C806.529,600.063,796.362,600.018,786.196,600.018z"/>
	<path fill="#747474" d="M787.176,580.096c9.832,0,19.664-0.055,29.494,0.057c1.558,0.018,4.197-1.152,4.348,1.75
		c0.154,2.994-2.517,2.047-4.103,2.051c-20.164,0.064-40.326,0.064-60.49,0.002c-1.588-0.006-4.262,0.932-4.099-2.061
		c0.158-2.889,2.796-1.727,4.355-1.742C766.846,580.044,777.011,580.096,787.176,580.096z"/>
	<path fill="#727272" d="M786.642,535.929c-10.161,0-20.321,0.028-30.481-0.03c-1.497-0.01-3.751,0.713-3.862-1.853
		c-0.117-2.695,2.198-1.979,3.674-1.98c20.488-0.047,40.977-0.046,61.464-0.002c1.484,0.003,3.802-0.675,3.609,2.043
		c-0.18,2.542-2.427,1.78-3.919,1.79C806.964,535.958,796.803,535.929,786.642,535.929z"/>
	<path fill="#727272" d="M774.355,623.178c-10.161,0-20.322,0.027-30.483-0.031c-1.486-0.01-3.749,0.676-3.627-2.043
		c0.099-2.221,2.034-1.805,3.44-1.807c20.656-0.023,41.312-0.023,61.967,0c1.407,0.002,3.336-0.406,3.368,1.861
		c0.04,2.711-2.206,1.979-3.683,1.988C795.011,623.208,784.683,623.178,774.355,623.178z"/>
	<path fill="#727272" d="M786.252,631.192c-9.995,0-19.991,0.037-29.986-0.041c-1.459-0.012-3.818,0.875-3.955-1.684
		c-0.158-2.99,2.436-2.137,4.047-2.141c20.157-0.057,40.314-0.059,60.472,0.006c1.589,0.006,4.245-0.959,4.186,1.979
		c-0.059,2.928-2.716,1.813-4.276,1.83C806.577,631.243,796.414,631.192,786.252,631.192z"/>
	<path fill="#727272" d="M799.167,540.043c9.996,0,19.99-0.036,29.984,0.039c1.462,0.012,3.827-0.853,3.918,1.722
		c0.104,2.979-2.491,2.094-4.098,2.098c-20.155,0.059-40.312,0.061-60.468-0.004c-1.585-0.006-4.253,0.957-4.14-2.016
		c0.109-2.908,2.757-1.77,4.317-1.788C778.844,539.992,789.005,540.042,799.167,540.043z"/>
	<path fill="#737373" d="M774.664,572.083c10.163,0,20.327-0.033,30.489,0.039c1.455,0.012,3.746-0.855,3.856,1.793
		c0.112,2.666-2.151,2.039-3.661,2.041c-20.492,0.041-40.985,0.039-61.479,0.004c-1.532-0.004-3.79,0.539-3.617-2.104
		c0.17-2.602,2.463-1.723,3.921-1.734C754.337,572.048,764.501,572.083,774.664,572.083z"/>
	<path fill="#737373" d="M774.497,608.026c-10.165,0-20.331,0.027-30.496-0.029c-1.5-0.008-3.764,0.668-3.75-1.961
		c0.014-2.664,2.311-1.879,3.776-1.883c20.497-0.051,40.994-0.045,61.489-0.008c1.356,0.004,3.343-0.605,3.507,1.68
		c0.191,2.678-1.98,2.176-3.532,2.182C795.16,608.046,784.828,608.026,774.497,608.026z"/>
	<path fill="#787878" d="M767.141,519.264c-10.307,0-20.613,0.021-30.92-0.025c-1.364-0.006-3.501,0.607-3.569-1.55
		c-0.073-2.269,2.106-1.626,3.441-1.628c20.613-0.042,41.229-0.052,61.841,0.017c1.404,0.004,3.895-0.951,3.777,1.729
		c-0.093,2.113-2.3,1.42-3.648,1.428C787.755,519.289,777.448,519.264,767.141,519.264z"/>
	<path fill="#787878" d="M774.472,527.278c-10.169,0-20.338,0.024-30.506-0.031c-1.35-0.007-3.489,0.654-3.588-1.526
		c-0.106-2.348,2.107-1.64,3.416-1.643c20.504-0.05,41.009-0.05,61.513-0.002c1.329,0.003,3.572-0.716,3.568,1.481
		c-0.004,2.583-2.454,1.665-3.896,1.678C794.809,527.317,784.64,527.278,774.472,527.278z"/>
	<path fill="#727272" d="M763.136,556.058c5.999-0.002,11.998-0.059,17.995,0.041c1.432,0.023,3.79-0.875,3.695,1.889
		c-0.07,2.037-1.937,1.965-3.433,1.967c-12.663,0.016-25.326,0.02-37.989-0.004c-1.463-0.002-3.296,0.203-3.181-2.084
		c0.117-2.307,2.043-1.771,3.417-1.783C750.139,556.031,756.638,556.06,763.136,556.058z"/>
	<path fill="#6B55B5" d="M749.317,591.962c-2.484,0.006-4.97,0.004-7.454,0.006c-1.465,0-2.669-0.299-2.578-2.164
		c0.082-1.654,1.288-1.695,2.473-1.699c5.301-0.014,10.603-0.006,15.902,0c1.254,0.002,2.32,0.242,2.342,1.846
		c0.02,1.549-0.938,1.988-2.238,1.998C754.949,591.969,752.133,591.956,749.317,591.962z"/>
	<path fill="#6B55B4" d="M737.513,596.124c2.808-0.002,5.612-0.02,8.418,0.006c1.079,0.012,1.96,0.363,1.946,1.672
		c-0.012,1.143-0.607,2.021-1.717,2.037c-5.772,0.086-11.546,0.084-17.319,0.059c-1.229-0.008-1.637-0.873-1.625-2.016
		c0.014-1.264,0.758-1.736,1.879-1.748C731.901,596.112,734.707,596.126,737.513,596.124z"/>
	<path fill="#6B55B4" d="M737.26,583.952c-2.475,0.002-4.949,0.008-7.424,0c-1.424-0.004-2.675-0.207-2.621-2.102
		c0.046-1.643,1.171-1.756,2.382-1.758c5.279-0.008,10.56-0.016,15.838,0.002c1.162,0.004,2.451-0.006,2.438,1.68
		c-0.014,1.764-1.26,2.148-2.693,2.166C742.54,583.968,739.899,583.948,737.26,583.952z"/>
	<path fill="#6A54B3" d="M725.742,572.065c2.494,0,4.989-0.023,7.481,0.01c1.154,0.014,2.488-0.066,2.548,1.619
		c0.05,1.41-0.797,2.184-2.152,2.195c-5.486,0.043-10.975,0.043-16.46,0.021c-1.432-0.006-2.081-0.828-1.995-2.244
		c0.082-1.346,1.056-1.561,2.097-1.572c2.827-0.029,5.654-0.01,8.48-0.01C725.742,572.079,725.742,572.071,725.742,572.065z"/>
	<path fill="#6954B1" d="M737.88,548.046c2.666,0,5.333-0.021,7.998,0.01c1.064,0.016,2.004,0.313,2.01,1.652
		c0.005,1.172-0.647,2.027-1.749,2.041c-5.824,0.078-11.652,0.082-17.479,0.01c-1.256-0.016-1.514-1.121-1.432-2.189
		c0.104-1.332,1.12-1.504,2.152-1.516C732.214,548.028,735.047,548.044,737.88,548.046z"/>
	<path fill="#6954B1" d="M725.251,623.19c-2.66,0-5.32,0.02-7.979-0.012c-1.041-0.012-2.014-0.24-2.106-1.568
		c-0.1-1.42,0.577-2.242,1.995-2.248c5.484-0.023,10.97-0.023,16.455,0.025c1.333,0.014,2.217,0.758,2.163,2.186
		c-0.064,1.678-1.39,1.615-2.547,1.627c-2.659,0.031-5.319,0.01-7.979,0.01C725.251,623.204,725.251,623.198,725.251,623.19z"/>
	<path fill="#6953B0" d="M737.676,532.019c2.666-0.007,5.331-0.021,7.996,0.002c1.029,0.009,2.094,0.167,2.216,1.459
		c0.133,1.407-0.702,2.288-2.039,2.302c-5.661,0.062-11.322,0.042-16.984-0.006c-1.224-0.012-1.675-0.881-1.647-2.032
		c0.031-1.289,0.85-1.705,1.962-1.713C732.012,532.01,734.844,532.025,737.676,532.019z"/>
	<path fill="#6954B0" d="M737.165,631.219c-2.499-0.006-4.999,0.004-7.498-0.01c-1.21-0.008-2.385-0.086-2.452-1.746
		c-0.061-1.518,0.798-2.092,2.154-2.096c5.332-0.014,10.664-0.02,15.995,0.012c1.519,0.008,2.685,0.662,2.509,2.371
		c-0.165,1.611-1.574,1.451-2.71,1.463C742.498,631.247,739.831,631.225,737.165,631.219z"/>
	<path fill="#6954B1" d="M725.085,559.91c-2.494,0-4.987,0.012-7.481-0.006c-1.241-0.008-2.326-0.256-2.438-1.824
		c-0.112-1.58,0.832-2.016,2.158-2.02c5.484-0.01,10.971-0.016,16.457,0.006c1.075,0.002,2.007,0.342,1.999,1.658
		c-0.008,1.434-0.891,2.115-2.22,2.139c-2.824,0.051-5.65,0.016-8.477,0.016C725.085,559.888,725.085,559.9,725.085,559.91z"/>
	<path fill="#6C55B6" d="M725.169,607.966c-2.646,0.006-5.292,0.02-7.937,0.002c-1.403-0.01-2.133-0.701-2.06-2.154
		c0.064-1.279,0.895-1.664,1.991-1.666c5.457-0.012,10.913-0.012,16.37,0.006c1.36,0.004,2.237,0.631,2.116,2.098
		c-0.1,1.195-0.954,1.686-2.05,1.697C730.791,607.979,727.98,607.958,725.169,607.966z"/>
	<path fill="#6A54B2" d="M749.948,540.025c2.493-0.006,4.985-0.036,7.478,0.008c1.131,0.02,2.476-0.107,2.546,1.606
		c0.062,1.475-0.883,2.152-2.174,2.164c-5.481,0.051-10.965,0.053-16.446-0.018c-1.317-0.018-2.154-0.832-2.044-2.271
		c0.104-1.351,1.159-1.461,2.167-1.472C744.298,540.009,747.123,540.03,749.948,540.025z"/>
	<path fill="#6A54B2" d="M718.265,564.06c2.5,0.004,5-0.006,7.499,0.008c1.225,0.006,2.372,0.135,2.422,1.774
		c0.047,1.539-0.874,2.059-2.203,2.063c-5.165,0.02-10.331,0.021-15.496,0.004c-1.243-0.004-2.359-0.299-2.436-1.854
		c-0.098-2.005,1.371-1.972,2.717-1.989C713.266,564.035,715.765,564.056,718.265,564.06z"/>
	<path fill="#6C55B6" d="M718.116,615.987c-2.667-0.002-5.333,0.02-7.999-0.012c-1.4-0.016-2.165-0.738-2.064-2.189
		c0.09-1.285,1.001-1.621,2.08-1.625c5.333-0.016,10.666-0.016,15.998-0.002c1.088,0.002,1.966,0.348,2.042,1.645
		c0.084,1.455-0.635,2.172-2.058,2.18C723.449,615.999,720.782,615.989,718.116,615.987z"/>
	<path fill="#7159C0" d="M725.193,527.311c-2.654,0.001-5.308,0.021-7.959-0.01c-1.077-0.013-1.997-0.384-1.988-1.673
		c0.009-1.333,1.006-1.571,2.05-1.575c5.308-0.018,10.613-0.02,15.919,0.011c1.042,0.005,2.055,0.278,2.01,1.622
		c-0.043,1.282-1.024,1.596-2.071,1.609C730.499,527.333,727.846,527.309,725.193,527.311z"/>
	<path fill="#7159C0" d="M718.174,519.293c-2.65,0-5.303,0.023-7.954-0.012c-1.042-0.015-2.024-0.299-2.083-1.59
		c-0.06-1.349,0.935-1.64,1.981-1.645c5.303-0.028,10.605-0.026,15.91-0.009c1.036,0.004,2.041,0.229,2.068,1.559
		c0.028,1.299-0.894,1.671-1.969,1.685C723.478,519.318,720.826,519.293,718.174,519.293z"/>
	<path fill="#6B6B6B" d="M693.311,607.03c-1.512-0.373-4.152,0.828-4.02-2.145c0.13-2.891,2.729-1.771,4.29-1.779
		c1.539-0.01,4.243-1.086,4.121,1.871C697.595,607.587,695.066,606.803,693.311,607.03z"/>
	<path fill="#6B6B6B" d="M693.607,542.271c-1.562-0.52-4.202,0.986-4.317-1.939c-0.116-2.944,2.481-2,4.086-2.057
		c1.701-0.061,4.214-0.622,4.327,1.974C697.833,543.256,695.071,541.732,693.607,542.271z"/>
	<path fill="#6D6D6D" d="M693.302,550.202c-1.477-0.445-4.073,0.947-4.028-2.092c0.036-2.552,2.289-1.894,3.77-1.858
		c1.611,0.039,4.121-0.838,4.096,2.058C697.116,550.887,694.784,549.866,693.302,550.202z"/>
	<path fill="#6D6D6D" d="M692.97,599.059c-1.536-0.256-3.807,0.535-3.698-2.066c0.125-2.943,2.641-1.783,4.197-1.861
		c1.457-0.072,3.779-0.703,3.669,1.904C697.019,599.887,694.499,598.686,692.97,599.059z"/>
	<path fill="#6D6D6D" d="M693.535,587.063c1.562,0.258,3.883-0.496,3.604,2.152c-0.29,2.766-2.748,1.709-4.354,1.793
		c-1.514,0.08-3.768,0.521-3.509-2.102C689.558,586.032,692.084,587.55,693.535,587.063z"/>
	<path fill="#6D6D6D" d="M693.23,575.173c-1.515-0.402-4.113,0.865-3.959-2.193c0.13-2.551,2.395-1.766,3.857-1.752
		c1.61,0.014,4.143-0.82,4.008,2.125C697.021,575.884,694.702,574.829,693.23,575.173z"/>
	<path fill="#717171" d="M693.304,617.169c-1.718-0.361-4.014,0.623-4.017-1.98c-0.003-2.973,2.523-1.918,4.087-1.979
		c1.461-0.057,3.739-0.73,3.765,1.822C697.172,618.061,694.492,616.538,693.304,617.169z"/>
	<path fill="#717171" d="M693.155,579.106c1.559,0.365,4.146-0.777,3.971,2.211c-0.147,2.48-2.43,1.732-3.897,1.705
		c-1.575-0.031-4.121,0.918-3.948-2.115C689.425,578.333,691.722,579.469,693.155,579.106z"/>
	<path fill="#717171" d="M693.54,558.213c-1.673-0.51-4.254,0.893-4.252-2.117c0.001-2.576,2.266-1.898,3.73-1.857
		c1.592,0.047,4.093-0.9,4.117,1.998C697.16,558.886,694.751,557.685,693.54,558.213z"/>
	<path fill="#6D6D6D" d="M693.248,520.073c-1.526-0.367-4.087,0.818-3.979-2.191c0.096-2.603,2.393-1.765,3.83-1.738
		c1.572,0.027,4.144-0.946,4.037,2.044C697.048,520.691,694.764,519.788,693.248,520.073z"/>
	<path fill="#787878" d="M693.325,564.923c1.36,0.43,3.932-0.769,3.625,1.895c-0.264,2.271-2.656,1.254-4.121,1.32
		c-1.304,0.063-3.52,0.664-3.429-1.537C689.501,564.103,691.902,565.331,693.325,564.923z"/>
	<path fill="#787878" d="M692.934,530.835c1.64,0.507,4.175-0.708,4.043,1.847c-0.12,2.357-2.555,1.402-4.008,1.448
		c-1.302,0.042-3.472,0.748-3.552-1.407C689.313,529.965,691.911,531.589,692.934,530.835z"/>
	<path fill="#787878" d="M693.167,623.358c-1.377-0.43-3.835,0.813-3.747-1.83c0.072-2.16,2.257-1.434,3.554-1.393
		c1.449,0.047,3.89-0.93,4.005,1.441C697.105,624.108,694.582,622.952,693.167,623.358z"/>
	<path fill="#787878" d="M693.3,631.315c-1.415-0.414-3.825,0.818-3.897-1.703c-0.063-2.191,2.145-1.578,3.449-1.521
		c1.464,0.066,3.863-0.939,4.104,1.35C697.232,632.087,694.668,630.885,693.3,631.315z"/>
	<path fill="#787878" d="M693.115,526.288c-1.352-0.45-3.832,0.843-3.686-1.855c0.117-2.14,2.289-1.394,3.589-1.362
		c1.45,0.035,3.902-0.891,3.966,1.498C697.05,527.057,694.537,525.875,693.115,526.288z"/>
	<path fill="#383838" d="M1336.458,689.262c-0.193,0.693,0.09,1.799-1.141,1.678c-1.061-0.105-1.039-1.072-1.018-1.855
		c0.023-0.791,0.07-1.795,1.184-1.701C1336.554,687.473,1336.335,688.509,1336.458,689.262z"/>
	<path fill="#5C5C5C" d="M1327.611,687.204c1.021,0.049,1.406,0.781,1.533,1.6c0.16,1.039-0.086,2.094-1.275,2.289
		c-0.971,0.16-1.428-0.674-1.514-1.535C1326.253,688.534,1326.421,687.571,1327.611,687.204z"/>
	<path fill="#A2CAE2" d="M1174.486,601.132c-7.813,0-15.623-0.086-23.434,0.045c-2.781,0.047-3.822-0.875-3.795-3.717
		c0.027-2.715,1.191-3.363,3.641-3.352c15.955,0.064,31.91,0.07,47.865-0.004c2.564-0.014,3.482,0.859,3.539,3.455
		c0.064,2.951-1.207,3.652-3.883,3.613C1190.443,601.057,1182.464,601.132,1174.486,601.132z"/>
	<path fill="#A9CDE4" d="M1125.046,585.229c-6.166,0-12.332-0.025-18.498,0.012c-2.301,0.014-4.348,0.082-4.275-3.242
		c0.061-2.822,1.287-3.826,3.973-3.814c12.5,0.049,24.998,0.059,37.498-0.012c2.465-0.014,3.619,0.699,3.66,3.393
		c0.043,2.887-1.123,3.762-3.859,3.705C1137.38,585.137,1131.212,585.227,1125.046,585.229z"/>
	<path fill="#A2CAE2" d="M1118.169,601.13c-4.166-0.002-8.336-0.111-12.496,0.037c-2.729,0.1-3.361-1.17-3.391-3.615
		c-0.033-2.635,1.018-3.479,3.563-3.449c8.33,0.102,16.662,0.111,24.992-0.002c2.723-0.037,3.361,1.174,3.391,3.621
		c0.033,2.637-1.016,3.525-3.563,3.443C1126.503,601.034,1122.335,601.13,1118.169,601.13z"/>
	<path fill="#A3CAE2" d="M1118.535,563.078c4.154,0.004,8.313,0.104,12.465-0.033c2.686-0.088,3.389,1.135,3.406,3.599
		c0.018,2.602-1.002,3.492-3.551,3.461c-8.309-0.098-16.621-0.088-24.932-0.002c-2.438,0.025-3.629-0.629-3.656-3.348
		c-0.029-2.843,1.02-3.827,3.803-3.72C1110.218,563.195,1114.378,563.076,1118.535,563.078z"/>
	<path fill="#A3CAE2" d="M1148.22,617.055c-3.33,0-6.662-0.07-9.988,0.023c-2.457,0.072-4.141-0.236-4.131-3.406
		c0.008-2.92,1.195-3.701,3.893-3.652c6.822,0.121,13.652,0.129,20.477-0.002c2.729-0.053,3.838,0.771,3.857,3.67
		c0.021,3.189-1.67,3.463-4.117,3.391C1154.882,616.985,1151.55,617.055,1148.22,617.055z"/>
	<path fill="#A4CAE3" d="M1161.751,563.076c3.152-0.002,6.309,0.092,9.455-0.031c2.537-0.1,4.129,0.385,4.004,3.478
		c-0.119,2.918-1.613,3.604-4.168,3.574c-6.801-0.072-13.605-0.107-20.406,0.014c-2.713,0.049-3.342-1.184-3.365-3.615
		c-0.027-2.604,0.979-3.546,3.531-3.452C1154.449,563.177,1158.101,563.078,1161.751,563.076z"/>
	<path fill="#A3CAE3" d="M1188.562,610.063c3.328-0.002,6.664,0.129,9.984-0.041c2.832-0.145,3.779,0.963,3.76,3.764
		c-0.02,2.775-1.313,3.334-3.705,3.303c-6.656-0.088-13.314-0.104-19.973,0.004c-2.58,0.041-3.529-0.939-3.521-3.508
		c0.008-2.516,0.832-3.662,3.471-3.553C1181.898,610.171,1185.234,610.065,1188.562,610.063z"/>
	<path fill="#A9CDE4" d="M1175.898,585.227c-3.326,0-6.66-0.127-9.98,0.039c-2.842,0.143-3.766-1.002-3.748-3.785
		c0.018-2.773,1.326-3.338,3.713-3.309c6.488,0.084,12.98,0.076,19.469,0.008c2.746-0.027,3.852,1.143,3.877,3.896
		c0.027,2.881-1.578,3.225-3.844,3.17C1182.224,585.171,1179.062,585.229,1175.898,585.227z"/>
	<path fill="#A5CBE3" d="M1111.953,610.059c1.99,0.004,3.988,0.109,5.971-0.021c2.744-0.186,3.299,1.246,3.338,3.639
		c0.043,2.635-1.037,3.508-3.561,3.42c-3.813-0.131-7.631-0.102-11.443-0.012c-2.682,0.064-3.891-0.971-3.975-3.77
		c-0.102-3.279,1.865-3.344,4.195-3.271C1108.302,610.102,1110.128,610.055,1111.953,610.059z"/>
	<path fill="#ACCFE5" d="M1068.285,585.177c-1.33,0-2.666,0.082-3.988-0.02c-2.504-0.191-2.033-2.162-2.096-3.752
		c-0.063-1.586,0.102-3.105,2.211-3.16c2.156-0.057,4.322,0.037,6.479-0.072c2.854-0.145,4.313,0.857,4.301,3.979
		c-0.014,3.395-2.223,3.098-4.414,3.084c-0.83-0.006-1.662-0.002-2.492-0.002C1068.285,585.214,1068.285,585.196,1068.285,585.177z"
		/>
	<path fill="#A3CAE2" d="M1067.582,570.071c-1.916-0.52-5.404,1.51-5.422-3.176c-0.012-2.624,0.605-4.134,3.563-3.839
		c1.305,0.131,2.635,0.061,3.949,0.01c2.621-0.102,4.857-0.182,4.775,3.677c-0.076,3.637-2.262,3.375-4.621,3.332
		C1069.167,570.061,1068.507,570.071,1067.582,570.071z"/>
	<path fill="#A2CAE2" d="M1068.125,601.208c-2.453-0.535-6.027,1.441-5.982-3.557c0.049-5.365,3.918-3.305,6.365-3.408
		c2.396-0.102,5.928-1.551,5.908,3.383C1074.396,603.02,1070.408,600.446,1068.125,601.208z"/>
	<path fill="#A3CAE3" d="M1068.101,617.116c-2.656-0.369-6.107,1.234-5.955-3.672c0.168-5.367,4.07-3.088,6.486-3.279
		c2.453-0.193,5.914-1.365,5.781,3.504C1074.265,619.053,1070.242,616.278,1068.101,617.116z"/>
	<path fill="#A8CDE4" d="M1100.994,534.044c-2.799-0.025-5.648,0.545-5.713-3.661c-0.072-4.617,3.234-3.234,5.572-3.306
		c2.447-0.074,5.441-1.021,5.439,3.482C1106.291,535.111,1103.23,533.836,1100.994,534.044z"/>
	<path fill="#A4CAE3" d="M1067.062,534.024c-2.021-0.187-4.838,0.955-4.939-3.289c-0.105-4.437,2.721-3.664,5.305-3.699
		c2.506-0.033,4.992-0.497,4.967,3.546C1072.367,534.69,1069.761,534.003,1067.062,534.024z"/>
	<path fill="#A7CCE4" d="M1084.113,534.016c-2.332-0.058-4.965,0.754-5.047-3.32c-0.09-4.333,2.676-3.689,5.24-3.652
		c2.334,0.033,4.977-0.78,5.041,3.33C1089.417,534.684,1086.755,534.1,1084.113,534.016z"/>
</g>
</svg>
