<?xml version="1.0" encoding="utf-8"?>
<!-- Generator: Adobe Illustrator 16.0.0, SVG Export Plug-In . SVG Version: 6.00 Build 0)  -->
<!DOCTYPE svg PUBLIC "-//W3C//DTD SVG 1.1//EN" "http://www.w3.org/Graphics/SVG/1.1/DTD/svg11.dtd">
<svg version="1.1" id="Camada_1" xmlns="http://www.w3.org/2000/svg" xmlns:xlink="http://www.w3.org/1999/xlink" x="0px" y="0px"
	 width="331.959px" height="59.992px" viewBox="0 0 331.959 59.992" enable-background="new 0 0 331.959 59.992"
	 xml:space="preserve">
<polygon fill="#2D4283" points="93.582,28.355 98.631,28.355 98.631,39.633 117.892,39.633 117.25,20.895 98.631,20.371 
	93.956,15.696 117.892,15.696 122.754,20.558 122.754,39.633 117.518,44.869 93.582,44.869 "/>
<polygon fill="#2D4283" points="127.988,15.696 133.178,15.696 133.178,44.402 127.988,39.639 "/>
<path fill="#2D4283" d="M162.928,15.696h-18.771l-4.693,4.355l-0.216,19.581l5.987,5.237l17.613,0.184l5.151-5.152l0.289-18.844
	L162.928,15.696z M162.82,39.309c-0.304,0.303-17.899,0.446-18.34,0.27c-0.441-0.178-0.246-17.824,0-18.233
	c0.247-0.409,18.144-0.7,18.717,0C163.77,22.045,163.124,39.003,162.82,39.309z"/>
<polygon fill="#2D4283" points="173.72,45.352 179.491,45.352 179.491,33.807 192.329,33.807 197.993,45.053 203.387,45.352 
	197.669,33.375 203.387,28.574 203.171,20.213 197.615,15.696 174.367,15.696 179.222,20.968 197.993,20.968 197.993,28.355 
	173.937,28.355 "/>
<path fill="#2D4283" d="M209.538,45.352l5.395,0.322l10.896-21.955l8.198,15.859h-11.111l5.179,5.178l10.087-0.27
	c0,0,2.158-4.314,0.647-7.012c-1.511-2.699-11.166-21.78-11.166-21.78s-2.157-0.849-3.506,0
	C222.808,16.544,209.538,45.352,209.538,45.352z"/>
<rect x="246.604" y="28.089" fill="#2D4283" width="5.718" height="17.208"/>
<polygon fill="#2D4283" points="261.599,44.865 267.37,44.865 267.37,20.591 276.433,20.591 276.433,44.865 282.097,44.865 
	282.097,20.591 276.056,15.318 246.979,15.318 252.151,20.49 261.491,20.49 "/>
<path fill="#2D4283" d="M288.427,44.352l5.395,0.321l10.896-21.954l8.199,15.858h-11.112l5.18,5.178l10.086-0.269
	c0,0,2.158-4.315,0.647-7.014c-1.511-2.697-11.166-21.778-11.166-21.778s-2.157-0.849-3.506,0
	C301.696,15.544,288.427,44.352,288.427,44.352z"/>
<g>
	<polygon fill="#0FD9ED" points="19.956,1.152 13.396,11.124 42.311,59.572 52.846,59.572 80.078,10.782 74.816,1.49 	"/>
	<g>
		<polygon fill="#324692" points="80.313,10.67 52.785,59.479 42.255,59.479 32.101,15.29 45.855,23.212 47.424,41.981 		"/>
	</g>
	<polygon fill="#4685BB" points="42.255,59.479 13.396,11.124 19.956,1.152 56.332,15.446 45.855,23.212 32.101,15.29 	"/>
</g>
</svg>
